<svg width="204" height="229" viewBox="0 0 204 229" fill="none" xmlns="http://www.w3.org/2000/svg">
<g clip-path="url(#clip0)">
<rect width="203.08" height="228.59" transform="translate(0.480469)" fill="white"/>
<path d="M201.282 132.094C201.282 140.754 200.918 147.048 200.212 151.624C199.501 156.231 198.472 158.883 197.306 160.444C196.223 161.892 194.909 162.549 193.1 162.859C191.524 163.13 189.745 163.117 187.521 163.102C186.97 163.098 186.392 163.094 185.782 163.094C185.173 163.094 184.595 163.098 184.044 163.102C181.82 163.117 180.041 163.13 178.464 162.859C176.656 162.549 175.342 161.892 174.259 160.444C173.092 158.883 172.064 156.231 171.353 151.624C170.647 147.048 170.282 140.754 170.282 132.094C170.282 129.019 170.265 125.771 170.248 122.403C170.166 106.622 170.07 88.2157 171.635 72.7474C172.587 63.3489 174.136 55.2319 176.577 49.518C179.042 43.7489 182.093 41.0938 185.782 41.0938C189.472 41.0938 192.523 43.7489 194.988 49.518C197.429 55.2319 198.978 63.3489 199.929 72.7474C201.495 88.2158 201.399 106.622 201.317 122.403C201.299 125.771 201.282 129.019 201.282 132.094Z" fill="white" stroke="black" stroke-width="4"/>
<path d="M162.642 97.8778C163.396 106.497 163.527 112.795 163.145 117.411C162.761 122.053 161.872 124.794 160.755 126.467C159.703 128.044 158.331 128.848 156.451 129.333C154.824 129.753 152.981 129.902 150.73 130.084C150.19 130.128 149.627 130.173 149.038 130.225C148.44 130.277 147.875 130.33 147.338 130.381C145.128 130.589 143.406 130.751 141.879 130.612C140.163 130.456 138.917 129.928 137.809 128.59C136.598 127.125 135.437 124.552 134.401 119.993C133.374 115.472 132.515 109.215 131.76 100.58C131.405 96.5188 130.981 92.1614 130.539 87.6278C129.085 72.6887 127.445 55.8367 127.468 41.3772C127.483 31.9439 128.211 23.7397 130.071 17.8486C131.947 11.9074 134.713 9.01186 138.405 8.6889C142.121 8.36377 145.455 10.7579 148.496 16.2791C151.508 21.749 153.861 29.6868 155.729 38.9504C159.004 55.1959 160.685 74.9449 162.077 91.2976C162.27 93.5623 162.457 95.7618 162.642 97.8778Z" fill="white" stroke="black" stroke-width="4"/>
<path d="M122.172 89.0355C123.676 97.5644 124.41 103.826 124.51 108.455C124.609 113.115 124.057 115.906 123.179 117.645C122.364 119.26 121.184 120.135 119.457 120.754C117.951 121.295 116.197 121.591 114.004 121.962C113.461 122.054 112.891 122.15 112.291 122.256C111.691 122.362 111.122 122.466 110.58 122.566C108.393 122.967 106.643 123.289 105.043 123.296C103.209 123.304 101.801 122.886 100.483 121.647C99.0625 120.313 97.589 117.88 96.0887 113.466C94.5986 109.082 93.1471 102.947 91.6432 94.4186C91.1822 91.8037 90.6883 89.0625 90.1776 86.2277C87.328 70.4101 83.9534 51.6788 82.817 35.7183C82.1458 26.2927 82.2728 18.0233 83.6688 11.9702C85.0821 5.84228 87.5865 2.73012 91.1058 2.10958C94.6251 1.48903 98.0429 3.55694 101.467 8.83193C104.849 14.0425 107.796 21.7698 110.39 30.8565C114.78 46.2431 118.016 64.9991 120.748 80.8373C121.238 83.6758 121.711 86.4206 122.172 89.0355Z" fill="white" stroke="black" stroke-width="4"/>
<path d="M88.6575 113.265C90.901 121.638 92.2341 127.811 92.8154 132.411C93.4016 137.049 93.1908 139.864 92.5528 141.655C91.9698 143.291 90.9798 144.213 89.4208 144.947C88.0336 145.6 86.3593 146.037 84.2113 146.597C83.6899 146.733 83.1406 146.876 82.5608 147.031C81.9895 147.184 81.4449 147.334 80.923 147.478C78.7448 148.077 76.9623 148.568 75.2895 148.729C73.3567 148.916 71.7927 148.629 70.2648 147.508C68.6432 146.317 66.8702 144.046 64.9217 139.816C62.9837 135.608 60.9532 129.646 58.7138 121.288C58.3254 119.839 57.9245 118.349 57.5144 116.825C53.1561 100.632 47.7577 80.5734 45.2319 63.5093C43.8477 54.1572 43.3565 45.8842 44.2964 39.7132C45.248 33.4646 47.5181 30.1173 50.9848 29.1884C54.4267 28.2662 57.9579 30.0242 61.7481 34.993C65.4938 39.9034 68.9995 47.3656 72.2693 56.2177C77.4353 70.2036 81.8493 87.1834 85.7096 102.033C86.7297 105.957 87.7111 109.733 88.6575 113.265Z" fill="white" stroke="black" stroke-width="4"/>
<path d="M44.5704 198.548C29.9704 188.694 17.8563 178.372 10.4059 169.138C6.6753 164.514 4.20468 160.273 3.11523 156.59C2.0377 152.948 2.34745 150.018 3.91648 147.694C5.48552 145.369 8.08703 143.986 11.8678 143.623C15.6904 143.256 20.5477 143.961 26.2314 145.692C37.5821 149.147 51.6852 156.522 66.2853 166.377C80.8854 176.231 92.9995 186.553 100.45 195.787C104.18 200.411 106.651 204.652 107.741 208.334C108.818 211.977 108.508 214.907 106.939 217.231C105.37 219.556 102.769 220.939 98.9879 221.302C95.1653 221.669 90.308 220.964 84.6244 219.233C73.2737 215.777 59.1705 208.403 44.5704 198.548Z" fill="white" stroke="black" stroke-width="4"/>
<path d="M61.9396 108.394C61.7555 104.29 61.5941 100.211 61.5214 96.9062L65.4237 103.956C65.4421 103.994 65.4605 104.033 65.479 104.072L65.6061 104.339C67.371 108.053 69.1703 111.833 70.6223 114.58C71.3409 115.939 72.0162 117.126 72.587 117.938C72.852 118.315 73.1996 118.766 73.6081 119.093C73.7988 119.246 74.2004 119.536 74.7684 119.628C75.5038 119.748 76.2546 119.492 76.7633 118.912C89.8696 103.959 106.591 100.094 131.393 100.094C166.119 100.094 195.419 116.856 201.258 147.963C201.591 149.74 201.606 153.439 201.509 157.466C201.47 159.092 201.413 160.761 201.361 162.31C201.288 164.442 201.223 166.345 201.223 167.594C201.223 186.084 192.717 200.747 178.46 210.856C164.145 221.006 143.968 226.593 120.76 226.593C97.543 226.593 82.9112 221.007 74.0213 211.148C65.0923 201.246 61.5617 186.609 61.5617 167.594C61.5617 158.19 61.8219 137.175 62.7495 127.79C62.7909 127.371 62.7665 126.442 62.7288 125.385C62.688 124.24 62.6203 122.72 62.5372 120.958C62.4783 119.708 62.4116 118.335 62.341 116.883C62.2122 114.23 62.0705 111.313 61.9396 108.394Z" fill="white" stroke="black" stroke-width="4"/>
<path d="M48.7818 186.372C37.4593 172.878 28.6553 159.62 24.0354 148.691C21.7221 143.219 20.5146 138.462 20.4812 134.622C20.4481 130.824 21.5526 128.092 23.701 126.289C25.8494 124.487 28.7312 123.873 32.4658 124.565C36.2416 125.265 40.7171 127.28 45.7046 130.509C55.6651 136.956 67.1928 147.929 78.5152 161.422C89.8377 174.916 98.6418 188.174 103.262 199.103C105.575 204.575 106.782 209.332 106.816 213.172C106.849 216.97 105.744 219.702 103.596 221.505C101.448 223.307 98.5658 223.921 94.8313 223.229C91.0554 222.529 86.58 220.514 81.5924 217.285C71.6319 210.838 60.1043 199.865 48.7818 186.372Z" fill="white" stroke="black" stroke-width="4"/>
<path d="M63.0101 96.6156L63.0101 96.6156C61.0567 89.3257 61.4532 84.4914 63.2787 81.2024C65.0912 77.9367 68.5821 75.7124 73.9713 74.2684C79.0393 72.9105 82.9644 73.9129 85.9955 76.3695C89.1179 78.9003 91.4943 83.1454 92.9538 88.5922C93.5566 90.8417 94.2249 93.2229 94.9173 95.6897C97.5192 104.96 100.461 115.44 101.538 124.695C102.22 130.551 102.117 135.659 100.847 139.523C99.6178 143.262 97.3283 145.792 93.4167 146.84C89.4929 147.891 86.12 146.864 83.0157 144.25C79.8255 141.563 76.9804 137.232 74.4396 131.883C69.7951 122.106 66.4694 109.608 63.7554 99.4098C63.5018 98.457 63.2536 97.5242 63.0101 96.6156Z" fill="white" stroke="black" stroke-width="4"/>
<path d="M186.232 77.4077C191.557 77.4077 195.089 79.1815 197.333 81.8872C199.627 84.6538 200.797 88.664 200.797 93.5C200.797 95.5452 200.826 97.7119 200.856 99.9528C200.97 108.344 201.097 117.775 199.755 125.768C198.907 130.817 197.508 135.026 195.333 137.935C193.238 140.739 190.38 142.408 186.232 142.408C182.075 142.408 179.087 140.729 176.821 137.886C174.485 134.955 172.883 130.729 171.825 125.688C169.888 116.456 169.909 105.229 169.927 96.017C169.929 95.1594 169.93 94.3194 169.93 93.5C169.93 87.0137 171.525 83.1485 174.065 80.8491C176.646 78.5122 180.617 77.4077 186.232 77.4077Z" fill="white" stroke="black" stroke-width="4"/>
<path d="M135.289 94.5569L135.289 94.5569C134.631 87.0385 135.861 82.3466 138.23 79.4245C140.582 76.5232 144.406 74.9389 149.964 74.4527C155.191 73.9954 158.882 75.6642 161.441 78.6098C164.076 81.6443 165.679 86.2376 166.171 91.8551C166.374 94.1751 166.618 96.6361 166.872 99.1857C167.825 108.767 168.902 119.598 168.356 128.9C168.01 134.785 167.021 139.798 165.1 143.383C163.24 146.851 160.546 148.945 156.512 149.298C152.465 149.652 149.322 148.054 146.719 144.941C144.044 141.742 141.994 136.983 140.42 131.274C137.544 120.838 136.439 107.953 135.537 97.4382C135.453 96.4557 135.371 95.494 135.289 94.5569Z" fill="white" stroke="black" stroke-width="4"/>
<path d="M99.2808 95.6842L99.2808 95.6841C97.9702 88.2517 98.7865 83.4705 100.892 80.353C102.982 77.2577 106.653 75.3462 112.148 74.3774C117.315 73.4663 121.138 74.807 123.943 77.5185C126.833 80.3117 128.831 84.7478 129.81 90.3011C130.214 92.5946 130.673 95.0249 131.147 97.5427C132.931 107.004 134.948 117.701 135.215 127.015C135.384 132.907 134.836 137.987 133.234 141.726C131.684 145.343 129.182 147.664 125.194 148.367C121.194 149.073 117.923 147.755 115.059 144.881C112.115 141.926 109.658 137.364 107.593 131.814C103.818 121.669 101.595 108.929 99.7797 98.5327C99.6101 97.5614 99.4442 96.6105 99.2808 95.6842Z" fill="white" stroke="black" stroke-width="4"/>
</g>
<defs>
<clipPath id="clip0">
<rect width="203.08" height="228.59" fill="white" transform="translate(0.480469)"/>
</clipPath>
</defs>
</svg>
