<svg width="45" height="79" viewBox="0 0 45 79" fill="none" xmlns="http://www.w3.org/2000/svg">
<path d="M3.52962 25.6155L3.52962 25.6155C1.57623 18.3256 1.9727 13.4914 3.7982 10.2023C5.6107 6.93662 9.10167 4.71238 14.4908 3.26837C19.5588 1.9104 23.484 2.91281 26.515 5.36947C29.6374 7.90022 32.0139 12.1453 33.4733 17.5921C34.0761 19.8417 34.7444 22.2228 35.4368 24.6897C38.0388 33.9595 40.9804 44.4396 42.0579 53.6953C42.7395 59.5506 42.6362 64.6589 41.3661 68.5229C40.1373 72.2615 37.8479 74.7914 33.9362 75.8396C30.0124 76.8909 26.6395 75.8635 23.5353 73.2496C20.345 70.5632 17.5 66.2324 14.9591 60.8833C10.3147 51.1059 6.98888 38.6084 4.27488 28.4098C4.02131 27.4569 3.77309 26.5242 3.52962 25.6155Z" fill="white" stroke="black" stroke-width="4"/>
</svg>
