<svg width="54" height="125" viewBox="0 0 54 125" fill="none" xmlns="http://www.w3.org/2000/svg">
<path d="M47.177 87.2647C49.4206 95.6377 50.7536 101.811 51.3349 106.411C51.9211 111.049 51.7104 113.864 51.0724 115.655C50.4893 117.291 49.4994 118.213 47.9404 118.947C46.5531 119.6 44.8789 120.037 42.7309 120.597C42.2095 120.733 41.6602 120.876 41.0803 121.031C40.509 121.184 39.9644 121.334 39.4426 121.478C37.2643 122.077 35.4819 122.568 33.809 122.729C31.8762 122.916 30.3123 122.629 28.7844 121.508C27.1627 120.317 25.3897 118.046 23.4413 113.816C21.5033 109.608 19.4727 103.646 17.2333 95.2881C16.8449 93.8385 16.444 92.3489 16.0339 90.8252C11.6756 74.6315 6.2772 54.5733 3.75147 37.5092C2.36722 28.1571 1.87602 19.8841 2.81588 13.7131C3.76757 7.4645 6.03765 4.11727 9.50437 3.18836C12.9462 2.26612 16.4774 4.02414 20.2676 8.99292C24.0134 13.9033 27.5191 21.3656 30.7888 30.2176C35.9549 44.2035 40.3688 61.1834 44.2291 76.0332C45.2492 79.9573 46.2306 83.7327 47.177 87.2647Z" fill="white" stroke="black" stroke-width="4"/>
</svg>
