<svg width="41" height="79" viewBox="0 0 41 79" fill="none" xmlns="http://www.w3.org/2000/svg">
<path d="M2.80021 23.6842L2.80021 23.6841C1.48962 16.2517 2.30591 11.4705 4.41112 8.35299C6.50135 5.25771 10.1729 3.34619 15.6674 2.37736C20.8344 1.46627 24.6573 2.80696 27.4627 5.51845C30.3526 8.31171 32.3501 12.7478 33.3293 18.3011C33.7337 20.5946 34.1919 23.0249 34.6667 25.5427C36.4508 35.004 38.4679 45.7007 38.7345 55.015C38.9032 60.9074 38.3551 65.9873 36.7531 69.7259C35.2032 73.3432 32.7019 75.664 28.7138 76.3672C24.7133 77.0726 21.4428 75.7551 18.5781 72.8805C15.6342 69.9264 13.1774 65.364 11.1124 59.8139C7.33782 49.6689 5.11391 36.929 3.2991 26.5327C3.12955 25.5614 2.96356 24.6105 2.80021 23.6842Z" fill="white" stroke="black" stroke-width="4"/>
</svg>
