<svg width="48" height="126" viewBox="0 0 48 126" fill="none" xmlns="http://www.w3.org/2000/svg">
<path d="M42.6918 89.0355C44.1957 97.5643 44.9299 103.826 45.0291 108.455C45.1289 113.115 44.5765 115.906 43.6984 117.645C42.8833 119.26 41.7035 120.135 39.9764 120.754C38.4709 121.295 36.7165 121.591 34.5236 121.962C33.9804 122.054 33.4103 122.15 32.8104 122.256C32.2105 122.362 31.6418 122.466 31.0999 122.566C28.9125 122.967 27.1624 123.289 25.5629 123.296C23.7281 123.304 22.3202 122.886 21.002 121.647C19.5821 120.313 18.1085 117.88 16.6082 113.466C15.1182 109.082 13.6666 102.947 12.1628 94.4186C11.7017 91.8037 11.2078 89.0625 10.6971 86.2277C7.84753 70.4101 4.47298 51.6787 3.33651 35.7183C2.66536 26.2927 2.79236 18.0233 4.18836 11.9702C5.6016 5.84225 8.10601 2.73009 11.6253 2.10954C15.1446 1.489 18.5624 3.55691 21.9863 8.8319C25.3684 14.0425 28.316 21.7698 30.9091 30.8565C35.3 46.2431 38.5354 64.999 41.2676 80.8373C41.7573 83.6758 42.2307 86.4206 42.6918 89.0355Z" fill="white" stroke="black" stroke-width="4"/>
</svg>
