<svg width="145" height="140" viewBox="0 0 145 140" fill="none" xmlns="http://www.w3.org/2000/svg">
<path d="M2.45911 19.3943C2.27504 15.2901 2.11366 11.2109 2.04093 7.90619L5.94324 14.9555C5.96166 14.9943 5.98007 15.033 5.9985 15.0718L6.12565 15.3394C7.89049 19.0532 9.68988 22.833 11.1418 25.5795C11.8605 26.9388 12.5357 28.1257 13.1066 28.9379C13.3715 29.3149 13.7191 29.7664 14.1276 30.0933C14.3184 30.246 14.72 30.5356 15.2879 30.6281C16.0233 30.7478 16.7742 30.492 17.2828 29.9117C30.3892 14.9589 47.1103 11.0938 71.9121 11.0938C106.638 11.0938 135.938 27.8563 141.777 58.9628C142.111 60.7397 142.126 64.4389 142.029 68.466C141.99 70.0922 141.933 71.7614 141.88 73.31C141.808 75.4419 141.743 77.3453 141.743 78.5937C141.743 97.0839 133.236 111.747 118.979 121.856C104.665 132.006 84.4878 137.593 61.2798 137.593C38.0625 137.593 23.4307 132.007 14.5409 122.148C5.61187 112.246 2.08119 97.6087 2.08119 78.5937C2.08119 69.19 2.34141 48.1746 3.269 38.7901C3.31047 38.3706 3.28602 37.4415 3.24838 36.3852C3.20758 35.2403 3.13981 33.7201 3.05674 31.9581C2.99779 30.7078 2.9311 29.3349 2.86056 27.8827C2.73172 25.2303 2.59002 22.3132 2.45911 19.3943Z" fill="white" stroke="black" stroke-width="4"/>
</svg>
