<svg width="36" height="127" viewBox="0 0 36 127" fill="none" xmlns="http://www.w3.org/2000/svg">
<path d="M33.8019 93.0938C33.8019 101.754 33.4378 108.048 32.7316 112.624C32.0205 117.231 30.9919 119.883 29.8252 121.444C28.7421 122.892 27.4283 123.549 25.6198 123.859C24.0433 124.13 22.2641 124.117 20.0401 124.102C19.4892 124.098 18.9111 124.094 18.3019 124.094C17.6928 124.094 17.1146 124.098 16.5637 124.102C14.3398 124.117 12.5605 124.13 10.984 123.859C9.17557 123.549 7.86178 122.892 6.77868 121.444C5.61195 119.883 4.58334 117.231 3.87228 112.624C3.1661 108.048 2.80193 101.754 2.80193 93.0938C2.80193 90.0192 2.78503 86.771 2.7675 83.4032C2.6854 67.6221 2.58963 49.2157 4.15503 33.7474C5.10615 24.3489 6.6551 16.2319 9.09661 10.518C11.5617 4.74894 14.6122 2.09375 18.3019 2.09375C21.9916 2.09375 25.0422 4.74894 27.5072 10.518C29.9487 16.2319 31.4977 24.3489 32.4488 33.7474C34.0142 49.2158 33.9184 67.6222 33.8363 83.4032C33.8188 86.771 33.8019 90.0192 33.8019 93.0938Z" fill="white" stroke="black" stroke-width="4"/>
</svg>
