<svg width="36" height="70" viewBox="0 0 36 70" fill="none" xmlns="http://www.w3.org/2000/svg">
<path d="M18.7514 2.40778C24.0766 2.40778 27.6089 4.18154 29.8527 6.88727C32.147 9.65389 33.3164 13.664 33.3164 18.5C33.3164 20.5452 33.3457 22.7119 33.3759 24.9528C33.4892 33.3436 33.6166 42.7753 32.2747 50.768C31.427 55.8171 30.0272 60.0261 27.8526 62.9355C25.7573 65.7388 22.8996 67.4078 18.7514 67.4078C14.5949 67.4078 11.6068 65.7294 9.34087 62.8863C7.00469 59.9552 5.40261 55.7294 4.34473 50.6883C2.4072 41.4556 2.42881 30.2288 2.44655 21.0171C2.4482 20.1595 2.44982 19.3194 2.44982 18.5C2.44976 12.0138 4.04504 8.14857 6.58458 5.8492C9.16559 3.51229 13.1371 2.40778 18.7514 2.40778Z" fill="white" stroke="black" stroke-width="4"/>
</svg>
