<svg width="41" height="127" viewBox="0 0 41 127" fill="none" xmlns="http://www.w3.org/2000/svg">
<path d="M38.1616 91.8779C38.9157 100.497 39.0468 106.795 38.6648 111.411C38.2806 116.053 37.3914 118.794 36.2748 120.467C35.2227 122.044 33.851 122.848 31.9709 123.333C30.3437 123.754 28.5009 123.902 26.2491 124.084C25.7096 124.128 25.1466 124.173 24.5574 124.225C23.9593 124.277 23.3941 124.33 22.8576 124.381C20.6477 124.589 18.9251 124.752 17.3982 124.612C15.6823 124.456 14.4366 123.928 13.329 122.59C12.1171 121.125 10.9561 118.552 9.92062 113.993C8.89365 109.472 8.03501 103.215 7.27952 94.5797C6.92423 90.5188 6.50012 86.1614 6.05885 81.6278C4.60479 66.6888 2.96454 49.8368 2.98754 35.3773C3.00255 25.944 3.73049 17.7397 5.59041 11.8486C7.46615 5.90746 10.233 3.0119 13.9244 2.68893C17.6407 2.3638 20.975 4.75794 24.0155 10.2791C27.0277 15.7491 29.3804 23.6869 31.2482 32.9504C34.5237 49.1959 36.2046 68.9449 37.5965 85.2977C37.7892 87.5623 37.9764 89.7618 38.1616 91.8779Z" fill="white" stroke="black" stroke-width="4"/>
</svg>
