<svg width="39" height="80" viewBox="0 0 39 80" fill="none" xmlns="http://www.w3.org/2000/svg">
<path d="M2.80807 22.5569L2.80807 22.5569C2.15023 15.0385 3.38014 10.3466 5.74904 7.42451C8.10109 4.52318 11.9253 2.93893 17.4833 2.45267C22.7101 1.99538 26.4016 3.66416 28.9599 6.60983C31.5954 9.64433 33.1986 14.2376 33.6901 19.8551C33.8931 22.1751 34.1378 24.6361 34.3913 27.1857C35.344 36.7666 36.4211 47.5983 35.875 56.9004C35.5295 62.7851 34.5407 67.7979 32.619 71.3827C30.7596 74.8511 28.0656 76.9451 24.0314 77.298C19.9847 77.652 16.8414 76.0545 14.2382 72.9412C11.5629 69.7417 9.51314 64.9826 7.93972 59.2736C5.06369 48.8383 3.9586 35.9531 3.05679 25.4382C2.97253 24.4557 2.89005 23.494 2.80807 22.5569Z" fill="white" stroke="black" stroke-width="4"/>
</svg>
