<svg width="91" height="104" viewBox="0 0 91 104" fill="none" xmlns="http://www.w3.org/2000/svg">
<path d="M30.3014 64.3717C18.9789 50.8781 10.1748 37.6203 5.55493 26.6915C3.2416 21.2191 2.03418 16.4617 2.00071 12.6217C1.96762 8.82369 3.07211 6.0922 5.22054 4.28946C7.36896 2.48672 10.2507 1.87332 13.9853 2.56543C17.7612 3.2652 22.2366 5.28039 27.2242 8.50884C37.1847 14.9563 48.7123 25.9288 60.0348 39.4224C71.3573 52.916 80.1613 66.1739 84.7812 77.1026C87.0945 82.575 88.3019 87.3324 88.3354 91.1724C88.3685 94.9704 87.264 97.7019 85.1156 99.5047C82.9672 101.307 80.0854 101.921 76.3508 101.229C72.5749 100.529 68.0995 98.5137 63.112 95.2853C53.1515 88.8378 41.6238 77.8653 30.3014 64.3717Z" fill="white" stroke="black" stroke-width="4"/>
</svg>
