<svg width="110" height="83" viewBox="0 0 110 83" fill="none" xmlns="http://www.w3.org/2000/svg">
<path d="M44.09 57.5482C29.4899 47.6935 17.3758 37.3721 9.92546 28.1378C6.19483 23.5138 3.72421 19.2728 2.63476 15.5904C1.55723 11.9483 1.86698 9.01825 3.43601 6.69366C5.00505 4.36907 7.60656 2.98593 11.3873 2.62305C15.2099 2.25616 20.0673 2.96123 25.7509 4.69167C37.1016 8.1475 51.2048 15.522 65.8048 25.3766C80.4049 35.2313 92.519 45.5527 99.9693 54.787C103.7 59.4109 106.171 63.652 107.26 67.3344C108.338 70.9765 108.028 73.9065 106.459 76.2311C104.89 78.5557 102.288 79.9389 98.5075 80.3017C94.6849 80.6686 89.8275 79.9636 84.1439 78.2331C72.7932 74.7773 58.69 67.4028 44.09 57.5482Z" fill="white" stroke="black" stroke-width="4"/>
</svg>
