<svg width="74" height="54" viewBox="0 0 74 54" fill="none" xmlns="http://www.w3.org/2000/svg">
<path d="M72.5 27C72.5 28.2917 71.6756 30.543 69.8374 33.3502C68.0456 36.0867 65.4283 39.1417 62.1736 41.9975C55.6451 47.7258 46.7329 52.5 37 52.5C27.2671 52.5 18.3549 47.7258 11.8264 41.9975C8.57168 39.1417 5.95441 36.0867 4.16255 33.3502C2.32444 30.543 1.5 28.2917 1.5 27C1.5 25.7083 2.32444 23.457 4.16255 20.6498C5.95441 17.9133 8.57168 14.8583 11.8264 12.0025C18.3549 6.27419 27.2671 1.5 37 1.5C46.7329 1.5 55.6451 6.27419 62.1736 12.0025C65.4283 14.8583 68.0456 17.9133 69.8374 20.6498C71.6756 23.457 72.5 25.7083 72.5 27Z" stroke="#111111" stroke-width="3"/>
</svg>
