<svg width="400" height="321" viewBox="0 0 400 321" fill="none" xmlns="http://www.w3.org/2000/svg">
<g clip-path="url(#clip0)">
<path d="M27.7065 275.322C-40.7337 211.344 33.5748 87.8709 79.2841 34.1316C79.2841 34.1316 94.8331 12.0762 118.773 12.1213C142.714 12.1664 151.719 27.3143 151.719 27.3143C174.161 61.4196 124.972 181.749 123.552 238.852C120.12 277.666 96.1466 339.299 27.7065 275.322Z" fill="#A96F45"/>
<path d="M372.294 275.322C440.734 211.344 366.425 87.8709 320.716 34.1316C320.716 34.1316 305.167 12.0762 281.227 12.1213C257.286 12.1664 248.281 27.3143 248.281 27.3143C225.839 61.4196 275.028 181.749 276.448 238.852C279.88 277.666 303.853 339.299 372.294 275.322Z" fill="#A96F45"/>
<path d="M333.333 258.853C333.333 314.786 272.281 301.701 196.97 301.701C121.658 301.701 60.606 314.786 60.606 258.853C60.606 202.919 121.658 157.576 196.97 157.576C272.281 157.576 333.333 202.919 333.333 258.853Z" fill="#DC8A48"/>
<path d="M333.333 295.442C333.333 328.07 272.281 320.437 196.97 320.437C121.658 320.437 60.606 328.07 60.606 295.442C60.606 262.814 121.658 236.364 196.97 236.364C272.281 236.364 333.333 262.814 333.333 295.442Z" fill="#DC8A48"/>
<ellipse cx="200" cy="142.424" rx="115.152" ry="142.424" fill="#DC8A48"/>
<ellipse cx="145.466" cy="90.9091" rx="18.193" ry="18.1818" fill="#372F2D"/>
<ellipse rx="18.193" ry="18.1818" transform="matrix(-1 0 0 1 254.557 90.9091)" fill="#372F2D"/>
</g>
<defs>
<clipPath id="clip0">
<rect width="400" height="321" fill="white"/>
</clipPath>
</defs>
</svg>
