<svg width="204" height="229" viewBox="0 0 204 229" fill="none" xmlns="http://www.w3.org/2000/svg">
<g clip-path="url(#clip0)">
<mask id="path-1-inside-1" fill="white">
<path fill-rule="evenodd" clip-rule="evenodd" d="M202.743 147.594C196.658 115.176 166.173 98.0938 130.912 98.0938C105.923 98.0938 88.4623 101.982 74.7788 117.593C74.0391 118.437 70.3797 110.736 66.7923 103.187C63.298 95.8333 59.872 88.6234 59.2788 89.5934C58.5876 90.7235 59.3354 106.119 59.8632 116.987C60.1332 122.544 60.3456 126.917 60.2787 127.593C59.9853 130.562 59.7583 134.665 59.5849 139.189C43.8746 125.069 29.6604 118.275 21.935 124.757C11.0024 133.931 23.9969 160.518 46.7693 187.657C56.3614 199.089 66.1584 208.795 75.1028 215.515C84.6639 224.027 99.1603 228.593 120.28 228.593C167.28 228.593 202.743 205.977 202.743 167.594C202.743 166.369 202.806 164.534 202.877 162.443C203.054 157.251 203.286 150.485 202.743 147.594Z"/>
</mask>
<path fill-rule="evenodd" clip-rule="evenodd" d="M202.743 147.594C196.658 115.176 166.173 98.0938 130.912 98.0938C105.923 98.0938 88.4623 101.982 74.7788 117.593C74.0391 118.437 70.3797 110.736 66.7923 103.187C63.298 95.8333 59.872 88.6234 59.2788 89.5934C58.5876 90.7235 59.3354 106.119 59.8632 116.987C60.1332 122.544 60.3456 126.917 60.2787 127.593C59.9853 130.562 59.7583 134.665 59.5849 139.189C43.8746 125.069 29.6604 118.275 21.935 124.757C11.0024 133.931 23.9969 160.518 46.7693 187.657C56.3614 199.089 66.1584 208.795 75.1028 215.515C84.6639 224.027 99.1603 228.593 120.28 228.593C167.28 228.593 202.743 205.977 202.743 167.594C202.743 166.369 202.806 164.534 202.877 162.443C203.054 157.251 203.286 150.485 202.743 147.594Z" fill="white"/>
<path d="M130.912 98.0938L130.912 102.094L130.912 98.0938ZM202.743 147.594L198.812 148.332L198.812 148.332L202.743 147.594ZM74.7788 117.593L77.7869 120.23L77.7869 120.23L74.7788 117.593ZM66.7923 103.187L70.4051 101.47L70.4051 101.47L66.7923 103.187ZM59.2788 89.5934L55.8664 87.5064L59.2788 89.5934ZM59.8632 116.987L63.8585 116.792L59.8632 116.987ZM60.2787 127.593L64.2593 127.987L64.2593 127.987L60.2787 127.593ZM59.5849 139.189L56.911 142.164L63.2553 147.866L63.582 139.342L59.5849 139.189ZM21.935 124.757L19.3638 121.693L19.3638 121.693L21.935 124.757ZM46.7693 187.657L49.8334 185.086L49.8334 185.086L46.7693 187.657ZM75.1028 215.515L77.7625 212.527L77.6384 212.417L77.5055 212.317L75.1028 215.515ZM120.28 228.593L120.28 224.593H120.28V228.593ZM202.877 162.443L198.879 162.307L198.879 162.307L202.877 162.443ZM130.912 102.094C165.104 102.094 193.219 118.537 198.812 148.332L206.674 146.856C200.097 111.815 167.241 94.0938 130.912 94.0938L130.912 102.094ZM77.7869 120.23C90.3161 105.936 106.297 102.094 130.912 102.094L130.912 94.0938C105.549 94.0938 86.6085 98.0287 71.7708 114.957L77.7869 120.23ZM63.1794 104.904C64.9597 108.65 66.8115 112.549 68.3145 115.402C69.0516 116.801 69.7874 118.109 70.4427 119.049C70.7301 119.461 71.2111 120.113 71.8476 120.63C72.1369 120.866 72.8566 121.409 73.9208 121.594C75.3272 121.839 76.7969 121.359 77.7869 120.23L71.7708 114.957C72.6682 113.933 74.0227 113.492 75.2924 113.713C76.2201 113.874 76.7817 114.332 76.8932 114.422C77.1739 114.65 77.2197 114.781 77.004 114.471C76.653 113.968 76.111 113.037 75.3924 111.673C73.9839 109 72.2123 105.273 70.4051 101.47L63.1794 104.904ZM62.6911 91.6804C62.1399 92.5817 60.973 93.5414 59.3323 93.5044C58.1317 93.4773 57.3694 92.9036 57.2193 92.7904C56.8377 92.5024 56.7319 92.2789 56.9373 92.5717C57.2379 93 57.7303 93.8432 58.4073 95.1305C59.7283 97.6425 61.4186 101.198 63.1794 104.904L70.4051 101.47C68.6718 97.8222 66.9019 94.0959 65.488 91.4071C64.7975 90.094 64.1038 88.857 63.4859 87.9765C63.2321 87.6148 62.7341 86.9297 62.0379 86.4044C61.7305 86.1724 60.8304 85.5361 59.5127 85.5064C57.755 85.4668 56.4917 86.4839 55.8664 87.5064L62.6911 91.6804ZM63.8585 116.792C63.5941 111.349 63.2771 104.821 63.1119 99.5139C63.0291 96.8546 62.9861 94.5514 63.004 92.8646C63.0131 92.0131 63.0372 91.3849 63.0707 90.9728C63.0878 90.7617 63.1019 90.6793 63.1007 90.6854C63.1 90.6893 63.086 90.7683 63.0484 90.8932C63.0209 90.9849 62.9231 91.3011 62.6911 91.6804L55.8664 87.5064C55.4012 88.2669 55.2673 89.0485 55.2305 89.2504C55.1646 89.6115 55.1244 89.9863 55.0969 90.3256C55.041 91.0141 55.0143 91.859 55.0045 92.7796C54.9847 94.6369 55.032 97.0737 55.1158 99.7629C55.2836 105.153 55.6045 111.756 55.8679 117.181L63.8585 116.792ZM64.2593 127.987C64.3057 127.517 64.2913 126.837 64.2787 126.333C64.2631 125.706 64.2333 124.896 64.1938 123.953C64.1146 122.064 63.9932 119.566 63.8585 116.792L55.8679 117.181C56.0032 119.964 56.123 122.431 56.2008 124.288C56.2397 125.217 56.2673 125.974 56.2812 126.532C56.2981 127.211 56.2851 127.331 56.2981 127.2L64.2593 127.987ZM63.582 139.342C63.7546 134.837 63.9781 130.832 64.2593 127.987L56.2981 127.2C55.9925 130.292 55.762 134.492 55.5878 139.036L63.582 139.342ZM24.5061 127.822C26.662 126.013 30.2825 125.507 36.2505 127.949C42.1213 130.352 49.2051 135.238 56.911 142.164L62.2588 136.214C54.2544 129.02 46.376 123.449 39.2807 120.545C32.2827 117.681 24.9334 117.02 19.3638 121.693L24.5061 127.822ZM49.8334 185.086C38.5747 171.668 29.9083 158.584 25.3971 147.913C23.1347 142.561 22.0309 138.078 22.0006 134.604C21.9711 131.215 22.9424 129.134 24.5061 127.822L19.3638 121.693C15.4613 124.968 13.9572 129.65 14.0009 134.674C14.044 139.614 15.5622 145.194 18.0284 151.028C22.9744 162.728 32.1914 176.507 43.7051 190.228L49.8334 185.086ZM77.5055 212.317C68.881 205.837 59.3023 196.371 49.8334 185.086L43.7051 190.228C53.4205 201.807 63.4358 211.752 72.7001 218.713L77.5055 212.317ZM120.28 224.593C99.663 224.593 86.2991 220.127 77.7625 212.527L72.4431 218.503C83.0286 227.926 98.6575 232.593 120.28 232.593V224.593ZM198.743 167.594C198.743 185.382 190.596 199.459 176.823 209.224C162.934 219.072 143.196 224.593 120.28 224.593L120.28 232.593C144.364 232.593 165.857 226.806 181.45 215.75C197.159 204.612 206.743 188.189 206.743 167.594H198.743ZM198.879 162.307C198.809 164.364 198.743 166.283 198.743 167.594H206.743C206.743 166.454 206.802 164.703 206.875 162.58L198.879 162.307ZM198.812 148.332C199.002 149.349 199.092 151.397 199.08 154.138C199.068 156.769 198.968 159.698 198.879 162.307L206.875 162.58C206.963 159.996 207.067 156.945 207.08 154.174C207.092 151.511 207.026 148.73 206.674 146.856L198.812 148.332Z" fill="black" mask="url(#path-1-inside-1)"/>
<path d="M62.5296 96.6155L62.5296 96.6155C60.5762 89.3256 60.9727 84.4914 62.7982 81.2023C64.6107 77.9366 68.1017 75.7124 73.4908 74.2684C78.5588 72.9104 82.484 73.9128 85.515 76.3695C88.6374 78.9002 91.0139 83.1453 92.4733 88.5921C93.0761 90.8417 93.7444 93.2228 94.4368 95.6897C97.0388 104.959 99.9804 115.44 101.058 124.695C101.739 130.551 101.636 135.659 100.366 139.523C99.1373 143.262 96.8479 145.791 92.9362 146.84C89.0124 147.891 85.6395 146.863 82.5353 144.25C79.345 141.563 76.5 137.232 73.9591 131.883C69.3147 122.106 65.9889 109.608 63.2749 99.4098C63.0213 98.4569 62.7731 97.5242 62.5296 96.6155Z" fill="white" stroke="black" stroke-width="4"/>
<path d="M185.751 77.4078C191.077 77.4078 194.609 79.1815 196.853 81.8873C199.147 84.6539 200.316 88.664 200.316 93.5C200.316 95.5452 200.346 97.7119 200.376 99.9528C200.489 108.344 200.617 117.775 199.275 125.768C198.427 130.817 197.027 135.026 194.853 137.936C192.757 140.739 189.9 142.408 185.751 142.408C181.595 142.408 178.607 140.729 176.341 137.886C174.005 134.955 172.403 130.729 171.345 125.688C169.407 116.456 169.429 105.229 169.447 96.0171C169.448 95.1595 169.45 94.3194 169.45 93.5C169.45 87.0138 171.045 83.1486 173.585 80.8492C176.166 78.5123 180.137 77.4078 185.751 77.4078Z" fill="white" stroke="black" stroke-width="4"/>
<path d="M134.808 94.5569L134.808 94.5569C134.15 87.0385 135.38 82.3466 137.749 79.4245C140.101 76.5232 143.925 74.9389 149.483 74.4527C154.71 73.9954 158.402 75.6642 160.96 78.6098C163.595 81.6443 165.199 86.2376 165.69 91.8551C165.893 94.1751 166.138 96.6361 166.391 99.1857C167.344 108.767 168.421 119.598 167.875 128.9C167.529 134.785 166.541 139.798 164.619 143.383C162.76 146.851 160.066 148.945 156.031 149.298C151.985 149.652 148.841 148.054 146.238 144.941C143.563 141.742 141.513 136.983 139.94 131.274C137.064 120.838 135.959 107.953 135.057 97.4382C134.973 96.4557 134.89 95.494 134.808 94.5569Z" fill="white" stroke="black" stroke-width="4"/>
<path d="M98.8002 95.6842L98.8002 95.6841C97.4896 88.2517 98.3059 83.4705 100.411 80.353C102.501 77.2577 106.173 75.3462 111.667 74.3774C116.834 73.4663 120.657 74.807 123.463 77.5185C126.353 80.3117 128.35 84.7478 129.329 90.3011C129.734 92.5946 130.192 95.0249 130.667 97.5427C132.451 107.004 134.468 117.701 134.735 127.015C134.903 132.907 134.355 137.987 132.753 141.726C131.203 145.343 128.702 147.664 124.714 148.367C120.713 149.073 117.443 147.755 114.578 144.881C111.634 141.926 109.177 137.364 107.112 131.814C103.338 121.669 101.114 108.929 99.2991 98.5327C99.1295 97.5614 98.9636 96.6105 98.8002 95.6842Z" fill="white" stroke="black" stroke-width="4"/>
</g>
<defs>
<clipPath id="clip0">
<rect width="203.08" height="228.59" fill="white"/>
</clipPath>
</defs>
</svg>
