<svg width="204" height="229" viewBox="0 0 204 229" fill="none" xmlns="http://www.w3.org/2000/svg">
<g clip-path="url(#clip0)">
<mask id="path-1-inside-1" fill="white">
<path fill-rule="evenodd" clip-rule="evenodd" d="M129.049 98.1012C105.051 98.2958 88.1197 102.373 74.7788 117.593C74.0391 118.437 70.3797 110.736 66.7923 103.187C63.298 95.8333 59.872 88.6234 59.2788 89.5934C58.5876 90.7235 59.3354 106.119 59.8632 116.987C60.1332 122.544 60.3456 126.917 60.2787 127.593C59.5529 134.936 59.2337 149.22 59.1261 159.661C32.7639 143.264 9.05125 135.8 1.77829 146.575C-6.20594 158.404 13.6066 180.386 42.9711 200.206C57.3189 209.89 71.2925 217.267 82.7635 220.899C91.915 225.937 104.171 228.593 120.28 228.593C167.28 228.593 202.743 205.977 202.743 167.594C202.743 166.369 202.806 164.534 202.877 162.443C203.054 157.251 203.286 150.485 202.743 147.594C198.738 126.26 184.167 111.568 164.621 104.015C164.506 102.055 164.351 99.9551 164.154 97.7035C163.969 95.595 163.783 93.3998 163.59 91.1367C160.617 56.1981 156.268 5.07641 137.75 6.69651C120.319 8.22159 124.724 53.4739 128.075 87.8956V87.8958C128.419 91.4316 128.752 94.8531 129.049 98.1012Z"/>
</mask>
<path fill-rule="evenodd" clip-rule="evenodd" d="M129.049 98.1012C105.051 98.2958 88.1197 102.373 74.7788 117.593C74.0391 118.437 70.3797 110.736 66.7923 103.187C63.298 95.8333 59.872 88.6234 59.2788 89.5934C58.5876 90.7235 59.3354 106.119 59.8632 116.987C60.1332 122.544 60.3456 126.917 60.2787 127.593C59.5529 134.936 59.2337 149.22 59.1261 159.661C32.7639 143.264 9.05125 135.8 1.77829 146.575C-6.20594 158.404 13.6066 180.386 42.9711 200.206C57.3189 209.89 71.2925 217.267 82.7635 220.899C91.915 225.937 104.171 228.593 120.28 228.593C167.28 228.593 202.743 205.977 202.743 167.594C202.743 166.369 202.806 164.534 202.877 162.443C203.054 157.251 203.286 150.485 202.743 147.594C198.738 126.26 184.167 111.568 164.621 104.015C164.506 102.055 164.351 99.9551 164.154 97.7035C163.969 95.595 163.783 93.3998 163.59 91.1367C160.617 56.1981 156.268 5.07641 137.75 6.69651C120.319 8.22159 124.724 53.4739 128.075 87.8956V87.8958C128.419 91.4316 128.752 94.8531 129.049 98.1012Z" fill="white"/>
<path d="M76.5286 116.625L68.4729 102.072L64.9733 104.01L73.029 118.562L76.5286 116.625ZM74.7788 117.593L71.7708 114.957L71.7708 114.957L74.7788 117.593ZM129.049 98.1012L129.082 102.101L133.429 102.066L133.033 97.7368L129.049 98.1012ZM66.7923 103.187L63.1794 104.904L63.1794 104.904L66.7923 103.187ZM59.2788 89.5934L62.6911 91.6804L62.6911 91.6804L59.2788 89.5934ZM59.8632 116.987L63.8585 116.792L63.8585 116.792L59.8632 116.987ZM60.2787 127.593L64.2593 127.987L64.2593 127.987L60.2787 127.593ZM59.1261 159.661L57.0135 163.057L63.0526 166.813L63.1259 159.702L59.1261 159.661ZM1.77829 146.575L5.09373 148.813L5.09373 148.813L1.77829 146.575ZM42.9711 200.206L45.2089 196.89L45.2089 196.89L42.9711 200.206ZM82.7635 220.899L84.6926 217.395L84.347 217.204L83.9709 217.085L82.7635 220.899ZM120.28 228.593L120.28 224.593H120.28V228.593ZM202.877 162.443L198.879 162.307L198.879 162.307L202.877 162.443ZM202.743 147.594L198.812 148.332L198.812 148.332L202.743 147.594ZM164.621 104.015L160.628 104.25L160.779 106.819L163.18 107.746L164.621 104.015ZM164.154 97.7035L160.169 98.0522L160.169 98.0522L164.154 97.7035ZM163.59 91.1367L167.576 90.7976L167.576 90.7976L163.59 91.1367ZM137.75 6.69651L138.099 10.6813L138.099 10.6813L137.75 6.69651ZM128.075 87.8956H132.075V87.7014L132.056 87.5081L128.075 87.8956ZM128.075 87.8958H124.075V88.09L124.094 88.2834L128.075 87.8958ZM77.7869 120.23C90.0049 106.291 105.505 102.292 129.082 102.101L129.017 94.1013C104.598 94.2994 86.2346 98.4553 71.7708 114.957L77.7869 120.23ZM63.1794 104.904C64.9597 108.65 66.8115 112.549 68.3145 115.402C69.0516 116.801 69.7874 118.109 70.4427 119.049C70.7301 119.461 71.2111 120.113 71.8476 120.63C72.1369 120.866 72.8566 121.409 73.9208 121.594C75.3272 121.839 76.797 121.359 77.7869 120.23L71.7708 114.957C72.6682 113.933 74.0227 113.492 75.2924 113.713C76.2201 113.874 76.7817 114.332 76.8932 114.422C77.1739 114.65 77.2197 114.781 77.004 114.471C76.653 113.968 76.111 113.037 75.3924 111.673C73.9839 109 72.2123 105.273 70.4051 101.47L63.1794 104.904ZM62.6911 91.6804C62.1399 92.5817 60.973 93.5414 59.3323 93.5044C58.1317 93.4773 57.3694 92.9036 57.2193 92.7904C56.8377 92.5024 56.7319 92.2789 56.9373 92.5717C57.2379 93 57.7303 93.8432 58.4073 95.1305C59.7283 97.6425 61.4186 101.198 63.1794 104.904L70.4051 101.47C68.6718 97.8222 66.9019 94.0959 65.488 91.4071C64.7975 90.094 64.1038 88.857 63.4859 87.9765C63.2321 87.6148 62.7341 86.9297 62.0379 86.4044C61.7305 86.1725 60.8304 85.5361 59.5127 85.5064C57.755 85.4668 56.4917 86.4839 55.8664 87.5064L62.6911 91.6804ZM63.8585 116.792C63.5941 111.349 63.2771 104.821 63.1119 99.5139C63.0291 96.8546 62.9861 94.5514 63.004 92.8646C63.0131 92.0131 63.0372 91.3849 63.0707 90.9728C63.0878 90.7617 63.1019 90.6793 63.1007 90.6854C63.1 90.6893 63.086 90.7683 63.0484 90.8932C63.0208 90.9849 62.9231 91.3011 62.6911 91.6804L55.8664 87.5064C55.4012 88.2669 55.2673 89.0485 55.2305 89.2504C55.1646 89.6115 55.1244 89.9863 55.0969 90.3256C55.041 91.0141 55.0143 91.859 55.0045 92.7796C54.9847 94.6369 55.032 97.0737 55.1158 99.7629C55.2836 105.153 55.6045 111.756 55.8679 117.181L63.8585 116.792ZM64.2593 127.987C64.3057 127.517 64.2913 126.837 64.2787 126.333C64.2631 125.706 64.2333 124.896 64.1938 123.953C64.1146 122.064 63.9932 119.566 63.8585 116.792L55.8679 117.181C56.0032 119.964 56.123 122.431 56.2008 124.288C56.2397 125.217 56.2673 125.974 56.2812 126.532C56.2981 127.211 56.2851 127.331 56.2981 127.2L64.2593 127.987ZM63.1259 159.702C63.2338 149.227 63.5539 135.123 64.2593 127.987L56.2981 127.2C55.5519 134.75 55.2335 149.213 55.1263 159.619L63.1259 159.702ZM61.2387 156.264C47.8952 147.965 34.977 141.764 24.2767 139.051C18.935 137.697 13.8838 137.143 9.49542 137.814C5.01683 138.499 1.04943 140.505 -1.53714 144.337L5.09373 148.813C6.14364 147.257 7.86768 146.156 10.7045 145.722C13.6316 145.274 17.52 145.591 22.3107 146.806C31.8756 149.231 43.9948 154.96 57.0135 163.057L61.2387 156.264ZM-1.53714 144.337C-4.38725 148.559 -4.54405 153.475 -3.11872 158.293C-1.71725 163.03 1.27856 167.976 5.25579 172.905C13.232 182.791 25.8866 193.5 40.7332 203.521L45.2089 196.89C30.691 187.091 18.7571 176.899 11.482 167.882C7.83358 163.36 5.53804 159.354 4.55259 156.023C3.591 152.773 3.95172 150.505 5.09373 148.813L-1.53714 144.337ZM40.7332 203.521C55.2459 213.317 69.5776 220.919 81.5561 224.712L83.9709 217.085C73.0075 213.614 59.392 206.464 45.2089 196.89L40.7332 203.521ZM120.28 224.593C104.566 224.593 93.0489 221.995 84.6926 217.395L80.8345 224.403C90.781 229.878 103.776 232.593 120.28 232.593V224.593ZM198.743 167.594C198.743 185.382 190.596 199.459 176.823 209.224C162.934 219.072 143.196 224.593 120.28 224.593L120.28 232.593C144.364 232.593 165.857 226.806 181.45 215.75C197.159 204.612 206.743 188.189 206.743 167.594H198.743ZM198.879 162.307C198.809 164.364 198.743 166.283 198.743 167.594H206.743C206.743 166.454 206.802 164.703 206.875 162.58L198.879 162.307ZM198.812 148.332C199.002 149.349 199.092 151.397 199.08 154.138C199.068 156.77 198.968 159.698 198.879 162.307L206.875 162.58C206.963 159.996 207.067 156.945 207.08 154.174C207.092 151.511 207.026 148.73 206.674 146.856L198.812 148.332ZM163.18 107.746C181.677 114.894 195.107 128.599 198.812 148.332L206.674 146.856C202.369 123.922 186.657 108.242 166.063 100.284L163.18 107.746ZM168.615 103.78C168.497 101.778 168.339 99.6393 168.139 97.3549L160.169 98.0522C160.363 100.271 160.516 102.333 160.628 104.25L168.615 103.78ZM168.139 97.3549C167.955 95.2519 167.768 93.0616 167.576 90.7976L159.605 91.4758C159.797 93.7379 159.984 95.938 160.169 98.0522L168.139 97.3549ZM167.576 90.7976C166.096 73.4037 164.248 51.5982 160.404 34.3376C158.49 25.7427 156.007 17.9089 152.614 12.2396C149.242 6.60401 144.298 2.10837 137.401 2.71173L138.099 10.6813C140.461 10.4746 143.005 11.7616 145.749 16.3475C148.473 20.8997 150.735 27.7263 152.595 36.0766C156.299 52.7064 158.112 73.9311 159.605 91.4758L167.576 90.7976ZM137.401 2.71173C130.886 3.28173 126.95 8.0414 124.696 13.7088C122.457 19.3398 121.457 26.7576 121.123 34.7933C120.45 50.9353 122.427 71.1572 124.094 88.2832L132.056 87.5081C130.372 70.2124 128.471 50.5973 129.116 35.1264C129.439 27.3556 130.397 21.023 132.13 16.6646C133.849 12.3426 135.898 10.8738 138.099 10.6813L137.401 2.71173ZM124.075 87.8956V87.8958H132.075V87.8956H124.075ZM124.094 88.2834C124.438 91.8216 124.77 95.2312 125.066 98.4656L133.033 97.7368C132.734 94.475 132.4 91.0415 132.056 87.5082L124.094 88.2834Z" fill="black" mask="url(#path-1-inside-1)"/>
<path d="M62.5296 96.6155L62.5296 96.6155C60.5762 89.3256 60.9727 84.4914 62.7982 81.2023C64.6107 77.9366 68.1017 75.7124 73.4908 74.2684C78.5588 72.9104 82.484 73.9128 85.515 76.3695C88.6374 78.9002 91.0139 83.1453 92.4733 88.5921C93.0761 90.8417 93.7444 93.2228 94.4368 95.6897C97.0388 104.959 99.9804 115.44 101.058 124.695C101.739 130.551 101.636 135.659 100.366 139.523C99.1373 143.262 96.8479 145.791 92.9362 146.84C89.0124 147.891 85.6395 146.863 82.5353 144.25C79.345 141.563 76.5 137.232 73.9591 131.883C69.3147 122.106 65.9889 109.608 63.2749 99.4098C63.0213 98.4569 62.7731 97.5242 62.5296 96.6155Z" fill="white" stroke="black" stroke-width="4"/>
<path d="M185.751 77.4078C191.077 77.4078 194.609 79.1815 196.853 81.8873C199.147 84.6539 200.316 88.664 200.316 93.5C200.316 95.5452 200.346 97.7119 200.376 99.9528C200.489 108.344 200.616 117.775 199.275 125.768C198.427 130.817 197.027 135.026 194.852 137.936C192.757 140.739 189.9 142.408 185.751 142.408C181.595 142.408 178.607 140.729 176.341 137.886C174.005 134.955 172.402 130.729 171.345 125.688C169.407 116.456 169.429 105.229 169.446 96.0171C169.448 95.1595 169.45 94.3194 169.45 93.5C169.45 87.0138 171.045 83.1486 173.584 80.8492C176.165 78.5123 180.137 77.4078 185.751 77.4078Z" fill="white" stroke="black" stroke-width="4"/>
<path d="M98.8003 95.6842L98.8003 95.6841C97.4897 88.2517 98.306 83.4705 100.411 80.353C102.501 77.2577 106.173 75.3462 111.667 74.3774C116.835 73.4663 120.657 74.807 123.463 77.5185C126.353 80.3117 128.35 84.7478 129.329 90.3011C129.734 92.5946 130.192 95.0249 130.667 97.5427C132.451 107.004 134.468 117.701 134.735 127.015C134.903 132.907 134.355 137.987 132.753 141.726C131.203 145.343 128.702 147.664 124.714 148.367C120.713 149.073 117.443 147.755 114.578 144.881C111.634 141.926 109.178 137.364 107.113 131.814C103.338 121.669 101.114 108.929 99.2992 98.5327C99.1297 97.5614 98.9637 96.6105 98.8003 95.6842Z" fill="white" stroke="black" stroke-width="4"/>
</g>
<defs>
<clipPath id="clip0">
<rect width="203.08" height="228.59" fill="white"/>
</clipPath>
</defs>
</svg>
