<svg width="204" height="229" viewBox="0 0 204 229" fill="none" xmlns="http://www.w3.org/2000/svg">
<g clip-path="url(#clip0)">
<mask id="path-1-inside-1" fill="white">
<path fill-rule="evenodd" clip-rule="evenodd" d="M164.234 97.7035C164.431 99.9551 164.586 102.055 164.701 104.015C184.247 111.568 198.818 126.26 202.823 147.594C203.366 150.485 203.134 157.251 202.957 162.443C202.886 164.534 202.823 166.369 202.823 167.594C202.823 205.977 167.36 228.593 120.36 228.593C99.2403 228.593 84.744 224.027 75.1829 215.515C66.2385 208.795 56.4415 199.089 46.8493 187.657C24.0769 160.518 11.0825 133.931 22.015 124.757C29.7405 118.275 43.9547 125.069 59.665 139.189C59.7403 137.224 59.8257 135.338 59.9223 133.59C58.7837 130.288 57.6104 126.392 56.3816 121.806C55.9927 120.354 55.5908 118.861 55.1793 117.332C46.0622 83.4604 32.2214 32.0382 50.0668 27.2565C66.7756 22.7794 78.5205 67.964 87.2602 101.587L87.261 101.591C87.6833 103.215 88.0986 104.813 88.5071 106.377C99.4586 100.206 112.622 98.2351 129.13 98.1012C128.832 94.8531 128.499 91.4316 128.155 87.8958C124.804 53.474 120.399 8.22159 137.83 6.69651C156.348 5.07641 160.697 56.1981 163.67 91.1367C163.863 93.3998 164.05 95.595 164.234 97.7035Z"/>
</mask>
<path fill-rule="evenodd" clip-rule="evenodd" d="M164.234 97.7035C164.431 99.9551 164.586 102.055 164.701 104.015C184.247 111.568 198.818 126.26 202.823 147.594C203.366 150.485 203.134 157.251 202.957 162.443C202.886 164.534 202.823 166.369 202.823 167.594C202.823 205.977 167.36 228.593 120.36 228.593C99.2403 228.593 84.744 224.027 75.1829 215.515C66.2385 208.795 56.4415 199.089 46.8493 187.657C24.0769 160.518 11.0825 133.931 22.015 124.757C29.7405 118.275 43.9547 125.069 59.665 139.189C59.7403 137.224 59.8257 135.338 59.9223 133.59C58.7837 130.288 57.6104 126.392 56.3816 121.806C55.9927 120.354 55.5908 118.861 55.1793 117.332C46.0622 83.4604 32.2214 32.0382 50.0668 27.2565C66.7756 22.7794 78.5205 67.964 87.2602 101.587L87.261 101.591C87.6833 103.215 88.0986 104.813 88.5071 106.377C99.4586 100.206 112.622 98.2351 129.13 98.1012C128.832 94.8531 128.499 91.4316 128.155 87.8958C124.804 53.474 120.399 8.22159 137.83 6.69651C156.348 5.07641 160.697 56.1981 163.67 91.1367C163.863 93.3998 164.05 95.595 164.234 97.7035Z" fill="white"/>
<path d="M164.701 104.015L160.708 104.25L160.859 106.819L163.26 107.746L164.701 104.015ZM164.234 97.7035L160.249 98.0522L160.249 98.0522L164.234 97.7035ZM202.823 147.594L198.892 148.332L198.892 148.332L202.823 147.594ZM202.957 162.443L198.959 162.307L198.959 162.307L202.957 162.443ZM120.36 228.593L120.36 224.593H120.36V228.593ZM75.1829 215.515L77.8426 212.527L77.7185 212.417L77.5856 212.317L75.1829 215.515ZM46.8493 187.657L49.9135 185.086L49.9135 185.086L46.8493 187.657ZM22.015 124.757L24.5862 127.822L24.5862 127.822L22.015 124.757ZM59.665 139.189L56.9911 142.164L63.3354 147.866L63.6621 139.342L59.665 139.189ZM59.9223 133.59L63.9162 133.811L63.9595 133.028L63.7038 132.286L59.9223 133.59ZM56.3816 121.806L52.5179 122.841L52.5179 122.841L56.3816 121.806ZM55.1793 117.332L51.3167 118.372L51.3167 118.372L55.1793 117.332ZM50.0668 27.2565L49.0315 23.3928L49.0315 23.3928L50.0668 27.2565ZM87.2602 101.587L83.3888 102.594L83.3919 102.605L87.2602 101.587ZM87.261 101.591L91.1324 100.584L91.1293 100.573L87.261 101.591ZM88.5071 106.377L84.637 107.388L85.9488 112.41L90.4707 109.862L88.5071 106.377ZM129.13 98.1012L129.162 102.101L133.509 102.066L133.113 97.7368L129.13 98.1012ZM128.155 87.8958L124.174 88.2834L124.174 88.2834L128.155 87.8958ZM137.83 6.69651L138.179 10.6813L138.179 10.6813L137.83 6.69651ZM163.67 91.1367L167.656 90.7976L167.656 90.7976L163.67 91.1367ZM168.695 103.78C168.577 101.778 168.419 99.6393 168.219 97.3549L160.249 98.0522C160.443 100.271 160.596 102.333 160.708 104.25L168.695 103.78ZM206.754 146.856C202.449 123.922 186.737 108.242 166.143 100.284L163.26 107.746C181.757 114.894 195.188 128.599 198.892 148.332L206.754 146.856ZM206.955 162.58C207.043 159.996 207.148 156.945 207.16 154.174C207.172 151.511 207.106 148.73 206.754 146.856L198.892 148.332C199.083 149.349 199.172 151.397 199.16 154.138C199.148 156.77 199.048 159.698 198.959 162.307L206.955 162.58ZM206.823 167.594C206.823 166.454 206.882 164.703 206.955 162.58L198.959 162.307C198.889 164.364 198.823 166.283 198.823 167.594H206.823ZM120.36 232.593C144.444 232.593 165.937 226.806 181.53 215.75C197.239 204.612 206.823 188.189 206.823 167.594H198.823C198.823 185.382 190.676 199.459 176.903 209.224C163.014 219.072 143.276 224.593 120.36 224.593L120.36 232.593ZM72.5231 218.503C83.1087 227.926 98.7376 232.593 120.36 232.593V224.593C99.7431 224.593 86.3792 220.127 77.8426 212.527L72.5231 218.503ZM77.5856 212.317C68.961 205.837 59.3824 196.371 49.9135 185.086L43.7852 190.228C53.5006 201.807 63.5159 211.752 72.7801 218.713L77.5856 212.317ZM49.9135 185.086C38.6548 171.668 29.9884 158.584 25.4772 147.913C23.2148 142.561 22.111 138.078 22.0807 134.604C22.0512 131.215 23.0225 129.134 24.5862 127.822L19.4439 121.693C15.5413 124.968 14.0372 129.65 14.081 134.674C14.1241 139.614 15.6423 145.194 18.1085 151.028C23.0545 162.728 32.2715 176.507 43.7852 190.228L49.9135 185.086ZM24.5862 127.822C26.7421 126.013 30.3626 125.507 36.3306 127.949C42.2013 130.352 49.2851 135.238 56.9911 142.164L62.3389 136.214C54.3345 129.02 46.4561 123.449 39.3608 120.545C32.3628 117.681 25.0134 117.02 19.4439 121.693L24.5862 127.822ZM55.9284 133.369C55.8303 135.145 55.7439 137.054 55.6679 139.036L63.6621 139.342C63.7367 137.394 63.8212 135.531 63.9162 133.811L55.9284 133.369ZM52.5179 122.841C53.7637 127.491 54.9637 131.481 56.1409 134.894L63.7038 132.286C62.6037 129.096 61.4571 125.293 60.2453 120.77L52.5179 122.841ZM51.3167 118.372C51.7284 119.901 52.1296 121.392 52.5179 122.841L60.2453 120.77C59.8557 119.316 59.4532 117.821 59.0418 116.293L51.3167 118.372ZM49.0315 23.3928C42.2867 25.2001 39.2791 31.3395 38.1166 37.8855C36.9371 44.5274 37.3472 52.9553 38.5475 61.9166C40.9581 79.9128 46.7767 101.505 51.3167 118.372L59.0418 116.293C54.4648 99.2882 48.8045 78.2328 46.4767 60.8545C45.3079 52.1286 45.0339 44.6874 45.9934 39.2843C46.9699 33.7853 48.9242 31.7038 51.1021 31.1202L49.0315 23.3928ZM91.1315 100.581C86.7821 83.848 81.594 63.8586 75.3536 48.6185C72.2471 41.032 68.7417 34.2648 64.7187 29.6312C60.6999 25.0024 55.3744 21.6932 49.0315 23.3928L51.1021 31.1202C53.1136 30.5812 55.522 31.2412 58.6778 34.876C61.8295 38.5061 64.9394 44.2971 67.9502 51.65C73.9444 66.2888 78.9985 85.7034 83.3888 102.594L91.1315 100.581ZM91.1293 100.573L91.1285 100.569L83.3919 102.605L83.3927 102.608L91.1293 100.573ZM92.3772 105.366C91.9694 103.805 91.5548 102.209 91.1323 100.584L83.3896 102.597C83.8118 104.221 84.2277 105.821 84.637 107.388L92.3772 105.366ZM129.097 94.1013C112.367 94.237 98.383 96.2207 86.5435 102.892L90.4707 109.862C100.534 104.191 112.878 102.233 129.162 102.101L129.097 94.1013ZM124.174 88.2834C124.518 91.8216 124.85 95.2312 125.146 98.4656L133.113 97.7368C132.814 94.475 132.48 91.0415 132.136 87.5082L124.174 88.2834ZM137.482 2.71173C130.967 3.28173 127.03 8.04142 124.776 13.7088C122.537 19.3398 121.538 26.7576 121.203 34.7933C120.53 50.9353 122.507 71.1573 124.174 88.2834L132.136 87.5082C130.452 70.2125 128.551 50.5974 129.196 35.1264C129.52 27.3557 130.477 21.0231 132.21 16.6646C133.929 12.3426 135.978 10.8738 138.179 10.6813L137.482 2.71173ZM167.656 90.7976C166.176 73.4037 164.328 51.5982 160.484 34.3376C158.57 25.7427 156.087 17.9089 152.694 12.2396C149.322 6.60401 144.378 2.10837 137.482 2.71174L138.179 10.6813C140.541 10.4746 143.085 11.7616 145.829 16.3475C148.553 20.8997 150.816 27.7263 152.675 36.0766C156.379 52.7064 158.192 73.9311 159.685 91.4758L167.656 90.7976ZM168.219 97.3549C168.035 95.2519 167.848 93.0616 167.656 90.7976L159.685 91.4758C159.877 93.7379 160.064 95.938 160.249 98.0522L168.219 97.3549Z" fill="black" mask="url(#path-1-inside-1)"/>
<path d="M185.831 77.4078C191.157 77.4078 194.689 79.1815 196.933 81.8873C199.227 84.6539 200.396 88.664 200.396 93.5C200.396 95.5452 200.426 97.7119 200.456 99.9528C200.569 108.344 200.697 117.775 199.355 125.768C198.507 130.817 197.107 135.026 194.933 137.936C192.837 140.739 189.98 142.408 185.831 142.408C181.675 142.408 178.687 140.729 176.421 137.886C174.085 134.955 172.483 130.729 171.425 125.688C169.487 116.456 169.509 105.229 169.527 96.0171C169.528 95.1595 169.53 94.3194 169.53 93.5C169.53 87.0138 171.125 83.1486 173.665 80.8492C176.246 78.5123 180.217 77.4078 185.831 77.4078Z" fill="white" stroke="black" stroke-width="4"/>
<path d="M98.8804 95.6842L98.8804 95.6841C97.5698 88.2517 98.3861 83.4705 100.491 80.353C102.582 77.2577 106.253 75.3462 111.748 74.3774C116.915 73.4663 120.738 74.807 123.543 77.5185C126.433 80.3117 128.43 84.7478 129.409 90.3011C129.814 92.5946 130.272 95.0249 130.747 97.5427C132.531 107.004 134.548 117.701 134.815 127.015C134.983 132.907 134.435 137.987 132.833 141.726C131.283 145.343 128.782 147.664 124.794 148.367C120.794 149.073 117.523 147.755 114.658 144.881C111.714 141.926 109.258 137.364 107.193 131.814C103.418 121.669 101.194 108.929 99.3793 98.5327C99.2097 97.5614 99.0438 96.6105 98.8804 95.6842Z" fill="white" stroke="black" stroke-width="4"/>
</g>
<defs>
<clipPath id="clip0">
<rect width="203.08" height="228.59" fill="white" transform="translate(0.0800781)"/>
</clipPath>
</defs>
</svg>
