<svg width="204" height="229" viewBox="0 0 204 229" fill="none" xmlns="http://www.w3.org/2000/svg">
<g clip-path="url(#clip0)">
<mask id="path-1-inside-1" fill="white">
<path fill-rule="evenodd" clip-rule="evenodd" d="M164.782 104.015C164.666 102.055 164.511 99.9551 164.314 97.7035C164.13 95.595 163.943 93.3998 163.75 91.1367C160.778 56.1981 156.428 5.07641 137.91 6.69651C120.479 8.22159 124.884 53.4739 128.235 87.8956V87.8958C128.579 91.4316 128.912 94.8531 129.21 98.1012C112.702 98.2351 99.5387 100.206 88.5872 106.377C88.1784 104.812 87.7629 103.213 87.3403 101.587C78.6005 67.964 66.8557 22.7793 50.1469 27.2564C32.3014 32.0381 46.1423 83.4603 55.2593 117.332C55.6709 118.861 56.0727 120.354 56.4616 121.806C57.6905 126.392 58.8638 130.288 60.0024 133.59C59.5781 141.267 59.3692 151.607 59.2863 159.661C32.9241 143.264 9.2114 135.8 1.93845 146.575C-6.04578 158.404 13.7667 180.386 43.1312 200.206C57.4791 209.89 71.4527 217.267 82.9237 220.899C92.0751 225.937 104.331 228.593 120.44 228.593C167.44 228.593 202.903 205.977 202.903 167.594C202.903 166.369 202.966 164.534 203.037 162.443C203.215 157.251 203.446 150.485 202.903 147.594C198.899 126.26 184.327 111.568 164.782 104.015Z"/>
</mask>
<path fill-rule="evenodd" clip-rule="evenodd" d="M164.782 104.015C164.666 102.055 164.511 99.9551 164.314 97.7035C164.13 95.595 163.943 93.3998 163.75 91.1367C160.778 56.1981 156.428 5.07641 137.91 6.69651C120.479 8.22159 124.884 53.4739 128.235 87.8956V87.8958C128.579 91.4316 128.912 94.8531 129.21 98.1012C112.702 98.2351 99.5387 100.206 88.5872 106.377C88.1784 104.812 87.7629 103.213 87.3403 101.587C78.6005 67.964 66.8557 22.7793 50.1469 27.2564C32.3014 32.0381 46.1423 83.4603 55.2593 117.332C55.6709 118.861 56.0727 120.354 56.4616 121.806C57.6905 126.392 58.8638 130.288 60.0024 133.59C59.5781 141.267 59.3692 151.607 59.2863 159.661C32.9241 143.264 9.2114 135.8 1.93845 146.575C-6.04578 158.404 13.7667 180.386 43.1312 200.206C57.4791 209.89 71.4527 217.267 82.9237 220.899C92.0751 225.937 104.331 228.593 120.44 228.593C167.44 228.593 202.903 205.977 202.903 167.594C202.903 166.369 202.966 164.534 203.037 162.443C203.215 157.251 203.446 150.485 202.903 147.594C198.899 126.26 184.327 111.568 164.782 104.015Z" fill="white"/>
<path d="M164.314 97.7035L160.329 98.0522L160.329 98.0522L164.314 97.7035ZM164.782 104.015L160.788 104.25L160.939 106.819L163.34 107.746L164.782 104.015ZM163.75 91.1367L167.736 90.7976L167.736 90.7976L163.75 91.1367ZM137.91 6.69651L138.259 10.6813L138.259 10.6813L137.91 6.69651ZM128.235 87.8956H132.235V87.7014L132.216 87.5081L128.235 87.8956ZM128.235 87.8958H124.235V88.09L124.254 88.2834L128.235 87.8958ZM129.21 98.1012L129.242 102.101L133.589 102.066L133.193 97.7368L129.21 98.1012ZM88.5872 106.377L84.717 107.388L86.0289 112.41L90.5508 109.862L88.5872 106.377ZM87.3403 101.587L91.2116 100.581L91.2116 100.581L87.3403 101.587ZM50.1469 27.2564L49.1116 23.3927L49.1116 23.3927L50.1469 27.2564ZM55.2593 117.332L51.3968 118.372L51.3968 118.372L55.2593 117.332ZM56.4616 121.806L60.3254 120.77L60.3254 120.77L56.4616 121.806ZM60.0024 133.59L63.9963 133.811L64.0396 133.028L63.7839 132.286L60.0024 133.59ZM59.2863 159.661L57.1737 163.057L63.2128 166.813L63.2861 159.702L59.2863 159.661ZM1.93845 146.575L5.25389 148.813L5.25389 148.813L1.93845 146.575ZM43.1312 200.206L45.369 196.89L45.369 196.89L43.1312 200.206ZM82.9237 220.899L84.8527 217.395L84.5071 217.204L84.1311 217.085L82.9237 220.899ZM120.44 228.593L120.44 224.593H120.44V228.593ZM203.037 162.443L199.039 162.307L199.039 162.307L203.037 162.443ZM202.903 147.594L198.972 148.332L198.972 148.332L202.903 147.594ZM160.329 98.0522C160.523 100.271 160.676 102.333 160.788 104.25L168.775 103.78C168.657 101.778 168.499 99.6393 168.299 97.3549L160.329 98.0522ZM159.765 91.4758C159.957 93.7379 160.144 95.938 160.329 98.0522L168.299 97.3549C168.115 95.2519 167.929 93.0616 167.736 90.7976L159.765 91.4758ZM138.259 10.6813C140.621 10.4746 143.165 11.7616 145.909 16.3475C148.633 20.8997 150.896 27.7263 152.755 36.0766C156.459 52.7064 158.272 73.9311 159.765 91.4758L167.736 90.7976C166.256 73.4037 164.408 51.5982 160.564 34.3376C158.65 25.7427 156.167 17.9089 152.774 12.2396C149.402 6.60401 144.458 2.10837 137.562 2.71173L138.259 10.6813ZM132.216 87.5081C130.533 70.2124 128.631 50.5973 129.276 35.1264C129.6 27.3556 130.557 21.023 132.29 16.6646C134.009 12.3426 136.058 10.8738 138.259 10.6813L137.562 2.71173C131.047 3.28173 127.11 8.0414 124.856 13.7088C122.617 19.3398 121.618 26.7576 121.283 34.7933C120.61 50.9353 122.587 71.1572 124.254 88.2832L132.216 87.5081ZM132.235 87.8958V87.8956H124.235V87.8958H132.235ZM133.193 97.7368C132.895 94.475 132.56 91.0415 132.216 87.5082L124.254 88.2834C124.598 91.8216 124.93 95.2312 125.226 98.4656L133.193 97.7368ZM90.5508 109.862C100.614 104.191 112.958 102.233 129.242 102.101L129.177 94.1013C112.447 94.237 98.4631 96.2207 86.6236 102.892L90.5508 109.862ZM83.4689 102.594C83.8914 104.219 84.3076 105.82 84.717 107.388L92.4573 105.366C92.0493 103.804 91.6343 102.207 91.2116 100.581L83.4689 102.594ZM51.1822 31.1201C53.1937 30.5812 55.6021 31.2411 58.7579 34.876C61.9096 38.5061 65.0195 44.2971 68.0303 51.65C74.0245 66.2888 79.0786 85.7034 83.4689 102.594L91.2116 100.581C86.8622 83.848 81.6741 63.8586 75.4337 48.6185C72.3272 41.0319 68.8217 34.2648 64.7988 29.6312C60.78 25.0024 55.4545 21.6932 49.1116 23.3927L51.1822 31.1201ZM59.1219 116.293C54.5449 99.2881 48.8846 78.2328 46.5568 60.8545C45.388 52.1286 45.114 44.6873 46.0735 39.2842C47.05 33.7852 49.0043 31.7037 51.1822 31.1201L49.1116 23.3927C42.3668 25.2 39.3591 31.3394 38.1967 37.8854C37.0172 44.5274 37.4272 52.9552 38.6276 61.9166C41.0381 79.9128 46.8568 101.505 51.3968 118.372L59.1219 116.293ZM60.3254 120.77C59.9358 119.316 59.5333 117.821 59.1219 116.293L51.3968 118.372C51.8084 119.901 52.2097 121.392 52.5979 122.841L60.3254 120.77ZM63.7839 132.286C62.6837 129.096 61.5372 125.293 60.3254 120.77L52.5979 122.841C53.8438 127.491 55.0438 131.481 56.221 134.894L63.7839 132.286ZM63.2861 159.702C63.3689 151.663 63.5771 141.396 63.9963 133.811L56.0085 133.369C55.5791 141.139 55.3696 151.552 55.2865 159.619L63.2861 159.702ZM61.3989 156.264C48.0554 147.965 35.1371 141.764 24.4369 139.051C19.0951 137.697 14.044 137.143 9.65558 137.814C5.17699 138.499 1.20959 140.505 -1.37699 144.337L5.25389 148.813C6.30379 147.257 8.02783 146.156 10.8647 145.722C13.7918 145.274 17.6801 145.591 22.4709 146.806C32.0358 149.231 44.155 154.96 57.1737 163.057L61.3989 156.264ZM-1.37699 144.337C-4.2271 148.559 -4.38389 153.475 -2.95857 158.293C-1.5571 163.03 1.43872 167.976 5.41595 172.905C13.3922 182.791 26.0468 193.5 40.8934 203.521L45.369 196.89C30.8511 187.091 18.9172 176.899 11.6422 167.882C7.99374 163.36 5.69819 159.354 4.71274 156.023C3.75115 152.773 4.11188 150.505 5.25389 148.813L-1.37699 144.337ZM40.8934 203.521C55.406 213.317 69.7377 220.919 81.7163 224.712L84.1311 217.085C73.1676 213.614 59.5522 206.464 45.369 196.89L40.8934 203.521ZM120.44 224.593C104.726 224.593 93.209 221.995 84.8527 217.395L80.9946 224.403C90.9412 229.878 103.936 232.593 120.44 232.593V224.593ZM198.903 167.594C198.903 185.382 190.756 199.459 176.983 209.224C163.094 219.072 143.356 224.593 120.44 224.593L120.44 232.593C144.524 232.593 166.017 226.806 181.61 215.75C197.319 204.612 206.903 188.189 206.903 167.594H198.903ZM199.039 162.307C198.969 164.364 198.903 166.283 198.903 167.594H206.903C206.903 166.454 206.962 164.703 207.035 162.58L199.039 162.307ZM198.972 148.332C199.163 149.349 199.252 151.397 199.24 154.138C199.228 156.77 199.129 159.698 199.039 162.307L207.035 162.58C207.123 159.996 207.228 156.945 207.24 154.174C207.252 151.511 207.186 148.73 206.834 146.856L198.972 148.332ZM163.34 107.746C181.837 114.894 195.268 128.599 198.972 148.332L206.834 146.856C202.529 123.922 186.817 108.242 166.223 100.284L163.34 107.746Z" fill="black" mask="url(#path-1-inside-1)"/>
<path d="M185.911 77.4077C191.237 77.4077 194.769 79.1815 197.013 81.8872C199.307 84.6538 200.476 88.664 200.476 93.5C200.476 95.5452 200.506 97.7119 200.536 99.9528C200.649 108.344 200.777 117.775 199.435 125.768C198.587 130.817 197.187 135.026 195.013 137.935C192.917 140.739 190.06 142.408 185.911 142.408C181.755 142.408 178.767 140.729 176.501 137.886C174.165 134.955 172.563 130.729 171.505 125.688C169.567 116.456 169.589 105.229 169.607 96.017C169.608 95.1594 169.61 94.3194 169.61 93.5C169.61 87.0137 171.205 83.1485 173.745 80.8491C176.326 78.5122 180.297 77.4077 185.911 77.4077Z" fill="white" stroke="black" stroke-width="4"/>
<path d="M98.9605 95.6842L98.9605 95.6841C97.6499 88.2517 98.4662 83.4705 100.571 80.353C102.662 77.2577 106.333 75.3462 111.828 74.3774C116.995 73.4663 120.818 74.807 123.623 77.5185C126.513 80.3117 128.51 84.7478 129.49 90.3011C129.894 92.5946 130.352 95.0249 130.827 97.5427C132.611 107.004 134.628 117.701 134.895 127.015C135.064 132.907 134.515 137.987 132.913 141.726C131.363 145.343 128.862 147.664 124.874 148.367C120.874 149.073 117.603 147.755 114.738 144.881C111.794 141.926 109.338 137.364 107.273 131.814C103.498 121.669 101.274 108.929 99.4594 98.5327C99.2898 97.5614 99.1238 96.6105 98.9605 95.6842Z" fill="white" stroke="black" stroke-width="4"/>
</g>
<defs>
<clipPath id="clip0">
<rect width="203.08" height="228.59" fill="white" transform="translate(0.160156)"/>
</clipPath>
</defs>
</svg>
