<svg width="204" height="229" viewBox="0 0 204 229" fill="none" xmlns="http://www.w3.org/2000/svg">
<g clip-path="url(#clip0)">
<mask id="path-1-inside-1" fill="white">
<path fill-rule="evenodd" clip-rule="evenodd" d="M75.019 117.593C79.9466 111.972 85.364 107.87 91.4465 104.923C90.7768 101.965 90.1089 98.5971 89.4334 94.7659C88.9755 92.1691 88.4841 89.4417 87.9751 86.6169L87.9741 86.6114L87.9736 86.6084C81.7665 52.1599 72.9515 3.23746 90.5182 0.13996C108.085 -2.95754 116.534 46.0295 122.483 80.5235L122.484 80.5245C122.972 83.3557 123.443 86.0892 123.902 88.6882C124.522 92.2038 125.014 95.3508 125.386 98.17C126.666 98.1344 127.967 98.1119 129.29 98.1012C128.993 94.8531 128.659 91.4316 128.315 87.8958C124.964 53.474 120.559 8.22159 137.99 6.69651C156.508 5.07641 160.858 56.1981 163.83 91.1367C164.023 93.3998 164.21 95.595 164.394 97.7035C164.591 99.9551 164.747 102.055 164.862 104.015C184.407 111.568 198.979 126.26 202.983 147.594C203.526 150.485 203.295 157.251 203.117 162.443C203.046 164.534 202.983 166.369 202.983 167.594C202.983 205.977 167.52 228.593 120.52 228.593C99.4005 228.593 84.9041 224.027 75.343 215.515C66.3986 208.795 56.6016 199.089 47.0095 187.657C24.2371 160.518 11.2427 133.931 22.1752 124.757C29.9006 118.275 44.1148 125.069 59.8251 139.189C59.9985 134.665 60.2255 130.562 60.5189 127.593C60.5858 126.917 60.3734 122.544 60.1035 116.987L60.1035 116.987C59.5756 106.119 58.8278 90.7235 59.519 89.5934C60.1122 88.6234 63.5382 95.8333 67.0325 103.187C70.62 110.736 74.2793 118.437 75.019 117.593Z"/>
</mask>
<path fill-rule="evenodd" clip-rule="evenodd" d="M75.019 117.593C79.9466 111.972 85.364 107.87 91.4465 104.923C90.7768 101.965 90.1089 98.5971 89.4334 94.7659C88.9755 92.1691 88.4841 89.4417 87.9751 86.6169L87.9741 86.6114L87.9736 86.6084C81.7665 52.1599 72.9515 3.23746 90.5182 0.13996C108.085 -2.95754 116.534 46.0295 122.483 80.5235L122.484 80.5245C122.972 83.3557 123.443 86.0892 123.902 88.6882C124.522 92.2038 125.014 95.3508 125.386 98.17C126.666 98.1344 127.967 98.1119 129.29 98.1012C128.993 94.8531 128.659 91.4316 128.315 87.8958C124.964 53.474 120.559 8.22159 137.99 6.69651C156.508 5.07641 160.858 56.1981 163.83 91.1367C164.023 93.3998 164.21 95.595 164.394 97.7035C164.591 99.9551 164.747 102.055 164.862 104.015C184.407 111.568 198.979 126.26 202.983 147.594C203.526 150.485 203.295 157.251 203.117 162.443C203.046 164.534 202.983 166.369 202.983 167.594C202.983 205.977 167.52 228.593 120.52 228.593C99.4005 228.593 84.9041 224.027 75.343 215.515C66.3986 208.795 56.6016 199.089 47.0095 187.657C24.2371 160.518 11.2427 133.931 22.1752 124.757C29.9006 118.275 44.1148 125.069 59.8251 139.189C59.9985 134.665 60.2255 130.562 60.5189 127.593C60.5858 126.917 60.3734 122.544 60.1035 116.987L60.1035 116.987C59.5756 106.119 58.8278 90.7235 59.519 89.5934C60.1122 88.6234 63.5382 95.8333 67.0325 103.187C70.62 110.736 74.2793 118.437 75.019 117.593Z" fill="white"/>
<path d="M76.7688 116.625L68.7131 102.072L65.2135 104.01L73.2693 118.562L76.7688 116.625ZM91.4465 104.923L93.1907 108.523L96.0491 107.138L95.3477 104.04L91.4465 104.923ZM75.019 117.593L72.011 114.957L72.011 114.957L75.019 117.593ZM89.4334 94.7659L85.4942 95.4605L85.4942 95.4605L89.4334 94.7659ZM87.9751 86.6169L91.9117 85.9076L91.9108 85.9028L87.9751 86.6169ZM87.9741 86.6114L84.0377 87.3218L84.0384 87.3255L87.9741 86.6114ZM87.9736 86.6084L84.0369 87.3177L84.0371 87.3187L87.9736 86.6084ZM90.5182 0.13996L91.2128 4.07919L90.5182 0.13996ZM122.483 80.5235L118.542 81.2033L118.543 81.2135L118.545 81.2236L122.483 80.5235ZM122.484 80.5245L126.425 79.8447L126.424 79.8345L126.422 79.8244L122.484 80.5245ZM123.902 88.6882L127.841 87.9936L127.841 87.9936L123.902 88.6882ZM125.386 98.17L121.421 98.6938L121.893 102.268L125.497 102.168L125.386 98.17ZM129.29 98.1012L129.322 102.101L133.669 102.066L133.273 97.7368L129.29 98.1012ZM128.315 87.8958L124.334 88.2834L124.334 88.2834L128.315 87.8958ZM137.99 6.69651L138.339 10.6813L138.339 10.6813L137.99 6.69651ZM163.83 91.1367L167.816 90.7976L167.816 90.7976L163.83 91.1367ZM164.394 97.7035L160.409 98.0522L160.409 98.0522L164.394 97.7035ZM164.862 104.015L160.869 104.25L161.019 106.819L163.42 107.746L164.862 104.015ZM202.983 147.594L199.052 148.332L199.052 148.332L202.983 147.594ZM203.117 162.443L199.12 162.307L199.12 162.307L203.117 162.443ZM120.52 228.593L120.52 224.593H120.52V228.593ZM75.343 215.515L78.0028 212.527L77.8786 212.417L77.7458 212.317L75.343 215.515ZM47.0095 187.657L50.0737 185.086L50.0737 185.086L47.0095 187.657ZM22.1752 124.757L19.604 121.693L19.604 121.693L22.1752 124.757ZM59.8251 139.189L57.1513 142.164L63.4955 147.866L63.8222 139.342L59.8251 139.189ZM60.5189 127.593L56.5383 127.2L56.5383 127.2L60.5189 127.593ZM60.1035 116.987L64.0988 116.793L64.0978 116.772L64.0966 116.752L60.1035 116.987ZM60.1035 116.987L56.1082 117.181L56.1092 117.201L56.1104 117.221L60.1035 116.987ZM59.519 89.5934L62.9314 91.6804L62.9314 91.6804L59.519 89.5934ZM67.0325 103.187L70.6454 101.47L70.6454 101.47L67.0325 103.187ZM89.7023 101.323C83.1208 104.512 77.2781 108.948 72.011 114.957L78.0271 120.23C82.6151 114.996 87.6073 111.228 93.1907 108.523L89.7023 101.323ZM85.4942 95.4605C86.178 99.3387 86.8582 102.772 87.5452 105.806L95.3477 104.04C94.6955 101.159 94.0399 97.8554 93.3726 94.0713L85.4942 95.4605ZM84.0385 87.3262C84.5477 90.1525 85.0378 92.8724 85.4942 95.4605L93.3726 94.0713C92.9132 91.4658 92.4204 88.7308 91.9117 85.9076L84.0385 87.3262ZM84.0384 87.3255L84.0393 87.3309L91.9108 85.9028L91.9099 85.8974L84.0384 87.3255ZM84.0371 87.3187L84.0377 87.3218L91.9105 85.9011L91.91 85.8981L84.0371 87.3187ZM89.8236 -3.79927C83.166 -2.62534 79.6901 2.90549 77.9831 9.04096C76.2628 15.2244 75.9374 23.2183 76.335 31.8026C77.1335 49.0443 80.9469 70.1685 84.0369 87.3177L91.9102 85.8991C88.7931 68.5997 85.0955 48.0385 84.3264 31.4325C83.9402 23.0929 84.3168 16.1224 85.6904 11.1852C87.0773 6.20004 89.0871 4.45401 91.2128 4.07919L89.8236 -3.79927ZM126.425 79.8436C123.464 62.6718 119.822 41.5173 114.675 25.0422C112.113 16.8396 109.073 9.4391 105.342 4.21692C101.639 -0.964735 96.4814 -4.9732 89.8236 -3.79927L91.2128 4.07919C93.3385 3.70437 95.8243 4.65772 98.8326 8.8679C101.812 13.0375 104.55 19.4589 107.039 27.4276C111.996 43.2952 115.554 63.8811 118.542 81.2033L126.425 79.8436ZM126.422 79.8244L126.422 79.8233L118.545 81.2236L118.545 81.2246L126.422 79.8244ZM127.841 87.9936C127.384 85.4033 126.914 82.6774 126.425 79.8447L118.542 81.2043C119.03 84.0339 119.503 86.7751 119.962 89.3828L127.841 87.9936ZM129.352 97.6461C128.971 94.758 128.468 91.5528 127.841 87.9936L119.962 89.3828C120.575 92.8549 121.058 95.9436 121.421 98.6938L129.352 97.6461ZM129.257 94.1013C127.911 94.1123 126.584 94.1352 125.276 94.1715L125.497 102.168C126.749 102.134 128.024 102.112 129.322 102.101L129.257 94.1013ZM124.334 88.2834C124.679 91.8216 125.01 95.2312 125.306 98.4656L133.273 97.7368C132.975 94.475 132.64 91.0415 132.296 87.5082L124.334 88.2834ZM137.642 2.71173C131.127 3.28173 127.19 8.04142 124.937 13.7088C122.698 19.3398 121.698 26.7576 121.363 34.7933C120.69 50.9353 122.667 71.1573 124.334 88.2834L132.296 87.5082C130.613 70.2125 128.711 50.5974 129.356 35.1264C129.68 27.3557 130.637 21.0231 132.37 16.6646C134.089 12.3426 136.138 10.8738 138.339 10.6813L137.642 2.71173ZM167.816 90.7976C166.336 73.4037 164.488 51.5982 160.644 34.3376C158.73 25.7427 156.247 17.9089 152.854 12.2396C149.482 6.60401 144.538 2.10837 137.642 2.71173L138.339 10.6813C140.701 10.4746 143.245 11.7616 145.99 16.3475C148.714 20.8997 150.976 27.7263 152.835 36.0766C156.539 52.7064 158.352 73.9311 159.845 91.4758L167.816 90.7976ZM168.379 97.3549C168.195 95.2519 168.009 93.0616 167.816 90.7976L159.845 91.4758C160.037 93.7379 160.224 95.938 160.409 98.0522L168.379 97.3549ZM168.855 103.78C168.737 101.778 168.579 99.6393 168.379 97.3549L160.409 98.0522C160.604 100.271 160.756 102.333 160.869 104.25L168.855 103.78ZM206.914 146.856C202.61 123.922 186.897 108.242 166.303 100.284L163.42 107.746C181.917 114.894 195.348 128.599 199.052 148.332L206.914 146.856ZM207.115 162.58C207.203 159.996 207.308 156.945 207.32 154.174C207.332 151.511 207.266 148.73 206.914 146.856L199.052 148.332C199.243 149.349 199.333 151.397 199.32 154.138C199.308 156.77 199.209 159.698 199.12 162.307L207.115 162.58ZM206.983 167.594C206.983 166.454 207.042 164.703 207.115 162.58L199.12 162.307C199.049 164.364 198.983 166.283 198.983 167.594H206.983ZM120.52 232.593C144.604 232.593 166.098 226.806 181.69 215.75C197.399 204.612 206.983 188.189 206.983 167.594H198.983C198.983 185.382 190.836 199.459 177.063 209.224C163.174 219.072 143.436 224.593 120.52 224.593L120.52 232.593ZM72.6833 218.503C83.2689 227.926 98.8977 232.593 120.52 232.593V224.593C99.9033 224.593 86.5394 220.127 78.0028 212.527L72.6833 218.503ZM77.7458 212.317C69.1212 205.837 59.5425 196.371 50.0737 185.086L43.9453 190.228C53.6608 201.807 63.676 211.752 72.9403 218.713L77.7458 212.317ZM50.0737 185.086C38.8149 171.668 30.1485 158.584 25.6373 147.913C23.375 142.561 22.2711 138.078 22.2409 134.604C22.2113 131.215 23.1826 129.134 24.7463 127.822L19.604 121.693C15.7015 124.968 14.1974 129.65 14.2412 134.674C14.2842 139.614 15.8024 145.194 18.2687 151.028C23.2147 162.728 32.4317 176.507 43.9453 190.228L50.0737 185.086ZM24.7463 127.822C26.9022 126.013 30.5227 125.507 36.4908 127.949C42.3615 130.352 49.4453 135.238 57.1513 142.164L62.499 136.214C54.4947 129.02 46.6162 123.449 39.5209 120.545C32.5229 117.681 25.1736 117.02 19.604 121.693L24.7463 127.822ZM56.5383 127.2C56.2327 130.292 56.0022 134.492 55.8281 139.036L63.8222 139.342C63.9949 134.837 64.2183 130.832 64.4995 127.987L56.5383 127.2ZM56.1082 117.181C56.2434 119.965 56.3632 122.432 56.441 124.288C56.48 125.217 56.5076 125.974 56.5214 126.532C56.5383 127.211 56.5254 127.331 56.5383 127.2L64.4995 127.987C64.546 127.517 64.5315 126.837 64.519 126.333C64.5034 125.706 64.4735 124.896 64.434 123.953C64.3548 122.064 64.2335 119.566 64.0988 116.793L56.1082 117.181ZM56.1104 117.221L56.1104 117.222L64.0966 116.752L64.0966 116.752L56.1104 117.221ZM56.1066 87.5064C55.6415 88.2669 55.5075 89.0485 55.4707 89.2504C55.4049 89.6115 55.3646 89.9863 55.3371 90.3256C55.2812 91.0141 55.2545 91.859 55.2447 92.7796C55.225 94.6369 55.2723 97.0737 55.356 99.7629C55.5239 105.153 55.8447 111.756 56.1082 117.181L64.0988 116.792C63.8344 111.349 63.5174 104.821 63.3521 99.5139C63.2693 96.8546 63.2263 94.5514 63.2443 92.8646C63.2533 92.0131 63.2774 91.3849 63.3109 90.9728C63.328 90.7617 63.3421 90.6793 63.341 90.6854C63.3403 90.6893 63.3263 90.7683 63.2887 90.8932C63.2611 90.9849 63.1634 91.3011 62.9314 91.6804L56.1066 87.5064ZM70.6454 101.47C68.912 97.8222 67.1421 94.0959 65.7282 91.4071C65.0377 90.094 64.344 88.857 63.7262 87.9765C63.4724 87.6148 62.9743 86.9297 62.2782 86.4044C61.9708 86.1725 61.0706 85.5361 59.7529 85.5064C57.9952 85.4668 56.732 86.4839 56.1066 87.5064L62.9314 91.6804C62.3802 92.5817 61.2132 93.5414 59.5726 93.5044C58.3719 93.4773 57.6096 92.9036 57.4595 92.7904C57.0779 92.5024 56.9722 92.2789 57.1776 92.5717C57.4782 93 57.9706 93.8432 58.6475 95.1305C59.9685 97.6425 61.6588 101.198 63.4197 104.904L70.6454 101.47ZM72.011 114.957C72.9084 113.933 74.2629 113.492 75.5327 113.713C76.4603 113.874 77.0219 114.332 77.1334 114.422C77.4142 114.65 77.46 114.781 77.2442 114.471C76.8933 113.968 76.3513 113.037 75.6327 111.673C74.2242 109 72.4526 105.273 70.6454 101.47L63.4197 104.904C65.1999 108.65 67.0517 112.549 68.5547 115.402C69.2918 116.801 70.0276 118.109 70.6829 119.049C70.9703 119.461 71.4514 120.113 72.0879 120.63C72.3772 120.866 73.0968 121.409 74.1611 121.594C75.5675 121.839 77.0372 121.359 78.0271 120.23L72.011 114.957Z" fill="black" mask="url(#path-1-inside-1)"/>
<path d="M62.7699 96.6155L62.7699 96.6155C60.8165 89.3256 61.2129 84.4914 63.0384 81.2023C64.8509 77.9366 68.3419 75.7124 73.731 74.2684C78.799 72.9104 82.7242 73.9128 85.7552 76.3695C88.8776 78.9002 91.2541 83.1453 92.7136 88.5921C93.3163 90.8417 93.9847 93.2228 94.6771 95.6897C97.279 104.959 100.221 115.44 101.298 124.695C101.98 130.551 101.876 135.659 100.606 139.523C99.3776 143.262 97.0881 145.791 93.1764 146.84C89.2527 147.891 85.8797 146.863 82.7755 144.25C79.5853 141.563 76.7402 137.232 74.1993 131.883C69.5549 122.106 66.2291 109.608 63.5151 99.4098C63.2615 98.4569 63.0133 97.5242 62.7699 96.6155Z" fill="white" stroke="black" stroke-width="4"/>
<path d="M185.991 77.4078C191.317 77.4078 194.849 79.1815 197.093 81.8873C199.387 84.6539 200.557 88.664 200.557 93.5C200.557 95.5452 200.586 97.7119 200.616 99.9528C200.729 108.344 200.857 117.775 199.515 125.768C198.667 130.817 197.267 135.026 195.093 137.936C192.997 140.739 190.14 142.408 185.991 142.408C181.835 142.408 178.847 140.729 176.581 137.886C174.245 134.955 172.643 130.729 171.585 125.688C169.647 116.456 169.669 105.229 169.687 96.0171C169.688 95.1595 169.69 94.3194 169.69 93.5C169.69 87.0138 171.285 83.1486 173.825 80.8492C176.406 78.5123 180.377 77.4078 185.991 77.4078Z" fill="white" stroke="black" stroke-width="4"/>
</g>
<defs>
<clipPath id="clip0">
<rect width="203.08" height="228.59" fill="white" transform="translate(0.240234)"/>
</clipPath>
</defs>
</svg>
