<svg width="204" height="229" viewBox="0 0 204 229" fill="none" xmlns="http://www.w3.org/2000/svg">
<g clip-path="url(#clip0)">
<mask id="path-1-inside-1" fill="white">
<path fill-rule="evenodd" clip-rule="evenodd" d="M202.379 145.807C202.661 142.023 202.802 137.5 202.802 132.094C202.802 129.042 202.819 125.811 202.836 122.455V122.455C203.019 87.5384 203.272 39.0938 185.302 39.0938C170.144 39.0938 167.952 73.5599 167.747 105.302C156.853 100.528 144.223 98.0938 130.912 98.0938C105.923 98.0938 88.4623 101.982 74.7788 117.593C74.0391 118.437 70.3797 110.736 66.7923 103.187C63.298 95.8333 59.872 88.6234 59.2788 89.5934C58.5876 90.7235 59.3354 106.119 59.8632 116.987C60.1332 122.544 60.3456 126.917 60.2787 127.593C59.5529 134.936 59.2337 149.22 59.1261 159.661C32.7639 143.264 9.05125 135.8 1.77829 146.575C-6.20594 158.404 13.6066 180.386 42.9711 200.206C57.3189 209.89 71.2925 217.267 82.7635 220.899C91.915 225.937 104.171 228.593 120.28 228.593C167.28 228.593 202.743 205.977 202.743 167.594C202.743 166.369 202.806 164.534 202.877 162.443C203.054 157.251 203.286 150.485 202.743 147.594C202.63 146.993 202.509 146.397 202.379 145.807Z"/>
</mask>
<path fill-rule="evenodd" clip-rule="evenodd" d="M202.379 145.807C202.661 142.023 202.802 137.5 202.802 132.094C202.802 129.042 202.819 125.811 202.836 122.455V122.455C203.019 87.5384 203.272 39.0938 185.302 39.0938C170.144 39.0938 167.952 73.5599 167.747 105.302C156.853 100.528 144.223 98.0938 130.912 98.0938C105.923 98.0938 88.4623 101.982 74.7788 117.593C74.0391 118.437 70.3797 110.736 66.7923 103.187C63.298 95.8333 59.872 88.6234 59.2788 89.5934C58.5876 90.7235 59.3354 106.119 59.8632 116.987C60.1332 122.544 60.3456 126.917 60.2787 127.593C59.5529 134.936 59.2337 149.22 59.1261 159.661C32.7639 143.264 9.05125 135.8 1.77829 146.575C-6.20594 158.404 13.6066 180.386 42.9711 200.206C57.3189 209.89 71.2925 217.267 82.7635 220.899C91.915 225.937 104.171 228.593 120.28 228.593C167.28 228.593 202.743 205.977 202.743 167.594C202.743 166.369 202.806 164.534 202.877 162.443C203.054 157.251 203.286 150.485 202.743 147.594C202.63 146.993 202.509 146.397 202.379 145.807Z" fill="white"/>
<path d="M76.5286 116.625L68.4728 102.072L64.9733 104.01L73.029 118.562L76.5286 116.625ZM202.379 145.807L198.39 145.51L198.347 146.093L198.472 146.663L202.379 145.807ZM202.836 122.455L206.836 122.476L206.836 122.465V122.455H202.836ZM202.836 122.455L198.836 122.434L198.836 122.444V122.455H202.836ZM167.747 105.302L166.141 108.966L171.707 111.406L171.747 105.328L167.747 105.302ZM130.912 98.0938L130.912 94.0938L130.912 94.0938L130.912 98.0938ZM74.7788 117.593L71.7708 114.957L71.7708 114.957L74.7788 117.593ZM66.7923 103.187L63.1794 104.904L63.1794 104.904L66.7923 103.187ZM59.2788 89.5934L55.8664 87.5064L55.8664 87.5064L59.2788 89.5934ZM59.8632 116.987L63.8585 116.792L63.8585 116.792L59.8632 116.987ZM60.2787 127.593L64.2593 127.987L64.2593 127.987L60.2787 127.593ZM59.1261 159.661L57.0135 163.057L63.0526 166.813L63.1259 159.702L59.1261 159.661ZM1.77829 146.575L-1.53714 144.337L-1.53714 144.337L1.77829 146.575ZM42.9711 200.206L45.2089 196.89L45.2089 196.89L42.9711 200.206ZM82.7635 220.899L84.6926 217.395L84.347 217.204L83.9709 217.085L82.7635 220.899ZM120.28 228.593L120.28 224.593H120.28V228.593ZM202.877 162.443L198.879 162.307L198.879 162.307L202.877 162.443ZM202.743 147.594L206.674 146.856L206.674 146.856L202.743 147.594ZM206.368 146.104C206.66 142.191 206.802 137.563 206.802 132.094H198.802C198.802 137.437 198.662 141.856 198.39 145.51L206.368 146.104ZM206.802 132.094C206.802 129.055 206.819 125.834 206.836 122.476L198.836 122.434C198.819 125.788 198.802 129.03 198.802 132.094H206.802ZM206.836 122.455V122.455H198.836V122.455H206.836ZM206.836 122.476C206.927 105.097 207.045 83.9609 204.843 67.1606C203.746 58.7961 202.032 51.1275 199.238 45.4443C196.448 39.7678 192.028 35.0938 185.302 35.0938V43.0938C187.561 43.0938 189.848 44.4753 192.059 48.9733C194.266 53.4646 195.847 60.0894 196.911 68.2006C199.028 84.3517 198.928 104.896 198.836 122.434L206.836 122.476ZM185.302 35.0938C179.676 35.0938 175.594 38.4072 172.806 42.848C170.078 47.1924 168.26 53.059 166.992 59.5247C164.444 72.5163 163.849 89.4071 163.747 105.277L171.747 105.328C171.849 89.4552 172.454 73.2417 174.842 61.0646C176.043 54.946 177.628 50.2121 179.581 47.1021C181.473 44.0886 183.349 43.0938 185.302 43.0938V35.0938ZM130.912 102.094C143.749 102.094 155.821 104.443 166.141 108.966L169.352 101.639C157.885 96.6129 144.697 94.0938 130.912 94.0938V102.094ZM77.7869 120.23C90.3161 105.936 106.297 102.094 130.912 102.094L130.912 94.0938C105.549 94.0938 86.6085 98.0287 71.7708 114.957L77.7869 120.23ZM63.1794 104.904C64.9597 108.65 66.8115 112.549 68.3145 115.402C69.0516 116.801 69.7874 118.109 70.4427 119.049C70.7301 119.461 71.2111 120.113 71.8476 120.63C72.1369 120.866 72.8566 121.409 73.9208 121.594C75.3272 121.839 76.797 121.359 77.7869 120.23L71.7708 114.957C72.6682 113.933 74.0227 113.492 75.2924 113.713C76.2201 113.874 76.7817 114.332 76.8932 114.422C77.1739 114.65 77.2197 114.781 77.004 114.471C76.653 113.968 76.111 113.037 75.3924 111.673C73.9839 109 72.2123 105.273 70.4051 101.47L63.1794 104.904ZM62.6911 91.6804C62.1399 92.5817 60.973 93.5414 59.3323 93.5044C58.1317 93.4773 57.3694 92.9036 57.2193 92.7904C56.8377 92.5024 56.7319 92.2789 56.9373 92.5717C57.2379 93 57.7303 93.8432 58.4073 95.1305C59.7283 97.6425 61.4186 101.198 63.1794 104.904L70.4051 101.47C68.6718 97.8222 66.9019 94.0959 65.488 91.4071C64.7975 90.094 64.1038 88.857 63.4859 87.9765C63.2321 87.6148 62.7341 86.9297 62.0379 86.4044C61.7305 86.1724 60.8304 85.5361 59.5127 85.5064C57.755 85.4668 56.4917 86.4839 55.8664 87.5064L62.6911 91.6804ZM63.8585 116.792C63.5941 111.349 63.2771 104.821 63.1119 99.5139C63.0291 96.8546 62.9861 94.5514 63.004 92.8646C63.0131 92.0131 63.0372 91.3849 63.0707 90.9728C63.0878 90.7617 63.1019 90.6793 63.1007 90.6854C63.1 90.6893 63.086 90.7683 63.0484 90.8932C63.0209 90.9849 62.9231 91.3011 62.6911 91.6804L55.8664 87.5064C55.4012 88.2669 55.2673 89.0485 55.2305 89.2504C55.1646 89.6115 55.1244 89.9863 55.0969 90.3256C55.041 91.0141 55.0143 91.859 55.0045 92.7796C54.9847 94.6369 55.032 97.0737 55.1158 99.7629C55.2836 105.153 55.6045 111.756 55.8679 117.181L63.8585 116.792ZM64.2593 127.987C64.3057 127.517 64.2913 126.837 64.2787 126.333C64.2631 125.706 64.2333 124.896 64.1938 123.953C64.1146 122.064 63.9932 119.566 63.8585 116.792L55.8679 117.181C56.0032 119.964 56.123 122.431 56.2008 124.288C56.2397 125.217 56.2673 125.974 56.2812 126.532C56.2981 127.211 56.2851 127.331 56.2981 127.2L64.2593 127.987ZM63.1259 159.702C63.2338 149.227 63.5539 135.123 64.2593 127.987L56.2981 127.2C55.5519 134.75 55.2335 149.213 55.1263 159.619L63.1259 159.702ZM61.2387 156.264C47.8952 147.965 34.977 141.764 24.2767 139.051C18.935 137.697 13.8838 137.143 9.49542 137.814C5.01683 138.499 1.04943 140.505 -1.53714 144.337L5.09373 148.813C6.14363 147.257 7.86768 146.156 10.7045 145.722C13.6316 145.274 17.52 145.591 22.3108 146.806C31.8756 149.231 43.9948 154.96 57.0135 163.057L61.2387 156.264ZM-1.53714 144.337C-4.38725 148.559 -4.54405 153.475 -3.11872 158.293C-1.71725 163.03 1.27856 167.976 5.25579 172.905C13.232 182.791 25.8866 193.5 40.7332 203.521L45.2089 196.89C30.691 187.091 18.7571 176.899 11.482 167.882C7.83358 163.36 5.53804 159.354 4.55259 156.023C3.591 152.773 3.95172 150.505 5.09373 148.813L-1.53714 144.337ZM40.7332 203.521C55.2459 213.317 69.5776 220.919 81.5561 224.712L83.9709 217.085C73.0075 213.614 59.392 206.464 45.2089 196.89L40.7332 203.521ZM120.28 224.593C104.566 224.593 93.0489 221.995 84.6926 217.395L80.8345 224.403C90.781 229.878 103.776 232.593 120.28 232.593V224.593ZM198.743 167.594C198.743 185.382 190.596 199.459 176.823 209.224C162.934 219.072 143.196 224.593 120.28 224.593L120.28 232.593C144.364 232.593 165.857 226.806 181.45 215.75C197.159 204.612 206.743 188.189 206.743 167.594H198.743ZM198.879 162.307C198.809 164.364 198.743 166.283 198.743 167.594H206.743C206.743 166.454 206.802 164.703 206.875 162.58L198.879 162.307ZM198.812 148.332C199.002 149.349 199.092 151.397 199.08 154.138C199.068 156.77 198.968 159.698 198.879 162.307L206.875 162.58C206.963 159.996 207.067 156.945 207.08 154.174C207.092 151.511 207.026 148.73 206.674 146.856L198.812 148.332ZM198.472 146.663C198.593 147.214 198.706 147.77 198.812 148.332L206.674 146.856C206.554 146.215 206.425 145.58 206.287 144.95L198.472 146.663Z" fill="black" mask="url(#path-1-inside-1)"/>
<path d="M62.5296 96.6156L62.5296 96.6156C60.5762 89.3257 60.9727 84.4914 62.7982 81.2024C64.6107 77.9367 68.1017 75.7124 73.4908 74.2684C78.5588 72.9105 82.484 73.9129 85.515 76.3695C88.6374 78.9003 91.0139 83.1454 92.4733 88.5922C93.0761 90.8417 93.7444 93.2229 94.4368 95.6897C97.0388 104.96 99.9804 115.44 101.058 124.695C101.739 130.551 101.636 135.659 100.366 139.523C99.1373 143.262 96.8479 145.792 92.9362 146.84C89.0124 147.891 85.6395 146.864 82.5353 144.25C79.345 141.563 76.5 137.232 73.9591 131.883C69.3147 122.106 65.9889 109.608 63.2749 99.4098C63.0213 98.457 62.7731 97.5242 62.5296 96.6156Z" fill="white" stroke="black" stroke-width="4"/>
<path d="M134.808 94.5569L134.808 94.5569C134.15 87.0385 135.38 82.3466 137.749 79.4245C140.101 76.5232 143.925 74.9389 149.483 74.4527C154.71 73.9954 158.402 75.6642 160.96 78.6098C163.596 81.6443 165.199 86.2376 165.69 91.8551C165.893 94.1751 166.138 96.6361 166.391 99.1857C167.344 108.767 168.421 119.598 167.875 128.9C167.53 134.785 166.541 139.798 164.619 143.383C162.76 146.851 160.066 148.945 156.032 149.298C151.985 149.652 148.842 148.054 146.238 144.941C143.563 141.742 141.513 136.983 139.94 131.274C137.064 120.838 135.959 107.953 135.057 97.4382C134.973 96.4557 134.89 95.494 134.808 94.5569Z" fill="white" stroke="black" stroke-width="4"/>
<path d="M98.8003 95.6842L98.8003 95.6841C97.4897 88.2517 98.306 83.4705 100.411 80.353C102.501 77.2577 106.173 75.3462 111.667 74.3774C116.835 73.4663 120.657 74.807 123.463 77.5185C126.353 80.3117 128.35 84.7478 129.329 90.3011C129.734 92.5946 130.192 95.0249 130.667 97.5427C132.451 107.004 134.468 117.701 134.735 127.015C134.903 132.907 134.355 137.987 132.753 141.726C131.203 145.343 128.702 147.664 124.714 148.367C120.713 149.073 117.443 147.755 114.578 144.881C111.634 141.926 109.178 137.364 107.113 131.814C103.338 121.669 101.114 108.929 99.2992 98.5327C99.1297 97.5614 98.9637 96.6105 98.8003 95.6842Z" fill="white" stroke="black" stroke-width="4"/>
</g>
<defs>
<clipPath id="clip0">
<rect width="203.08" height="228.59" fill="white"/>
</clipPath>
</defs>
</svg>
