<svg width="204" height="229" viewBox="0 0 204 229" fill="none" xmlns="http://www.w3.org/2000/svg">
<g clip-path="url(#clip0)">
<mask id="path-1-inside-1" fill="white">
<path fill-rule="evenodd" clip-rule="evenodd" d="M59.665 139.189C59.7403 137.224 59.8257 135.338 59.9223 133.59C58.7837 130.288 57.6104 126.392 56.3816 121.806C55.9936 120.358 55.5927 118.869 55.1823 117.344L55.1796 117.334L55.1793 117.332C46.0622 83.4604 32.2214 32.0382 50.0668 27.2566C66.7756 22.7795 78.5205 67.9641 87.2602 101.588L87.2607 101.59L87.2647 101.605C87.6858 103.225 88.0998 104.818 88.5071 106.377C99.8674 99.9756 113.608 98.0938 130.992 98.0938C144.303 98.0938 156.933 100.528 167.827 105.302C168.032 73.5599 170.224 39.0938 185.382 39.0938C203.353 39.0938 203.099 87.5384 202.916 122.455V122.455C202.899 125.811 202.882 129.042 202.882 132.094C202.882 137.5 202.741 142.023 202.459 145.807C202.589 146.397 202.71 146.993 202.823 147.594C203.366 150.485 203.134 157.251 202.957 162.443C202.886 164.534 202.823 166.369 202.823 167.594C202.823 205.977 167.36 228.593 120.36 228.593C99.2403 228.593 84.744 224.027 75.1829 215.515C66.2385 208.795 56.4415 199.089 46.8493 187.657C24.0769 160.518 11.0825 133.931 22.015 124.757C29.7405 118.275 43.9547 125.069 59.665 139.189Z"/>
</mask>
<path fill-rule="evenodd" clip-rule="evenodd" d="M59.665 139.189C59.7403 137.224 59.8257 135.338 59.9223 133.59C58.7837 130.288 57.6104 126.392 56.3816 121.806C55.9936 120.358 55.5927 118.869 55.1823 117.344L55.1796 117.334L55.1793 117.332C46.0622 83.4604 32.2214 32.0382 50.0668 27.2566C66.7756 22.7795 78.5205 67.9641 87.2602 101.588L87.2607 101.59L87.2647 101.605C87.6858 103.225 88.0998 104.818 88.5071 106.377C99.8674 99.9756 113.608 98.0938 130.992 98.0938C144.303 98.0938 156.933 100.528 167.827 105.302C168.032 73.5599 170.224 39.0938 185.382 39.0938C203.353 39.0938 203.099 87.5384 202.916 122.455V122.455C202.899 125.811 202.882 129.042 202.882 132.094C202.882 137.5 202.741 142.023 202.459 145.807C202.589 146.397 202.71 146.993 202.823 147.594C203.366 150.485 203.134 157.251 202.957 162.443C202.886 164.534 202.823 166.369 202.823 167.594C202.823 205.977 167.36 228.593 120.36 228.593C99.2403 228.593 84.744 224.027 75.1829 215.515C66.2385 208.795 56.4415 199.089 46.8493 187.657C24.0769 160.518 11.0825 133.931 22.015 124.757C29.7405 118.275 43.9547 125.069 59.665 139.189Z" fill="white"/>
<path d="M59.9223 133.59L63.9162 133.811L63.9595 133.028L63.7038 132.286L59.9223 133.59ZM59.665 139.189L56.9911 142.164L63.3354 147.866L63.6621 139.342L59.665 139.189ZM56.3816 121.806L60.2453 120.771L60.2453 120.771L56.3816 121.806ZM55.1823 117.344L59.0448 116.304L59.0446 116.303L55.1823 117.344ZM55.1796 117.334L59.0419 116.293L59.0394 116.284L59.0369 116.275L55.1796 117.334ZM55.1793 117.332L51.3167 118.372L51.3193 118.382L51.322 118.391L55.1793 117.332ZM50.0668 27.2566L49.0315 23.3929L50.0668 27.2566ZM87.2602 101.588L91.1336 100.589L91.1315 100.581L87.2602 101.588ZM87.2607 101.59L83.3873 102.588L83.3892 102.595L87.2607 101.59ZM87.2647 101.605L83.3932 102.611L83.3934 102.611L87.2647 101.605ZM88.5071 106.377L84.6369 107.388L85.9488 112.41L90.4707 109.862L88.5071 106.377ZM167.827 105.302L166.221 108.966L171.787 111.406L171.827 105.328L167.827 105.302ZM202.916 122.455L198.917 122.434L198.916 122.444V122.455H202.916ZM202.916 122.455L206.916 122.476L206.916 122.465V122.455H202.916ZM202.459 145.807L198.471 145.51L198.427 146.093L198.552 146.663L202.459 145.807ZM202.823 147.594L206.754 146.856L206.754 146.856L202.823 147.594ZM202.957 162.443L198.959 162.307L198.959 162.307L202.957 162.443ZM120.36 228.593L120.36 224.593H120.36V228.593ZM75.1829 215.515L77.8426 212.527L77.7185 212.417L77.5856 212.317L75.1829 215.515ZM46.8493 187.657L49.9135 185.086L49.9135 185.086L46.8493 187.657ZM22.015 124.757L24.5862 127.822L24.5862 127.822L22.015 124.757ZM55.9284 133.369C55.8303 135.145 55.7439 137.054 55.6679 139.036L63.6621 139.342C63.7367 137.394 63.8212 135.531 63.9162 133.811L55.9284 133.369ZM52.5179 122.841C53.7637 127.491 54.9637 131.481 56.1409 134.894L63.7038 132.286C62.6037 129.096 61.4571 125.293 60.2453 120.771L52.5179 122.841ZM51.3197 118.383C51.7303 119.909 52.1306 121.396 52.5179 122.841L60.2453 120.771C59.8566 119.32 59.4551 117.829 59.0448 116.304L51.3197 118.383ZM51.3173 118.374L51.32 118.384L59.0446 116.303L59.0419 116.293L51.3173 118.374ZM51.322 118.391L51.3223 118.392L59.0369 116.275L59.0366 116.274L51.322 118.391ZM49.0315 23.3929C42.2867 25.2001 39.2791 31.3395 38.1166 37.8856C36.9371 44.5275 37.3472 52.9553 38.5475 61.9167C40.9581 79.9129 46.7767 101.505 51.3167 118.372L59.0418 116.293C54.4648 99.2882 48.8045 78.2329 46.4767 60.8546C45.3079 52.1287 45.0339 44.6874 45.9934 39.2843C46.9699 33.7853 48.9242 31.7038 51.1021 31.1203L49.0315 23.3929ZM91.1315 100.581C86.7821 83.8481 81.594 63.8587 75.3536 48.6186C72.2471 41.0321 68.7417 34.2649 64.7187 29.6313C60.6999 25.0025 55.3744 21.6933 49.0315 23.3929L51.1021 31.1203C53.1136 30.5813 55.522 31.2413 58.6778 34.8761C61.8295 38.5062 64.9394 44.2972 67.9502 51.6501C73.9444 66.2889 78.9985 85.7035 83.3888 102.594L91.1315 100.581ZM91.1342 100.591L91.1336 100.589L83.3868 102.586L83.3873 102.588L91.1342 100.591ZM91.1363 100.6L91.1323 100.584L83.3892 102.595L83.3932 102.611L91.1363 100.6ZM92.3772 105.366C91.9707 103.809 91.5572 102.219 91.1361 100.599L83.3934 102.611C83.8143 104.231 84.2289 105.826 84.6369 107.388L92.3772 105.366ZM130.992 94.0938C113.412 94.0938 98.8208 95.974 86.5435 102.892L90.4707 109.862C100.914 103.977 113.805 102.094 130.992 102.094V94.0938ZM169.432 101.639C157.965 96.6129 144.777 94.0938 130.992 94.0938V102.094C143.829 102.094 155.901 104.443 166.221 108.966L169.432 101.639ZM185.382 35.0938C179.756 35.0938 175.674 38.4072 172.886 42.848C170.158 47.1924 168.34 53.059 167.072 59.5247C164.524 72.5163 163.929 89.4071 163.827 105.277L171.827 105.328C171.929 89.4552 172.534 73.2417 174.922 61.0646C176.123 54.946 177.708 50.2121 179.661 47.1021C181.553 44.0886 183.429 43.0938 185.382 43.0938V35.0938ZM206.916 122.476C207.007 105.097 207.125 83.9609 204.923 67.1606C203.826 58.7961 202.112 51.1275 199.319 45.4443C196.528 39.7678 192.108 35.0938 185.382 35.0938V43.0938C187.641 43.0938 189.928 44.4753 192.139 48.9733C194.347 53.4646 195.927 60.0894 196.991 68.2006C199.108 84.3517 199.008 104.896 198.917 122.434L206.916 122.476ZM206.916 122.455V122.455H198.916V122.455H206.916ZM206.882 132.094C206.882 129.055 206.899 125.834 206.916 122.476L198.917 122.434C198.899 125.788 198.882 129.03 198.882 132.094H206.882ZM206.448 146.104C206.74 142.191 206.882 137.563 206.882 132.094H198.882C198.882 137.437 198.743 141.856 198.471 145.51L206.448 146.104ZM206.754 146.856C206.634 146.215 206.505 145.58 206.367 144.95L198.552 146.663C198.673 147.214 198.786 147.77 198.892 148.332L206.754 146.856ZM206.955 162.58C207.043 159.996 207.148 156.945 207.16 154.174C207.172 151.511 207.106 148.73 206.754 146.856L198.892 148.332C199.083 149.349 199.172 151.397 199.16 154.138C199.148 156.77 199.048 159.698 198.959 162.307L206.955 162.58ZM206.823 167.594C206.823 166.454 206.882 164.703 206.955 162.58L198.959 162.307C198.889 164.364 198.823 166.283 198.823 167.594H206.823ZM120.36 232.593C144.444 232.593 165.937 226.806 181.53 215.75C197.239 204.612 206.823 188.189 206.823 167.594H198.823C198.823 185.382 190.676 199.459 176.903 209.224C163.014 219.072 143.276 224.593 120.36 224.593L120.36 232.593ZM72.5231 218.503C83.1087 227.926 98.7376 232.593 120.36 232.593V224.593C99.7431 224.593 86.3792 220.127 77.8426 212.527L72.5231 218.503ZM77.5856 212.317C68.961 205.837 59.3824 196.371 49.9135 185.086L43.7852 190.228C53.5006 201.807 63.5159 211.752 72.7801 218.713L77.5856 212.317ZM49.9135 185.086C38.6548 171.668 29.9884 158.584 25.4772 147.913C23.2148 142.561 22.111 138.078 22.0807 134.604C22.0512 131.215 23.0225 129.134 24.5862 127.822L19.4439 121.693C15.5413 124.968 14.0372 129.65 14.081 134.674C14.1241 139.614 15.6423 145.194 18.1085 151.028C23.0545 162.728 32.2715 176.507 43.7852 190.228L49.9135 185.086ZM24.5862 127.822C26.7421 126.013 30.3626 125.507 36.3306 127.949C42.2013 130.352 49.2851 135.238 56.9911 142.164L62.3389 136.214C54.3345 129.02 46.4561 123.449 39.3608 120.545C32.3628 117.681 25.0134 117.02 19.4439 121.693L24.5862 127.822Z" fill="black" mask="url(#path-1-inside-1)"/>
<path d="M134.888 94.5569L134.888 94.5569C134.23 87.0385 135.46 82.3466 137.829 79.4245C140.181 76.5232 144.005 74.9389 149.563 74.4527C154.79 73.9954 158.482 75.6642 161.04 78.6098C163.676 81.6443 165.279 86.2376 165.77 91.8551C165.973 94.1751 166.218 96.6361 166.472 99.1857C167.424 108.767 168.501 119.598 167.955 128.9C167.61 134.785 166.621 139.798 164.699 143.383C162.84 146.851 160.146 148.945 156.112 149.298C152.065 149.652 148.922 148.054 146.318 144.941C143.643 141.742 141.593 136.983 140.02 131.274C137.144 120.838 136.039 107.953 135.137 97.4382C135.053 96.4557 134.97 95.494 134.888 94.5569Z" fill="white" stroke="black" stroke-width="4"/>
<path d="M98.8804 95.6842L98.8804 95.6841C97.5698 88.2517 98.3861 83.4705 100.491 80.353C102.582 77.2577 106.253 75.3462 111.748 74.3774C116.915 73.4663 120.738 74.807 123.543 77.5185C126.433 80.3117 128.43 84.7478 129.409 90.3011C129.814 92.5946 130.272 95.0249 130.747 97.5427C132.531 107.004 134.548 117.701 134.815 127.015C134.983 132.907 134.435 137.987 132.833 141.726C131.283 145.343 128.782 147.664 124.794 148.367C120.794 149.073 117.523 147.755 114.658 144.881C111.714 141.926 109.258 137.364 107.193 131.814C103.418 121.669 101.194 108.929 99.3793 98.5327C99.2097 97.5614 99.0438 96.6105 98.8804 95.6842Z" fill="white" stroke="black" stroke-width="4"/>
</g>
<defs>
<clipPath id="clip0">
<rect width="203.08" height="228.59" fill="white" transform="translate(0.0800781)"/>
</clipPath>
</defs>
</svg>
