<svg width="204" height="229" viewBox="0 0 204 229" fill="none" xmlns="http://www.w3.org/2000/svg">
<g clip-path="url(#clip0)">
<mask id="path-1-inside-1" fill="white">
<path fill-rule="evenodd" clip-rule="evenodd" d="M88.5872 106.377C99.9474 99.9756 113.688 98.0938 131.072 98.0938C144.383 98.0938 157.013 100.528 167.907 105.302C168.112 73.5599 170.304 39.0938 185.462 39.0938C203.433 39.0938 203.179 87.5384 202.997 122.455V122.455C202.979 125.811 202.962 129.042 202.962 132.094C202.962 137.5 202.821 142.023 202.54 145.807C202.669 146.397 202.79 146.993 202.903 147.594C203.446 150.485 203.215 157.251 203.037 162.443C202.966 164.534 202.903 166.369 202.903 167.594C202.903 205.977 167.44 228.593 120.44 228.593C104.331 228.593 92.0751 225.937 82.9237 220.899C71.4527 217.267 57.4791 209.89 43.1312 200.206C13.7667 180.386 -6.04578 158.404 1.93845 146.575C9.2114 135.8 32.9241 143.264 59.2863 159.661C59.3692 151.607 59.5781 141.267 60.0024 133.59C58.8638 130.288 57.6905 126.392 56.4616 121.806C56.0739 120.359 55.6734 118.871 55.2632 117.347L55.2623 117.343L55.2593 117.332C46.1423 83.4604 32.3014 32.0382 50.1469 27.2566C66.8557 22.7794 78.6005 67.9641 87.3403 101.588C87.7628 103.213 88.1784 104.812 88.5872 106.377Z"/>
</mask>
<path fill-rule="evenodd" clip-rule="evenodd" d="M88.5872 106.377C99.9474 99.9756 113.688 98.0938 131.072 98.0938C144.383 98.0938 157.013 100.528 167.907 105.302C168.112 73.5599 170.304 39.0938 185.462 39.0938C203.433 39.0938 203.179 87.5384 202.997 122.455V122.455C202.979 125.811 202.962 129.042 202.962 132.094C202.962 137.5 202.821 142.023 202.54 145.807C202.669 146.397 202.79 146.993 202.903 147.594C203.446 150.485 203.215 157.251 203.037 162.443C202.966 164.534 202.903 166.369 202.903 167.594C202.903 205.977 167.44 228.593 120.44 228.593C104.331 228.593 92.0751 225.937 82.9237 220.899C71.4527 217.267 57.4791 209.89 43.1312 200.206C13.7667 180.386 -6.04578 158.404 1.93845 146.575C9.2114 135.8 32.9241 143.264 59.2863 159.661C59.3692 151.607 59.5781 141.267 60.0024 133.59C58.8638 130.288 57.6905 126.392 56.4616 121.806C56.0739 120.359 55.6734 118.871 55.2632 117.347L55.2623 117.343L55.2593 117.332C46.1423 83.4604 32.3014 32.0382 50.1469 27.2566C66.8557 22.7794 78.6005 67.9641 87.3403 101.588C87.7628 103.213 88.1784 104.812 88.5872 106.377Z" fill="white"/>
<path d="M88.5872 106.377L84.717 107.388L86.0288 112.41L90.5508 109.862L88.5872 106.377ZM167.907 105.302L166.301 108.966L171.867 111.406L171.907 105.328L167.907 105.302ZM202.997 122.455L198.997 122.434L198.997 122.444V122.455H202.997ZM202.997 122.455L206.996 122.476L206.997 122.465V122.455H202.997ZM202.54 145.807L198.551 145.51L198.507 146.093L198.632 146.663L202.54 145.807ZM202.903 147.594L206.834 146.856L206.834 146.856L202.903 147.594ZM203.037 162.443L199.039 162.307L199.039 162.307L203.037 162.443ZM120.44 228.593L120.44 224.593H120.44V228.593ZM82.9237 220.899L84.8527 217.395L84.5071 217.204L84.1311 217.085L82.9237 220.899ZM43.1312 200.206L45.369 196.89L45.369 196.89L43.1312 200.206ZM1.93845 146.575L-1.37699 144.337L-1.37699 144.337L1.93845 146.575ZM59.2863 159.661L57.1737 163.057L63.2128 166.813L63.2861 159.702L59.2863 159.661ZM60.0024 133.59L63.9963 133.811L64.0396 133.028L63.7839 132.286L60.0024 133.59ZM56.4616 121.806L52.5979 122.841L52.5979 122.841L56.4616 121.806ZM55.2632 117.347L51.4005 118.386L51.4007 118.386L55.2632 117.347ZM55.2623 117.343L59.125 116.304L59.1247 116.303L55.2623 117.343ZM55.2593 117.332L51.3968 118.372L51.397 118.373L55.2593 117.332ZM50.1469 27.2566L49.1116 23.3929L49.1116 23.3929L50.1469 27.2566ZM87.3403 101.588L83.4689 102.594L83.4689 102.594L87.3403 101.588ZM90.5508 109.862C100.994 103.977 113.885 102.094 131.072 102.094V94.0938C113.492 94.0938 98.9008 95.974 86.6235 102.892L90.5508 109.862ZM131.072 102.094C143.909 102.094 155.981 104.443 166.301 108.966L169.512 101.639C158.045 96.6129 144.857 94.0938 131.072 94.0938V102.094ZM171.907 105.328C172.009 89.4552 172.614 73.2417 175.003 61.0646C176.203 54.946 177.788 50.2121 179.741 47.1021C181.633 44.0886 183.509 43.0938 185.462 43.0938V35.0938C179.836 35.0938 175.754 38.4072 172.966 42.848C170.238 47.1924 168.42 53.059 167.152 59.5247C164.604 72.5163 164.01 89.4071 163.907 105.277L171.907 105.328ZM185.462 43.0938C187.721 43.0938 190.008 44.4753 192.219 48.9733C194.427 53.4646 196.007 60.0894 197.071 68.2006C199.188 84.3517 199.088 104.896 198.997 122.434L206.996 122.476C207.087 105.097 207.205 83.9609 205.003 67.1606C203.906 58.7961 202.192 51.1275 199.399 45.4443C196.609 39.7678 192.188 35.0938 185.462 35.0938V43.0938ZM198.997 122.455V122.455H206.997V122.455H198.997ZM198.997 122.434C198.979 125.788 198.962 129.03 198.962 132.094H206.962C206.962 129.055 206.979 125.834 206.996 122.476L198.997 122.434ZM198.962 132.094C198.962 137.437 198.823 141.856 198.551 145.51L206.529 146.104C206.82 142.191 206.962 137.563 206.962 132.094H198.962ZM198.632 146.663C198.753 147.214 198.866 147.77 198.972 148.332L206.834 146.856C206.714 146.215 206.585 145.58 206.447 144.95L198.632 146.663ZM198.972 148.332C199.163 149.349 199.252 151.397 199.24 154.138C199.228 156.77 199.129 159.698 199.039 162.307L207.035 162.58C207.123 159.996 207.228 156.945 207.24 154.174C207.252 151.511 207.186 148.73 206.834 146.856L198.972 148.332ZM199.039 162.307C198.969 164.364 198.903 166.283 198.903 167.594H206.903C206.903 166.454 206.962 164.703 207.035 162.58L199.039 162.307ZM198.903 167.594C198.903 185.382 190.756 199.459 176.983 209.224C163.094 219.072 143.356 224.593 120.44 224.593L120.44 232.593C144.524 232.593 166.017 226.806 181.61 215.75C197.319 204.612 206.903 188.189 206.903 167.594H198.903ZM120.44 224.593C104.726 224.593 93.209 221.995 84.8527 217.395L80.9946 224.403C90.9412 229.878 103.936 232.593 120.44 232.593V224.593ZM40.8934 203.521C55.406 213.317 69.7377 220.919 81.7163 224.712L84.1311 217.085C73.1676 213.614 59.5522 206.464 45.369 196.89L40.8934 203.521ZM-1.37699 144.337C-4.22709 148.559 -4.38389 153.475 -2.95857 158.293C-1.5571 163.03 1.43872 167.976 5.41595 172.905C13.3922 182.791 26.0468 193.5 40.8934 203.521L45.369 196.89C30.8511 187.091 18.9172 176.899 11.6422 167.882C7.99374 163.36 5.69819 159.354 4.71274 156.023C3.75115 152.773 4.11188 150.505 5.25389 148.813L-1.37699 144.337ZM61.3989 156.264C48.0554 147.965 35.1371 141.764 24.4369 139.051C19.0951 137.697 14.044 137.143 9.65558 137.814C5.17699 138.499 1.20959 140.505 -1.37699 144.337L5.25389 148.813C6.30379 147.257 8.02783 146.156 10.8647 145.722C13.7918 145.274 17.6801 145.591 22.4709 146.806C32.0358 149.231 44.155 154.96 57.1737 163.057L61.3989 156.264ZM63.2861 159.702C63.3689 151.663 63.5771 141.396 63.9963 133.811L56.0085 133.369C55.5791 141.139 55.3696 151.552 55.2865 159.619L63.2861 159.702ZM63.7839 132.286C62.6837 129.096 61.5372 125.293 60.3254 120.771L52.5979 122.841C53.8438 127.491 55.0438 131.481 56.221 134.894L63.7839 132.286ZM60.3254 120.771C59.937 119.321 59.5358 117.831 59.1257 116.307L51.4007 118.386C51.8109 119.911 52.2109 121.397 52.5979 122.841L60.3254 120.771ZM59.1259 116.308L59.125 116.304L51.3996 118.382L51.4005 118.386L59.1259 116.308ZM59.1247 116.303L59.1217 116.292L51.397 118.373L51.3999 118.384L59.1247 116.303ZM59.1219 116.293C54.5449 99.2882 48.8846 78.2329 46.5568 60.8546C45.388 52.1287 45.114 44.6874 46.0735 39.2843C47.05 33.7853 49.0043 31.7038 51.1822 31.1203L49.1116 23.3929C42.3668 25.2001 39.3591 31.3395 38.1967 37.8856C37.0172 44.5275 37.4272 52.9553 38.6276 61.9167C41.0381 79.9129 46.8567 101.505 51.3968 118.372L59.1219 116.293ZM51.1822 31.1203C53.1937 30.5813 55.6021 31.2413 58.7579 34.8761C61.9096 38.5062 65.0195 44.2972 68.0303 51.6501C74.0245 66.2889 79.0786 85.7035 83.4689 102.594L91.2116 100.581C86.8622 83.8481 81.6741 63.8587 75.4337 48.6186C72.3272 41.0321 68.8217 34.2649 64.7988 29.6313C60.78 25.0025 55.4545 21.6933 49.1116 23.3929L51.1822 31.1203ZM83.4689 102.594C83.8914 104.219 84.3076 105.82 84.717 107.388L92.4573 105.366C92.0493 103.804 91.6343 102.207 91.2116 100.581L83.4689 102.594Z" fill="black" mask="url(#path-1-inside-1)"/>
<path d="M134.968 94.5569L134.968 94.5569C134.311 87.0385 135.54 82.3466 137.909 79.4245C140.261 76.5232 144.086 74.9389 149.644 74.4527C154.87 73.9954 158.562 75.6642 161.12 78.6098C163.756 81.6443 165.359 86.2376 165.85 91.8551C166.053 94.1751 166.298 96.6361 166.552 99.1857C167.504 108.767 168.581 119.598 168.035 128.9C167.69 134.785 166.701 139.798 164.779 143.383C162.92 146.851 160.226 148.945 156.192 149.298C152.145 149.652 149.002 148.054 146.398 144.941C143.723 141.742 141.673 136.983 140.1 131.274C137.224 120.838 136.119 107.953 135.217 97.4382C135.133 96.4557 135.05 95.494 134.968 94.5569Z" fill="white" stroke="black" stroke-width="4"/>
<path d="M98.9605 95.6842L98.9605 95.6841C97.6499 88.2517 98.4662 83.4705 100.571 80.353C102.662 77.2577 106.333 75.3462 111.828 74.3774C116.995 73.4663 120.818 74.807 123.623 77.5185C126.513 80.3117 128.51 84.7478 129.49 90.3011C129.894 92.5946 130.352 95.0249 130.827 97.5427C132.611 107.004 134.628 117.701 134.895 127.015C135.064 132.907 134.515 137.987 132.913 141.726C131.363 145.343 128.862 147.664 124.874 148.367C120.874 149.073 117.603 147.755 114.738 144.881C111.794 141.926 109.338 137.364 107.273 131.814C103.498 121.669 101.274 108.929 99.4594 98.5327C99.2898 97.5614 99.1238 96.6105 98.9605 95.6842Z" fill="white" stroke="black" stroke-width="4"/>
</g>
<defs>
<clipPath id="clip0">
<rect width="203.08" height="228.59" fill="white" transform="translate(0.160156)"/>
</clipPath>
</defs>
</svg>
