<svg width="204" height="229" viewBox="0 0 204 229" fill="none" xmlns="http://www.w3.org/2000/svg">
<g clip-path="url(#clip0)">
<mask id="path-1-inside-1" fill="white">
<path fill-rule="evenodd" clip-rule="evenodd" d="M125.467 98.17C125.094 95.3508 124.602 92.2038 123.982 88.6882C123.523 86.0892 123.052 83.3557 122.564 80.5245L122.564 80.5235C116.614 46.0295 108.165 -2.95754 90.5983 0.13996C73.0315 3.23746 81.8466 52.1599 88.0536 86.6084L88.0542 86.6114L88.0552 86.6169C88.5641 89.4417 89.0556 92.1691 89.5135 94.7659C90.189 98.5971 90.8569 101.965 91.5265 104.923C85.4441 107.87 80.0267 111.972 75.0991 117.593C74.3594 118.437 70.7 110.736 67.1126 103.187C63.6183 95.8333 60.1923 88.6234 59.5991 89.5934C58.9079 90.7235 59.6557 106.119 60.1836 116.987C60.4535 122.544 60.6659 126.917 60.599 127.593C59.8732 134.936 59.554 149.22 59.4464 159.661C33.0842 143.264 9.37156 135.8 2.09861 146.575C-5.88563 158.404 13.9269 180.386 43.2914 200.206C57.6393 209.89 71.6128 217.267 83.0838 220.899C92.2353 225.937 104.491 228.593 120.6 228.593C167.6 228.593 203.063 205.977 203.063 167.594C203.063 166.369 203.126 164.534 203.197 162.443C203.375 157.251 203.606 150.485 203.063 147.594C202.95 146.993 202.829 146.397 202.7 145.807C202.981 142.023 203.122 137.5 203.122 132.094C203.122 129.042 203.139 125.811 203.157 122.455V122.455C203.339 87.5384 203.593 39.0938 185.622 39.0938C170.465 39.0938 168.272 73.5599 168.067 105.302C157.173 100.528 144.543 98.0938 131.232 98.0938C129.264 98.0938 127.343 98.1179 125.467 98.17Z"/>
</mask>
<path fill-rule="evenodd" clip-rule="evenodd" d="M125.467 98.17C125.094 95.3508 124.602 92.2038 123.982 88.6882C123.523 86.0892 123.052 83.3557 122.564 80.5245L122.564 80.5235C116.614 46.0295 108.165 -2.95754 90.5983 0.13996C73.0315 3.23746 81.8466 52.1599 88.0536 86.6084L88.0542 86.6114L88.0552 86.6169C88.5641 89.4417 89.0556 92.1691 89.5135 94.7659C90.189 98.5971 90.8569 101.965 91.5265 104.923C85.4441 107.87 80.0267 111.972 75.0991 117.593C74.3594 118.437 70.7 110.736 67.1126 103.187C63.6183 95.8333 60.1923 88.6234 59.5991 89.5934C58.9079 90.7235 59.6557 106.119 60.1836 116.987C60.4535 122.544 60.6659 126.917 60.599 127.593C59.8732 134.936 59.554 149.22 59.4464 159.661C33.0842 143.264 9.37156 135.8 2.09861 146.575C-5.88563 158.404 13.9269 180.386 43.2914 200.206C57.6393 209.89 71.6128 217.267 83.0838 220.899C92.2353 225.937 104.491 228.593 120.6 228.593C167.6 228.593 203.063 205.977 203.063 167.594C203.063 166.369 203.126 164.534 203.197 162.443C203.375 157.251 203.606 150.485 203.063 147.594C202.95 146.993 202.829 146.397 202.7 145.807C202.981 142.023 203.122 137.5 203.122 132.094C203.122 129.042 203.139 125.811 203.157 122.455V122.455C203.339 87.5384 203.593 39.0938 185.622 39.0938C170.465 39.0938 168.272 73.5599 168.067 105.302C157.173 100.528 144.543 98.0938 131.232 98.0938C129.264 98.0938 127.343 98.1179 125.467 98.17Z" fill="white"/>
<path d="M76.8489 116.625L68.7932 102.072L65.2936 104.01L73.3493 118.562L76.8489 116.625ZM123.982 88.6882L127.921 87.9936L127.921 87.9936L123.982 88.6882ZM125.467 98.17L121.501 98.6938L121.973 102.268L125.578 102.168L125.467 98.17ZM122.564 80.5245L126.506 79.8447L126.504 79.8345L126.502 79.8244L122.564 80.5245ZM122.564 80.5235L118.622 81.2033L118.623 81.2135L118.625 81.2236L122.564 80.5235ZM90.5983 0.13996L91.2929 4.07919L90.5983 0.13996ZM88.0536 86.6084L84.117 87.3177L84.1172 87.3187L88.0536 86.6084ZM88.0542 86.6114L84.1178 87.3218L84.1184 87.3255L88.0542 86.6114ZM88.0552 86.6169L91.9918 85.9076L91.9909 85.9028L88.0552 86.6169ZM89.5135 94.7659L85.5742 95.4605L85.5742 95.4605L89.5135 94.7659ZM91.5265 104.923L93.2707 108.523L96.1292 107.138L95.4278 104.04L91.5265 104.923ZM75.0991 117.593L72.0911 114.957L72.0911 114.957L75.0991 117.593ZM67.1126 103.187L63.4998 104.904L63.4998 104.904L67.1126 103.187ZM59.5991 89.5934L63.0114 91.6804L63.0114 91.6804L59.5991 89.5934ZM60.1836 116.987L64.1788 116.792L64.1788 116.792L60.1836 116.987ZM60.599 127.593L64.5796 127.987L64.5796 127.987L60.599 127.593ZM59.4464 159.661L57.3338 163.057L63.373 166.813L63.4462 159.702L59.4464 159.661ZM2.09861 146.575L5.41404 148.813L5.41405 148.813L2.09861 146.575ZM43.2914 200.206L45.5292 196.89L45.5292 196.89L43.2914 200.206ZM83.0838 220.899L85.0129 217.395L84.6673 217.204L84.2912 217.085L83.0838 220.899ZM120.6 228.593L120.6 224.593H120.6V228.593ZM203.197 162.443L199.2 162.307L199.2 162.307L203.197 162.443ZM203.063 147.594L206.994 146.856L206.994 146.856L203.063 147.594ZM202.7 145.807L198.711 145.51L198.667 146.093L198.793 146.663L202.7 145.807ZM203.157 122.455L207.157 122.476L207.157 122.465V122.455H203.157ZM203.157 122.455L199.157 122.434L199.157 122.444V122.455H203.157ZM168.067 105.302L166.461 108.966L172.028 111.406L172.067 105.328L168.067 105.302ZM120.043 89.3828C120.655 92.8549 121.138 95.9436 121.501 98.6938L129.432 97.6461C129.051 94.758 128.549 91.5528 127.921 87.9936L120.043 89.3828ZM118.622 81.2043C119.11 84.0339 119.583 86.7751 120.043 89.3828L127.921 87.9936C127.464 85.4033 126.994 82.6774 126.506 79.8447L118.622 81.2043ZM118.625 81.2236L118.625 81.2246L126.502 79.8244L126.502 79.8233L118.625 81.2236ZM91.2929 4.07919C93.4186 3.70437 95.9044 4.65772 98.9127 8.8679C101.892 13.0375 104.63 19.4589 107.119 27.4276C112.076 43.2952 115.634 63.8811 118.622 81.2033L126.505 79.8436C123.544 62.6718 119.902 41.5173 114.755 25.0422C112.193 16.8396 109.153 9.4391 105.422 4.21692C101.719 -0.964735 96.5614 -4.9732 89.9037 -3.79927L91.2929 4.07919ZM91.9902 85.8991C88.8732 68.5997 85.1756 48.0385 84.4065 31.4325C84.0203 23.0929 84.3969 16.1224 85.7705 11.1852C87.1574 6.20004 89.1672 4.45401 91.2929 4.07919L89.9037 -3.79927C83.246 -2.62534 79.7702 2.90549 78.0632 9.04096C76.3429 15.2244 76.0175 23.2183 76.4151 31.8026C77.2136 49.0443 81.027 70.1685 84.117 87.3177L91.9902 85.8991ZM91.9906 85.9011L91.9901 85.8981L84.1172 87.3187L84.1178 87.3218L91.9906 85.9011ZM91.9909 85.9028L91.9899 85.8974L84.1184 87.3255L84.1194 87.3309L91.9909 85.9028ZM93.4527 94.0713C92.9933 91.4658 92.5005 88.7308 91.9918 85.9076L84.1186 87.3262C84.6278 90.1525 85.1179 92.8724 85.5742 95.4605L93.4527 94.0713ZM95.4278 104.04C94.7756 101.159 94.1199 97.8554 93.4527 94.0713L85.5742 95.4605C86.2581 99.3387 86.9383 102.772 87.6253 105.806L95.4278 104.04ZM78.1072 120.23C82.6952 114.996 87.6874 111.228 93.2707 108.523L89.7823 101.323C83.2009 104.512 77.3581 108.948 72.0911 114.957L78.1072 120.23ZM63.4998 104.904C65.28 108.65 67.1318 112.549 68.6348 115.402C69.3719 116.801 70.1077 118.109 70.763 119.049C71.0504 119.461 71.5315 120.113 72.1679 120.63C72.4573 120.866 73.1769 121.409 74.2411 121.594C75.6475 121.839 77.1173 121.359 78.1072 120.23L72.0911 114.957C72.9885 113.933 74.343 113.492 75.6127 113.713C76.5404 113.874 77.102 114.332 77.2135 114.422C77.4943 114.65 77.54 114.781 77.3243 114.471C76.9733 113.968 76.4313 113.037 75.7127 111.673C74.3042 109 72.5326 105.273 70.7255 101.47L63.4998 104.904ZM63.0114 91.6804C62.4602 92.5817 61.2933 93.5414 59.6526 93.5044C58.452 93.4773 57.6897 92.9036 57.5396 92.7904C57.158 92.5024 57.0522 92.2789 57.2576 92.5717C57.5582 93 58.0507 93.8432 58.7276 95.1305C60.0486 97.6425 61.7389 101.198 63.4998 104.904L70.7255 101.47C68.9921 97.8222 67.2222 94.0959 65.8083 91.4071C65.1178 90.094 64.4241 88.857 63.8062 87.9765C63.5524 87.6148 63.0544 86.9297 62.3582 86.4044C62.0508 86.1725 61.1507 85.5361 59.833 85.5064C58.0753 85.4668 56.8121 86.4839 56.1867 87.5064L63.0114 91.6804ZM64.1788 116.792C63.9144 111.349 63.5975 104.821 63.4322 99.5139C63.3494 96.8546 63.3064 94.5514 63.3243 92.8646C63.3334 92.0131 63.3575 91.3849 63.391 90.9728C63.4081 90.7617 63.4222 90.6793 63.421 90.6854C63.4203 90.6893 63.4063 90.7683 63.3687 90.8932C63.3412 90.9849 63.2434 91.3011 63.0114 91.6804L56.1867 87.5064C55.7215 88.2669 55.5876 89.0485 55.5508 89.2504C55.485 89.6115 55.4447 89.9863 55.4172 90.3256C55.3613 91.0141 55.3346 91.859 55.3248 92.7796C55.305 94.6369 55.3524 97.0737 55.4361 99.7629C55.6039 105.153 55.9248 111.756 56.1883 117.181L64.1788 116.792ZM64.5796 127.987C64.626 127.517 64.6116 126.837 64.599 126.333C64.5835 125.706 64.5536 124.896 64.5141 123.953C64.4349 122.064 64.3135 119.566 64.1788 116.792L56.1883 117.181C56.3235 119.964 56.4433 122.431 56.5211 124.288C56.5601 125.217 56.5876 125.974 56.6015 126.532C56.6184 127.211 56.6054 127.331 56.6184 127.2L64.5796 127.987ZM63.4462 159.702C63.5541 149.227 63.8742 135.123 64.5796 127.987L56.6184 127.2C55.8722 134.75 55.5538 149.213 55.4466 159.619L63.4462 159.702ZM61.559 156.264C48.2155 147.965 35.2973 141.764 24.597 139.051C19.2553 137.697 14.2041 137.143 9.81574 137.814C5.33714 138.499 1.36974 140.505 -1.21683 144.337L5.41405 148.813C6.46395 147.257 8.18799 146.156 11.0249 145.722C13.9519 145.274 17.8403 145.591 22.6311 146.806C32.1959 149.231 44.3151 154.96 57.3338 163.057L61.559 156.264ZM-1.21683 144.337C-4.06694 148.559 -4.22374 153.475 -2.79841 158.293C-1.39694 163.03 1.59887 167.976 5.5761 172.905C13.5524 182.791 26.2069 193.5 41.0535 203.521L45.5292 196.89C31.0113 187.091 19.0774 176.899 11.8023 167.882C8.1539 163.36 5.85835 159.354 4.8729 156.023C3.91131 152.773 4.27204 150.505 5.41404 148.813L-1.21683 144.337ZM41.0535 203.521C55.5662 213.317 69.8979 220.919 81.8764 224.712L84.2912 217.085C73.3278 213.614 59.7123 206.464 45.5292 196.89L41.0535 203.521ZM120.6 224.593C104.886 224.593 93.3692 221.995 85.0129 217.395L81.1548 224.403C91.1013 229.878 104.096 232.593 120.6 232.593V224.593ZM199.063 167.594C199.063 185.382 190.916 199.459 177.143 209.224C163.254 219.072 143.516 224.593 120.6 224.593L120.6 232.593C144.684 232.593 166.178 226.806 181.77 215.75C197.479 204.612 207.063 188.189 207.063 167.594H199.063ZM199.2 162.307C199.129 164.364 199.063 166.283 199.063 167.594H207.063C207.063 166.454 207.122 164.703 207.195 162.58L199.2 162.307ZM199.132 148.332C199.323 149.349 199.413 151.397 199.4 154.138C199.388 156.77 199.289 159.698 199.2 162.307L207.195 162.58C207.283 159.996 207.388 156.945 207.4 154.174C207.412 151.511 207.346 148.73 206.994 146.856L199.132 148.332ZM198.793 146.663C198.913 147.214 199.026 147.77 199.132 148.332L206.994 146.856C206.874 146.215 206.745 145.58 206.607 144.95L198.793 146.663ZM199.122 132.094C199.122 137.437 198.983 141.856 198.711 145.51L206.689 146.104C206.98 142.191 207.122 137.563 207.122 132.094H199.122ZM199.157 122.434C199.139 125.788 199.122 129.03 199.122 132.094H207.122C207.122 129.055 207.139 125.834 207.157 122.476L199.157 122.434ZM199.157 122.455V122.455H207.157V122.455H199.157ZM185.622 43.0938C187.881 43.0938 190.168 44.4753 192.379 48.9733C194.587 53.4646 196.167 60.0894 197.231 68.2006C199.348 84.3517 199.248 104.896 199.157 122.434L207.157 122.476C207.248 105.097 207.366 83.9609 205.163 67.1606C204.066 58.7961 202.352 51.1275 199.559 45.4443C196.769 39.7678 192.349 35.0938 185.622 35.0938V43.0938ZM172.067 105.328C172.17 89.4552 172.774 73.2417 175.163 61.0646C176.363 54.946 177.948 50.2121 179.901 47.1021C181.793 44.0886 183.669 43.0938 185.622 43.0938V35.0938C179.996 35.0938 175.914 38.4072 173.126 42.848C170.398 47.1924 168.581 53.059 167.312 59.5247C164.764 72.5163 164.17 89.4071 164.067 105.277L172.067 105.328ZM131.232 102.094C144.069 102.094 156.141 104.443 166.461 108.966L169.673 101.639C158.205 96.6129 145.017 94.0938 131.232 94.0938V102.094ZM125.578 102.168C127.413 102.118 129.297 102.094 131.232 102.094V94.0938C129.232 94.0938 127.273 94.1183 125.356 94.1715L125.578 102.168Z" fill="black" mask="url(#path-1-inside-1)"/>
<path d="M62.8499 96.6156L62.8499 96.6156C60.8965 89.3257 61.293 84.4914 63.1185 81.2024C64.931 77.9367 68.422 75.7124 73.8111 74.2684C78.8791 72.9105 82.8043 73.9129 85.8353 76.3695C88.9577 78.9003 91.3342 83.1454 92.7936 88.5922C93.3964 90.8417 94.0648 93.2229 94.7572 95.6897C97.3591 104.96 100.301 115.44 101.378 124.695C102.06 130.551 101.956 135.659 100.686 139.523C99.4577 143.262 97.1682 145.792 93.2565 146.84C89.3328 147.891 85.9598 146.864 82.8556 144.25C79.6653 141.563 76.8203 137.232 74.2794 131.883C69.635 122.106 66.3092 109.608 63.5952 99.4098C63.3416 98.457 63.0934 97.5242 62.8499 96.6156Z" fill="white" stroke="black" stroke-width="4"/>
<path d="M135.129 94.5569L135.129 94.5569C134.471 87.0385 135.701 82.3466 138.069 79.4245C140.422 76.5232 144.246 74.9389 149.804 74.4527C155.031 73.9954 158.722 75.6642 161.28 78.6098C163.916 81.6443 165.519 86.2376 166.011 91.8551C166.214 94.1751 166.458 96.6361 166.712 99.1857C167.664 108.767 168.742 119.598 168.195 128.9C167.85 134.785 166.861 139.798 164.939 143.383C163.08 146.851 160.386 148.945 156.352 149.298C152.305 149.652 149.162 148.054 146.559 144.941C143.883 141.742 141.834 136.983 140.26 131.274C137.384 120.838 136.279 107.953 135.377 97.4382C135.293 96.4557 135.21 95.494 135.129 94.5569Z" fill="white" stroke="black" stroke-width="4"/>
</g>
<defs>
<clipPath id="clip0">
<rect width="203.08" height="228.59" fill="white" transform="translate(0.320312)"/>
</clipPath>
</defs>
</svg>
