<svg width="204" height="229" viewBox="0 0 204 229" fill="none" xmlns="http://www.w3.org/2000/svg">
<g clip-path="url(#clip0)">
<mask id="path-1-inside-1" fill="white">
<path fill-rule="evenodd" clip-rule="evenodd" d="M125.627 98.17C125.254 95.3508 124.762 92.2038 124.142 88.6882C123.684 86.0892 123.212 83.3557 122.724 80.5245L122.724 80.5235C116.774 46.0295 108.325 -2.95754 90.7585 0.13996C73.1917 3.23746 82.0067 52.1599 88.2138 86.6084L88.2143 86.6114L88.2153 86.6169L88.217 86.6262C88.7254 89.4477 89.2162 92.172 89.6736 94.7659C90.3492 98.5971 91.0171 101.965 91.6867 104.923C90.7446 105.379 89.8184 105.864 88.9075 106.377C88.4987 104.812 88.0832 103.213 87.6606 101.588C78.9209 67.9641 67.176 22.7794 50.4672 27.2566C32.6218 32.0382 46.4626 83.4604 55.5797 117.332C55.9912 118.861 56.393 120.354 56.782 121.806C58.0108 126.392 59.1841 130.288 60.3227 133.59C59.8984 141.267 59.6895 151.607 59.6066 159.661C33.2444 143.264 9.53172 135.8 2.25876 146.575C-5.72547 158.404 14.087 180.386 43.4515 200.206C57.7994 209.89 71.773 217.267 83.244 220.899C92.3954 225.937 104.651 228.593 120.76 228.593C167.76 228.593 203.223 205.977 203.223 167.594C203.223 166.369 203.286 164.534 203.357 162.443C203.535 157.251 203.766 150.485 203.223 147.594C203.111 146.993 202.989 146.397 202.86 145.807C203.142 142.023 203.282 137.5 203.282 132.094C203.282 129.042 203.299 125.811 203.317 122.455V122.455C203.499 87.5384 203.753 39.0938 185.782 39.0938C170.625 39.0938 168.432 73.5599 168.227 105.302C157.333 100.528 144.703 98.0938 131.393 98.0938C129.425 98.0938 127.503 98.1179 125.627 98.17Z"/>
</mask>
<path fill-rule="evenodd" clip-rule="evenodd" d="M125.627 98.17C125.254 95.3508 124.762 92.2038 124.142 88.6882C123.684 86.0892 123.212 83.3557 122.724 80.5245L122.724 80.5235C116.774 46.0295 108.325 -2.95754 90.7585 0.13996C73.1917 3.23746 82.0067 52.1599 88.2138 86.6084L88.2143 86.6114L88.2153 86.6169L88.217 86.6262C88.7254 89.4477 89.2162 92.172 89.6736 94.7659C90.3492 98.5971 91.0171 101.965 91.6867 104.923C90.7446 105.379 89.8184 105.864 88.9075 106.377C88.4987 104.812 88.0832 103.213 87.6606 101.588C78.9209 67.9641 67.176 22.7794 50.4672 27.2566C32.6218 32.0382 46.4626 83.4604 55.5797 117.332C55.9912 118.861 56.393 120.354 56.782 121.806C58.0108 126.392 59.1841 130.288 60.3227 133.59C59.8984 141.267 59.6895 151.607 59.6066 159.661C33.2444 143.264 9.53172 135.8 2.25876 146.575C-5.72547 158.404 14.087 180.386 43.4515 200.206C57.7994 209.89 71.773 217.267 83.244 220.899C92.3954 225.937 104.651 228.593 120.76 228.593C167.76 228.593 203.223 205.977 203.223 167.594C203.223 166.369 203.286 164.534 203.357 162.443C203.535 157.251 203.766 150.485 203.223 147.594C203.111 146.993 202.989 146.397 202.86 145.807C203.142 142.023 203.282 137.5 203.282 132.094C203.282 129.042 203.299 125.811 203.317 122.455V122.455C203.499 87.5384 203.753 39.0938 185.782 39.0938C170.625 39.0938 168.432 73.5599 168.227 105.302C157.333 100.528 144.703 98.0938 131.393 98.0938C129.425 98.0938 127.503 98.1179 125.627 98.17Z" fill="white"/>
<path d="M125.627 98.17L121.661 98.6938L122.133 102.268L125.738 102.168L125.627 98.17ZM124.142 88.6882L128.081 87.9936L128.081 87.9936L124.142 88.6882ZM122.724 80.5245L126.666 79.8447L126.664 79.8345L126.662 79.8244L122.724 80.5245ZM122.724 80.5235L118.782 81.2033L118.784 81.2135L118.785 81.2236L122.724 80.5235ZM90.7585 0.13996L91.4531 4.07919L90.7585 0.13996ZM88.2138 86.6084L84.2772 87.3177L84.2774 87.3187L88.2138 86.6084ZM88.2143 86.6114L84.2779 87.3218L84.2786 87.3255L88.2143 86.6114ZM88.2153 86.6169L92.1514 85.9047L92.1511 85.9028L88.2153 86.6169ZM88.217 86.6262L92.1536 85.9169L92.1531 85.9141L88.217 86.6262ZM89.6736 94.7659L85.7344 95.4605L85.7344 95.4605L89.6736 94.7659ZM91.6867 104.923L93.4309 108.523L96.2893 107.138L95.588 104.04L91.6867 104.923ZM88.9075 106.377L85.0373 107.388L86.3492 112.41L90.8711 109.862L88.9075 106.377ZM87.6606 101.588L83.7892 102.594L83.7892 102.594L87.6606 101.588ZM50.4672 27.2566L49.4319 23.3929L49.4319 23.3929L50.4672 27.2566ZM55.5797 117.332L51.7171 118.372L51.7171 118.372L55.5797 117.332ZM56.782 121.806L60.6457 120.771L60.6457 120.771L56.782 121.806ZM60.3227 133.59L64.3166 133.811L64.3599 133.028L64.1042 132.286L60.3227 133.59ZM59.6066 159.661L57.494 163.057L63.5331 166.813L63.6064 159.702L59.6066 159.661ZM2.25876 146.575L5.5742 148.813L5.5742 148.813L2.25876 146.575ZM43.4515 200.206L45.6893 196.89L45.6893 196.89L43.4515 200.206ZM83.244 220.899L85.173 217.395L84.8275 217.204L84.4514 217.085L83.244 220.899ZM120.76 228.593L120.76 224.593H120.76V228.593ZM203.357 162.443L199.36 162.307L199.36 162.307L203.357 162.443ZM203.223 147.594L207.155 146.856L207.155 146.856L203.223 147.594ZM202.86 145.807L198.871 145.51L198.828 146.093L198.953 146.663L202.86 145.807ZM203.317 122.455L207.317 122.476L207.317 122.465V122.455H203.317ZM203.317 122.455L199.317 122.434L199.317 122.444V122.455H203.317ZM168.227 105.302L166.621 108.966L172.188 111.406L172.227 105.328L168.227 105.302ZM129.592 97.6461C129.211 94.758 128.709 91.5528 128.081 87.9936L120.203 89.3828C120.815 92.8549 121.298 95.9436 121.661 98.6938L129.592 97.6461ZM128.081 87.9936C127.624 85.4033 127.154 82.6774 126.666 79.8447L118.782 81.2043C119.27 84.0339 119.743 86.7751 120.203 89.3828L128.081 87.9936ZM126.662 79.8244L126.662 79.8233L118.785 81.2236L118.786 81.2246L126.662 79.8244ZM126.665 79.8436C123.704 62.6718 120.062 41.5173 114.916 25.0422C112.353 16.8396 109.313 9.4391 105.582 4.21692C101.879 -0.964735 96.7216 -4.9732 90.0639 -3.79927L91.4531 4.07919C93.5788 3.70437 96.0645 4.65772 99.0728 8.8679C102.052 13.0375 104.79 19.4589 107.28 27.4276C112.236 43.2952 115.794 63.8811 118.782 81.2033L126.665 79.8436ZM90.0639 -3.79927C83.4062 -2.62534 79.9303 2.90549 78.2234 9.04096C76.5031 15.2244 76.1777 23.2183 76.5752 31.8026C77.3737 49.0443 81.1872 70.1685 84.2772 87.3177L92.1504 85.8991C89.0333 68.5997 85.3357 48.0385 84.5667 31.4325C84.1804 23.0929 84.5571 16.1224 85.9307 11.1852C87.3176 6.20004 89.3274 4.45401 91.4531 4.07919L90.0639 -3.79927ZM84.2774 87.3187L84.2779 87.3218L92.1508 85.9011L92.1502 85.8981L84.2774 87.3187ZM84.2786 87.3255L84.2796 87.3309L92.1511 85.9028L92.1501 85.8974L84.2786 87.3255ZM84.2792 87.329L84.2809 87.3384L92.1531 85.9141L92.1514 85.9047L84.2792 87.329ZM84.2804 87.3355C84.7891 90.1586 85.2785 92.8753 85.7344 95.4605L93.6129 94.0713C93.1539 91.4687 92.6617 88.7368 92.1536 85.9169L84.2804 87.3355ZM85.7344 95.4605C86.4182 99.3387 87.0984 102.772 87.7854 105.806L95.588 104.04C94.9357 101.159 94.2801 97.8554 93.6129 94.0713L85.7344 95.4605ZM90.8711 109.862C91.7089 109.39 92.5619 108.944 93.4309 108.523L89.9425 101.323C88.9272 101.815 87.9278 102.338 86.9438 102.892L90.8711 109.862ZM83.7892 102.594C84.2117 104.219 84.6279 105.82 85.0373 107.388L92.7776 105.366C92.3696 103.804 91.9546 102.207 91.5319 100.581L83.7892 102.594ZM51.5025 31.1203C53.514 30.5813 55.9224 31.2413 59.0782 34.8761C62.2299 38.5062 65.3398 44.2972 68.3506 51.6501C74.3448 66.2889 79.3989 85.7035 83.7892 102.594L91.5319 100.581C87.1825 83.8481 81.9944 63.8587 75.754 48.6186C72.6475 41.0321 69.1421 34.2649 65.1191 29.6313C61.1003 25.0025 55.7748 21.6933 49.4319 23.3929L51.5025 31.1203ZM59.4422 116.293C54.8652 99.2883 49.2049 78.2329 46.8771 60.8546C45.7083 52.1287 45.4343 44.6874 46.3938 39.2843C47.3703 33.7853 49.3246 31.7038 51.5025 31.1203L49.4319 23.3929C42.6871 25.2001 39.6795 31.3395 38.517 37.8856C37.3375 44.5275 37.7476 52.9553 38.9479 61.9167C41.3585 79.9129 47.1771 101.505 51.7171 118.372L59.4422 116.293ZM60.6457 120.771C60.2561 119.317 59.8536 117.821 59.4422 116.293L51.7171 118.372C52.1287 119.901 52.53 121.392 52.9183 122.841L60.6457 120.771ZM64.1042 132.286C63.004 129.096 61.8575 125.293 60.6457 120.771L52.9183 122.841C54.1641 127.491 55.3641 131.481 56.5413 134.894L64.1042 132.286ZM63.6064 159.702C63.6892 151.663 63.8975 141.396 64.3166 133.811L56.3288 133.369C55.8994 141.139 55.6899 151.552 55.6068 159.619L63.6064 159.702ZM61.7192 156.264C48.3757 147.965 35.4574 141.764 24.7572 139.051C19.4154 137.697 14.3643 137.143 9.97589 137.814C5.4973 138.499 1.5299 140.505 -1.05668 144.337L5.5742 148.813C6.6241 147.257 8.34815 146.156 11.185 145.722C14.1121 145.274 18.0004 145.591 22.7912 146.806C32.3561 149.231 44.4753 154.96 57.494 163.057L61.7192 156.264ZM-1.05667 144.337C-3.90678 148.559 -4.06358 153.475 -2.63825 158.293C-1.23678 163.03 1.75903 167.976 5.73626 172.905C13.7125 182.791 26.3671 193.5 41.2137 203.521L45.6893 196.89C31.1714 187.091 19.2375 176.899 11.9625 167.882C8.31405 163.36 6.0185 159.354 5.03306 156.023C4.07146 152.773 4.43219 150.505 5.5742 148.813L-1.05667 144.337ZM41.2137 203.521C55.7263 213.317 70.058 220.919 82.0366 224.712L84.4514 217.085C73.488 213.614 59.8725 206.464 45.6893 196.89L41.2137 203.521ZM120.76 224.593C105.046 224.593 93.5294 221.995 85.173 217.395L81.315 224.403C91.2615 229.878 104.256 232.593 120.76 232.593V224.593ZM199.223 167.594C199.223 185.382 191.076 199.459 177.303 209.224C163.414 219.072 143.676 224.593 120.76 224.593L120.76 232.593C144.844 232.593 166.338 226.806 181.93 215.75C197.639 204.612 207.223 188.189 207.223 167.594H199.223ZM199.36 162.307C199.289 164.364 199.223 166.283 199.223 167.594H207.223C207.223 166.454 207.283 164.703 207.355 162.58L199.36 162.307ZM199.292 148.332C199.483 149.349 199.573 151.397 199.56 154.138C199.549 156.77 199.449 159.698 199.36 162.307L207.355 162.58C207.443 159.996 207.548 156.945 207.56 154.174C207.572 151.511 207.506 148.73 207.155 146.856L199.292 148.332ZM198.953 146.663C199.073 147.214 199.187 147.77 199.292 148.332L207.155 146.856C207.034 146.215 206.905 145.58 206.767 144.95L198.953 146.663ZM206.849 146.104C207.14 142.191 207.282 137.563 207.282 132.094H199.282C199.282 137.437 199.143 141.856 198.871 145.51L206.849 146.104ZM207.282 132.094C207.282 129.055 207.299 125.834 207.317 122.476L199.317 122.434C199.299 125.788 199.282 129.03 199.282 132.094H207.282ZM207.317 122.455V122.455H199.317V122.455H207.317ZM207.317 122.476C207.408 105.097 207.526 83.9609 205.323 67.1606C204.226 58.7961 202.512 51.1275 199.719 45.4443C196.929 39.7678 192.509 35.0938 185.782 35.0938V43.0938C188.041 43.0938 190.328 44.4753 192.539 48.9733C194.747 53.4646 196.328 60.0894 197.391 68.2006C199.509 84.3517 199.409 104.896 199.317 122.434L207.317 122.476ZM185.782 35.0938C180.157 35.0938 176.074 38.4072 173.286 42.848C170.558 47.1924 168.741 53.059 167.472 59.5247C164.924 72.5163 164.33 89.4071 164.227 105.277L172.227 105.328C172.33 89.4552 172.934 73.2417 175.323 61.0646C176.523 54.946 178.108 50.2121 180.061 47.1021C181.953 44.0886 183.829 43.0938 185.782 43.0938V35.0938ZM131.393 102.094C144.229 102.094 156.301 104.443 166.621 108.966L169.833 101.639C158.365 96.6129 145.177 94.0938 131.393 94.0938V102.094ZM125.738 102.168C127.573 102.118 129.457 102.094 131.393 102.094V94.0938C129.392 94.0938 127.433 94.1183 125.516 94.1715L125.738 102.168Z" fill="black" mask="url(#path-1-inside-1)"/>
<path d="M135.289 94.5569L135.289 94.5569C134.631 87.0385 135.861 82.3466 138.23 79.4245C140.582 76.5232 144.406 74.9389 149.964 74.4527C155.191 73.9954 158.882 75.6642 161.441 78.6098C164.076 81.6443 165.679 86.2376 166.171 91.8551C166.374 94.1751 166.618 96.6361 166.872 99.1857C167.825 108.767 168.902 119.598 168.356 128.9C168.01 134.785 167.021 139.798 165.1 143.383C163.24 146.851 160.546 148.945 156.512 149.298C152.465 149.652 149.322 148.054 146.719 144.941C144.044 141.742 141.994 136.983 140.42 131.274C137.544 120.838 136.439 107.953 135.537 97.4382C135.453 96.4557 135.371 95.494 135.289 94.5569Z" fill="white" stroke="black" stroke-width="4"/>
</g>
<defs>
<clipPath id="clip0">
<rect width="203.08" height="228.59" fill="white" transform="translate(0.480469)"/>
</clipPath>
</defs>
</svg>
