<svg width="204" height="229" viewBox="0 0 204 229" fill="none" xmlns="http://www.w3.org/2000/svg">
<g clip-path="url(#clip0)">
<mask id="path-1-inside-1" fill="white">
<path fill-rule="evenodd" clip-rule="evenodd" d="M74.7788 117.593C88.1197 102.373 105.051 98.2958 129.049 98.1012C128.752 94.8531 128.419 91.4316 128.075 87.8958C124.724 53.474 120.319 8.22159 137.75 6.69651C156.268 5.07641 160.617 56.1981 163.59 91.1367C163.783 93.3998 163.969 95.595 164.154 97.7035C164.351 99.9551 164.506 102.055 164.621 104.015C165.678 104.423 166.72 104.852 167.747 105.302C167.952 73.5599 170.144 39.0938 185.302 39.0938C203.272 39.0938 203.019 87.5384 202.836 122.455V122.455C202.819 125.811 202.802 129.042 202.802 132.094C202.802 137.5 202.661 142.023 202.379 145.807C202.509 146.397 202.63 146.993 202.743 147.594C203.286 150.485 203.054 157.251 202.877 162.443C202.806 164.534 202.743 166.369 202.743 167.594C202.743 205.977 167.28 228.593 120.28 228.593C99.1603 228.593 84.6639 224.027 75.1028 215.515C66.1584 208.795 56.3614 199.089 46.7693 187.657C23.9969 160.518 11.0024 133.931 21.935 124.757C29.6604 118.275 43.8746 125.069 59.5849 139.189C59.7583 134.665 59.9853 130.562 60.2787 127.593C60.3456 126.917 60.1332 122.544 59.8633 116.987L59.8632 116.987C59.3354 106.119 58.5876 90.7235 59.2788 89.5934C59.872 88.6234 63.298 95.8333 66.7923 103.187C70.3797 110.736 74.0391 118.437 74.7788 117.593Z"/>
</mask>
<path fill-rule="evenodd" clip-rule="evenodd" d="M74.7788 117.593C88.1197 102.373 105.051 98.2958 129.049 98.1012C128.752 94.8531 128.419 91.4316 128.075 87.8958C124.724 53.474 120.319 8.22159 137.75 6.69651C156.268 5.07641 160.617 56.1981 163.59 91.1367C163.783 93.3998 163.969 95.595 164.154 97.7035C164.351 99.9551 164.506 102.055 164.621 104.015C165.678 104.423 166.72 104.852 167.747 105.302C167.952 73.5599 170.144 39.0938 185.302 39.0938C203.272 39.0938 203.019 87.5384 202.836 122.455V122.455C202.819 125.811 202.802 129.042 202.802 132.094C202.802 137.5 202.661 142.023 202.379 145.807C202.509 146.397 202.63 146.993 202.743 147.594C203.286 150.485 203.054 157.251 202.877 162.443C202.806 164.534 202.743 166.369 202.743 167.594C202.743 205.977 167.28 228.593 120.28 228.593C99.1603 228.593 84.6639 224.027 75.1028 215.515C66.1584 208.795 56.3614 199.089 46.7693 187.657C23.9969 160.518 11.0024 133.931 21.935 124.757C29.6604 118.275 43.8746 125.069 59.5849 139.189C59.7583 134.665 59.9853 130.562 60.2787 127.593C60.3456 126.917 60.1332 122.544 59.8633 116.987L59.8632 116.987C59.3354 106.119 58.5876 90.7235 59.2788 89.5934C59.872 88.6234 63.298 95.8333 66.7923 103.187C70.3797 110.736 74.0391 118.437 74.7788 117.593Z" fill="white"/>
<path d="M76.5286 116.625L68.4728 102.072L64.9733 104.01L73.029 118.562L76.5286 116.625ZM129.049 98.1012L129.082 102.101L133.429 102.066L133.033 97.7368L129.049 98.1012ZM74.7788 117.593L71.7708 114.957L71.7708 114.957L74.7788 117.593ZM128.075 87.8958L124.094 88.2834L124.094 88.2834L128.075 87.8958ZM137.75 6.69651L138.099 10.6813L138.099 10.6813L137.75 6.69651ZM163.59 91.1367L167.576 90.7976L167.576 90.7976L163.59 91.1367ZM164.154 97.7035L160.169 98.0522L160.169 98.0522L164.154 97.7035ZM164.621 104.015L160.628 104.25L160.779 106.819L163.18 107.746L164.621 104.015ZM167.747 105.302L166.141 108.966L171.707 111.406L171.747 105.328L167.747 105.302ZM202.836 122.455L198.836 122.434L198.836 122.444V122.455H202.836ZM202.836 122.455L206.836 122.476L206.836 122.465V122.455H202.836ZM202.379 145.807L198.39 145.51L198.347 146.093L198.472 146.663L202.379 145.807ZM202.743 147.594L206.674 146.856L206.674 146.856L202.743 147.594ZM202.877 162.443L198.879 162.307L198.879 162.307L202.877 162.443ZM120.28 228.593L120.28 224.593H120.28V228.593ZM75.1028 215.515L77.7625 212.527L77.6384 212.417L77.5055 212.317L75.1028 215.515ZM46.7693 187.657L49.8334 185.086L49.8334 185.086L46.7693 187.657ZM21.935 124.757L24.5061 127.822L24.5061 127.822L21.935 124.757ZM59.5849 139.189L56.911 142.164L63.2553 147.866L63.582 139.342L59.5849 139.189ZM60.2787 127.593L56.2981 127.2L56.2981 127.2L60.2787 127.593ZM59.8633 116.987L63.8586 116.793L63.8576 116.772L63.8564 116.752L59.8633 116.987ZM59.8632 116.987L55.8679 117.181L55.8689 117.201L55.8701 117.221L59.8632 116.987ZM59.2788 89.5934L62.6911 91.6804L62.6911 91.6804L59.2788 89.5934ZM66.7923 103.187L70.4051 101.47L70.4051 101.47L66.7923 103.187ZM129.017 94.1013C104.598 94.2994 86.2346 98.4553 71.7708 114.957L77.7869 120.23C90.0049 106.291 105.505 102.292 129.082 102.101L129.017 94.1013ZM124.094 88.2834C124.438 91.8216 124.77 95.2312 125.066 98.4656L133.033 97.7368C132.734 94.475 132.4 91.0415 132.056 87.5082L124.094 88.2834ZM137.402 2.71173C130.886 3.28173 126.95 8.04142 124.696 13.7088C122.457 19.3398 121.457 26.7576 121.123 34.7933C120.45 50.9353 122.427 71.1573 124.094 88.2834L132.056 87.5082C130.372 70.2125 128.471 50.5974 129.116 35.1264C129.439 27.3557 130.397 21.0231 132.13 16.6646C133.849 12.3426 135.898 10.8738 138.099 10.6813L137.402 2.71173ZM167.576 90.7976C166.096 73.4037 164.248 51.5982 160.404 34.3376C158.49 25.7427 156.007 17.9089 152.614 12.2396C149.242 6.60401 144.298 2.10837 137.402 2.71174L138.099 10.6813C140.461 10.4746 143.005 11.7616 145.749 16.3475C148.473 20.8997 150.735 27.7263 152.595 36.0766C156.299 52.7064 158.112 73.9311 159.605 91.4758L167.576 90.7976ZM168.139 97.3549C167.955 95.2519 167.768 93.0616 167.576 90.7976L159.605 91.4758C159.797 93.7379 159.984 95.938 160.169 98.0522L168.139 97.3549ZM168.615 103.78C168.497 101.778 168.339 99.6393 168.139 97.3549L160.169 98.0522C160.363 100.271 160.516 102.333 160.628 104.25L168.615 103.78ZM169.352 101.639C168.271 101.165 167.174 100.713 166.063 100.284L163.18 107.746C164.182 108.133 165.169 108.54 166.141 108.966L169.352 101.639ZM185.302 35.0938C179.676 35.0938 175.594 38.4072 172.806 42.848C170.078 47.1924 168.26 53.059 166.992 59.5247C164.444 72.5163 163.849 89.4071 163.747 105.277L171.747 105.328C171.849 89.4552 172.454 73.2417 174.842 61.0646C176.043 54.946 177.628 50.2121 179.581 47.1021C181.473 44.0886 183.349 43.0938 185.302 43.0938V35.0938ZM206.836 122.476C206.927 105.097 207.045 83.9609 204.843 67.1606C203.746 58.7961 202.032 51.1275 199.238 45.4443C196.448 39.7678 192.028 35.0938 185.302 35.0938V43.0938C187.561 43.0938 189.848 44.4753 192.059 48.9733C194.266 53.4646 195.847 60.0894 196.911 68.2006C199.028 84.3517 198.928 104.896 198.836 122.434L206.836 122.476ZM206.836 122.455V122.455H198.836V122.455H206.836ZM206.802 132.094C206.802 129.055 206.819 125.834 206.836 122.476L198.836 122.434C198.819 125.788 198.802 129.03 198.802 132.094H206.802ZM206.368 146.104C206.66 142.191 206.802 137.563 206.802 132.094H198.802C198.802 137.437 198.662 141.856 198.39 145.51L206.368 146.104ZM206.674 146.856C206.554 146.215 206.425 145.58 206.287 144.95L198.472 146.663C198.593 147.214 198.706 147.77 198.812 148.332L206.674 146.856ZM206.875 162.58C206.963 159.996 207.067 156.945 207.08 154.174C207.092 151.511 207.026 148.73 206.674 146.856L198.812 148.332C199.002 149.349 199.092 151.397 199.08 154.138C199.068 156.77 198.968 159.698 198.879 162.307L206.875 162.58ZM206.743 167.594C206.743 166.454 206.802 164.703 206.875 162.58L198.879 162.307C198.809 164.364 198.743 166.283 198.743 167.594H206.743ZM120.28 232.593C144.364 232.593 165.857 226.806 181.45 215.75C197.159 204.612 206.743 188.189 206.743 167.594H198.743C198.743 185.382 190.596 199.459 176.823 209.224C162.934 219.072 143.196 224.593 120.28 224.593L120.28 232.593ZM72.4431 218.503C83.0286 227.926 98.6575 232.593 120.28 232.593V224.593C99.663 224.593 86.2991 220.127 77.7625 212.527L72.4431 218.503ZM77.5055 212.317C68.881 205.837 59.3023 196.371 49.8334 185.086L43.7051 190.228C53.4205 201.807 63.4358 211.752 72.7001 218.713L77.5055 212.317ZM49.8334 185.086C38.5747 171.668 29.9083 158.584 25.3971 147.913C23.1347 142.561 22.0309 138.078 22.0006 134.604C21.9711 131.215 22.9424 129.134 24.5061 127.822L19.3638 121.693C15.4613 124.968 13.9572 129.65 14.0009 134.674C14.044 139.614 15.5622 145.194 18.0284 151.028C22.9744 162.728 32.1914 176.507 43.7051 190.228L49.8334 185.086ZM24.5061 127.822C26.662 126.013 30.2825 125.507 36.2505 127.949C42.1213 130.352 49.2051 135.238 56.911 142.164L62.2588 136.214C54.2544 129.02 46.376 123.449 39.2807 120.545C32.2827 117.681 24.9334 117.02 19.3638 121.693L24.5061 127.822ZM56.2981 127.2C55.9925 130.292 55.762 134.492 55.5878 139.036L63.582 139.342C63.7546 134.837 63.9781 130.832 64.2593 127.987L56.2981 127.2ZM55.868 117.181C56.0032 119.965 56.123 122.432 56.2008 124.288C56.2397 125.217 56.2673 125.974 56.2812 126.532C56.2981 127.211 56.2851 127.331 56.2981 127.2L64.2593 127.987C64.3057 127.517 64.2913 126.837 64.2787 126.333C64.2631 125.706 64.2333 124.896 64.1938 123.953C64.1146 122.064 63.9933 119.566 63.8586 116.793L55.868 117.181ZM55.8701 117.221L55.8702 117.222L63.8564 116.752L63.8563 116.752L55.8701 117.221ZM55.8664 87.5064C55.4012 88.2669 55.2673 89.0485 55.2305 89.2504C55.1646 89.6115 55.1244 89.9863 55.0969 90.3256C55.041 91.0141 55.0143 91.859 55.0045 92.7796C54.9847 94.6369 55.032 97.0737 55.1158 99.7629C55.2836 105.153 55.6045 111.756 55.8679 117.181L63.8585 116.792C63.5941 111.349 63.2771 104.821 63.1119 99.5139C63.0291 96.8546 62.9861 94.5514 63.004 92.8646C63.0131 92.0131 63.0372 91.3849 63.0707 90.9728C63.0878 90.7617 63.1019 90.6793 63.1007 90.6854C63.1 90.6893 63.086 90.7683 63.0484 90.8932C63.0208 90.9849 62.9231 91.3011 62.6911 91.6804L55.8664 87.5064ZM70.4051 101.47C68.6717 97.8222 66.9019 94.0959 65.488 91.4071C64.7975 90.094 64.1038 88.857 63.4859 87.9765C63.2321 87.6148 62.7341 86.9297 62.0379 86.4044C61.7305 86.1725 60.8304 85.5361 59.5127 85.5064C57.755 85.4668 56.4917 86.4839 55.8664 87.5064L62.6911 91.6804C62.1399 92.5817 60.973 93.5414 59.3323 93.5044C58.1317 93.4773 57.3694 92.9036 57.2193 92.7904C56.8377 92.5024 56.7319 92.2789 56.9373 92.5717C57.2379 93 57.7303 93.8432 58.4073 95.1305C59.7283 97.6425 61.4186 101.198 63.1794 104.904L70.4051 101.47ZM71.7708 114.957C72.6682 113.933 74.0227 113.492 75.2924 113.713C76.2201 113.874 76.7817 114.332 76.8932 114.422C77.1739 114.65 77.2197 114.781 77.004 114.471C76.653 113.968 76.111 113.037 75.3924 111.673C73.9839 109 72.2123 105.273 70.4051 101.47L63.1794 104.904C64.9597 108.65 66.8115 112.549 68.3145 115.402C69.0516 116.801 69.7874 118.109 70.4427 119.049C70.7301 119.461 71.2111 120.113 71.8476 120.63C72.1369 120.866 72.8566 121.409 73.9208 121.594C75.3272 121.839 76.797 121.359 77.7869 120.23L71.7708 114.957Z" fill="black" mask="url(#path-1-inside-1)"/>
<path d="M62.5296 96.6156L62.5296 96.6156C60.5762 89.3257 60.9727 84.4914 62.7982 81.2024C64.6107 77.9367 68.1017 75.7124 73.4908 74.2684C78.5588 72.9105 82.484 73.9129 85.515 76.3695C88.6374 78.9003 91.0139 83.1454 92.4733 88.5922C93.0761 90.8417 93.7444 93.2229 94.4368 95.6897C97.0388 104.96 99.9804 115.44 101.058 124.695C101.739 130.551 101.636 135.659 100.366 139.523C99.1373 143.262 96.8479 145.792 92.9362 146.84C89.0124 147.891 85.6395 146.864 82.5353 144.25C79.345 141.563 76.5 137.232 73.9591 131.883C69.3147 122.106 65.9889 109.608 63.2749 99.4098C63.0213 98.457 62.7731 97.5242 62.5296 96.6156Z" fill="white" stroke="black" stroke-width="4"/>
<path d="M98.8002 95.6842L98.8002 95.6841C97.4896 88.2517 98.3059 83.4705 100.411 80.353C102.501 77.2577 106.173 75.3462 111.667 74.3774C116.834 73.4663 120.657 74.807 123.463 77.5185C126.353 80.3117 128.35 84.7478 129.329 90.3011C129.734 92.5946 130.192 95.0249 130.667 97.5427C132.451 107.004 134.468 117.701 134.735 127.015C134.903 132.907 134.355 137.987 132.753 141.726C131.203 145.343 128.702 147.664 124.714 148.367C120.713 149.073 117.443 147.755 114.578 144.881C111.634 141.926 109.177 137.364 107.112 131.814C103.338 121.669 101.114 108.929 99.2991 98.5327C99.1295 97.5614 98.9636 96.6105 98.8002 95.6842Z" fill="white" stroke="black" stroke-width="4"/>
</g>
<defs>
<clipPath id="clip0">
<rect width="203.08" height="228.59" fill="white"/>
</clipPath>
</defs>
</svg>
