<svg width="204" height="229" viewBox="0 0 204 229" fill="none" xmlns="http://www.w3.org/2000/svg">
<g clip-path="url(#clip0)">
<mask id="path-1-inside-1" fill="white">
<path fill-rule="evenodd" clip-rule="evenodd" d="M164.234 97.7035C164.431 99.9551 164.586 102.055 164.701 104.015C165.758 104.423 166.8 104.852 167.827 105.302C168.032 73.5599 170.224 39.0938 185.382 39.0938C203.353 39.0938 203.099 87.5384 202.916 122.455V122.455C202.899 125.811 202.882 129.042 202.882 132.094C202.882 137.5 202.741 142.023 202.459 145.807C202.589 146.397 202.71 146.993 202.823 147.594C203.366 150.485 203.134 157.251 202.957 162.443C202.886 164.534 202.823 166.369 202.823 167.594C202.823 205.977 167.36 228.593 120.36 228.593C99.2403 228.593 84.744 224.027 75.1829 215.515C66.2385 208.795 56.4415 199.089 46.8493 187.657C24.0769 160.518 11.0825 133.931 22.015 124.757C29.7405 118.275 43.9547 125.069 59.665 139.189C59.7403 137.224 59.8257 135.338 59.9223 133.59C58.7837 130.288 57.6104 126.392 56.3816 121.806C55.9927 120.354 55.5908 118.861 55.1793 117.332C46.0622 83.4604 32.2214 32.0382 50.0668 27.2566C66.7756 22.7794 78.5205 67.9641 87.2602 101.588L87.261 101.591C87.6833 103.215 88.0986 104.813 88.5071 106.377C99.4586 100.206 112.622 98.2351 129.13 98.1012C128.832 94.8531 128.499 91.4316 128.155 87.8958C124.804 53.474 120.399 8.22159 137.83 6.69651C156.348 5.07641 160.697 56.1981 163.67 91.1367C163.863 93.3998 164.05 95.595 164.234 97.7035Z"/>
</mask>
<path fill-rule="evenodd" clip-rule="evenodd" d="M164.234 97.7035C164.431 99.9551 164.586 102.055 164.701 104.015C165.758 104.423 166.8 104.852 167.827 105.302C168.032 73.5599 170.224 39.0938 185.382 39.0938C203.353 39.0938 203.099 87.5384 202.916 122.455V122.455C202.899 125.811 202.882 129.042 202.882 132.094C202.882 137.5 202.741 142.023 202.459 145.807C202.589 146.397 202.71 146.993 202.823 147.594C203.366 150.485 203.134 157.251 202.957 162.443C202.886 164.534 202.823 166.369 202.823 167.594C202.823 205.977 167.36 228.593 120.36 228.593C99.2403 228.593 84.744 224.027 75.1829 215.515C66.2385 208.795 56.4415 199.089 46.8493 187.657C24.0769 160.518 11.0825 133.931 22.015 124.757C29.7405 118.275 43.9547 125.069 59.665 139.189C59.7403 137.224 59.8257 135.338 59.9223 133.59C58.7837 130.288 57.6104 126.392 56.3816 121.806C55.9927 120.354 55.5908 118.861 55.1793 117.332C46.0622 83.4604 32.2214 32.0382 50.0668 27.2566C66.7756 22.7794 78.5205 67.9641 87.2602 101.588L87.261 101.591C87.6833 103.215 88.0986 104.813 88.5071 106.377C99.4586 100.206 112.622 98.2351 129.13 98.1012C128.832 94.8531 128.499 91.4316 128.155 87.8958C124.804 53.474 120.399 8.22159 137.83 6.69651C156.348 5.07641 160.697 56.1981 163.67 91.1367C163.863 93.3998 164.05 95.595 164.234 97.7035Z" fill="white"/>
<path d="M164.701 104.015L160.708 104.25L160.859 106.819L163.26 107.746L164.701 104.015ZM164.234 97.7035L160.249 98.0522L160.249 98.0522L164.234 97.7035ZM167.827 105.302L166.221 108.966L171.787 111.406L171.827 105.328L167.827 105.302ZM202.916 122.455L198.917 122.434L198.916 122.444V122.455H202.916ZM202.916 122.455L206.916 122.476L206.916 122.465V122.455H202.916ZM202.459 145.807L198.471 145.51L198.427 146.093L198.552 146.663L202.459 145.807ZM202.823 147.594L206.754 146.856L206.754 146.856L202.823 147.594ZM202.957 162.443L198.959 162.307L198.959 162.307L202.957 162.443ZM120.36 228.593L120.36 224.593H120.36V228.593ZM75.1829 215.515L77.8426 212.527L77.7185 212.417L77.5856 212.317L75.1829 215.515ZM46.8493 187.657L49.9135 185.086L49.9135 185.086L46.8493 187.657ZM22.015 124.757L24.5862 127.822L24.5862 127.822L22.015 124.757ZM59.665 139.189L56.9911 142.164L63.3354 147.866L63.6621 139.342L59.665 139.189ZM59.9223 133.59L63.9162 133.811L63.9595 133.028L63.7038 132.286L59.9223 133.59ZM56.3816 121.806L52.5179 122.841L52.5179 122.841L56.3816 121.806ZM55.1793 117.332L51.3167 118.372L51.3167 118.372L55.1793 117.332ZM50.0668 27.2566L49.0315 23.3929L49.0315 23.3929L50.0668 27.2566ZM87.2602 101.588L83.3888 102.594L83.3919 102.605L87.2602 101.588ZM87.261 101.591L91.1324 100.584L91.1293 100.573L87.261 101.591ZM88.5071 106.377L84.637 107.388L85.9488 112.41L90.4707 109.862L88.5071 106.377ZM129.13 98.1012L129.162 102.101L133.509 102.066L133.113 97.7368L129.13 98.1012ZM128.155 87.8958L124.174 88.2834L124.174 88.2834L128.155 87.8958ZM137.83 6.69651L138.179 10.6813L138.179 10.6813L137.83 6.69651ZM163.67 91.1367L167.656 90.7976L167.656 90.7976L163.67 91.1367ZM168.695 103.78C168.577 101.778 168.419 99.6393 168.219 97.3549L160.249 98.0522C160.443 100.271 160.596 102.333 160.708 104.25L168.695 103.78ZM169.432 101.639C168.351 101.165 167.254 100.713 166.143 100.284L163.26 107.746C164.262 108.133 165.249 108.54 166.221 108.966L169.432 101.639ZM185.382 35.0938C179.756 35.0938 175.674 38.4072 172.886 42.848C170.158 47.1924 168.34 53.059 167.072 59.5247C164.524 72.5163 163.929 89.4071 163.827 105.277L171.827 105.328C171.929 89.4552 172.534 73.2417 174.922 61.0646C176.123 54.946 177.708 50.2121 179.661 47.1021C181.553 44.0886 183.429 43.0938 185.382 43.0938V35.0938ZM206.916 122.476C207.007 105.097 207.125 83.9609 204.923 67.1606C203.826 58.7961 202.112 51.1275 199.319 45.4443C196.528 39.7678 192.108 35.0938 185.382 35.0938V43.0938C187.641 43.0938 189.928 44.4753 192.139 48.9733C194.347 53.4646 195.927 60.0894 196.991 68.2006C199.108 84.3517 199.008 104.896 198.917 122.434L206.916 122.476ZM206.916 122.455V122.455H198.916V122.455H206.916ZM206.882 132.094C206.882 129.055 206.899 125.834 206.916 122.476L198.917 122.434C198.899 125.788 198.882 129.03 198.882 132.094H206.882ZM206.448 146.104C206.74 142.191 206.882 137.563 206.882 132.094H198.882C198.882 137.437 198.743 141.856 198.471 145.51L206.448 146.104ZM206.754 146.856C206.634 146.215 206.505 145.58 206.367 144.95L198.552 146.663C198.673 147.214 198.786 147.77 198.892 148.332L206.754 146.856ZM206.955 162.58C207.043 159.996 207.148 156.945 207.16 154.174C207.172 151.511 207.106 148.73 206.754 146.856L198.892 148.332C199.083 149.349 199.172 151.397 199.16 154.138C199.148 156.77 199.048 159.698 198.959 162.307L206.955 162.58ZM206.823 167.594C206.823 166.454 206.882 164.703 206.955 162.58L198.959 162.307C198.889 164.364 198.823 166.283 198.823 167.594H206.823ZM120.36 232.593C144.444 232.593 165.937 226.806 181.53 215.75C197.239 204.612 206.823 188.189 206.823 167.594H198.823C198.823 185.382 190.676 199.459 176.903 209.224C163.014 219.072 143.276 224.593 120.36 224.593L120.36 232.593ZM72.5231 218.503C83.1087 227.926 98.7376 232.593 120.36 232.593V224.593C99.7431 224.593 86.3792 220.127 77.8426 212.527L72.5231 218.503ZM77.5856 212.317C68.961 205.837 59.3824 196.371 49.9135 185.086L43.7852 190.228C53.5006 201.807 63.5159 211.752 72.7801 218.713L77.5856 212.317ZM49.9135 185.086C38.6548 171.668 29.9884 158.584 25.4772 147.913C23.2148 142.561 22.111 138.078 22.0807 134.604C22.0512 131.215 23.0225 129.134 24.5862 127.822L19.4439 121.693C15.5413 124.968 14.0372 129.65 14.081 134.674C14.1241 139.614 15.6423 145.194 18.1085 151.028C23.0545 162.728 32.2715 176.507 43.7852 190.228L49.9135 185.086ZM24.5862 127.822C26.7421 126.013 30.3626 125.507 36.3306 127.949C42.2013 130.352 49.2851 135.238 56.9911 142.164L62.3389 136.214C54.3345 129.02 46.4561 123.449 39.3608 120.545C32.3628 117.681 25.0134 117.02 19.4439 121.693L24.5862 127.822ZM55.9284 133.369C55.8303 135.145 55.7439 137.054 55.6679 139.036L63.6621 139.342C63.7367 137.394 63.8212 135.531 63.9162 133.811L55.9284 133.369ZM52.5179 122.841C53.7637 127.491 54.9637 131.481 56.1409 134.894L63.7038 132.286C62.6037 129.096 61.4571 125.293 60.2453 120.771L52.5179 122.841ZM51.3167 118.372C51.7284 119.901 52.1296 121.392 52.5179 122.841L60.2453 120.771C59.8557 119.317 59.4532 117.821 59.0418 116.293L51.3167 118.372ZM49.0315 23.3929C42.2867 25.2001 39.2791 31.3395 38.1166 37.8856C36.9371 44.5275 37.3472 52.9553 38.5475 61.9167C40.9581 79.9129 46.7767 101.505 51.3167 118.372L59.0418 116.293C54.4648 99.2882 48.8045 78.2329 46.4767 60.8546C45.3079 52.1287 45.0339 44.6874 45.9934 39.2843C46.9699 33.7853 48.9242 31.7038 51.1021 31.1203L49.0315 23.3929ZM91.1315 100.581C86.7821 83.8481 81.594 63.8587 75.3536 48.6186C72.2471 41.0321 68.7417 34.2649 64.7187 29.6313C60.6999 25.0025 55.3744 21.6933 49.0315 23.3929L51.1021 31.1203C53.1136 30.5813 55.522 31.2413 58.6778 34.8761C61.8295 38.5062 64.9394 44.2972 67.9502 51.6501C73.9444 66.2889 78.9985 85.7035 83.3888 102.594L91.1315 100.581ZM91.1293 100.573L91.1285 100.57L83.3919 102.605L83.3927 102.609L91.1293 100.573ZM92.3772 105.366C91.9694 103.805 91.5548 102.209 91.1323 100.584L83.3896 102.597C83.8118 104.221 84.2277 105.821 84.637 107.388L92.3772 105.366ZM129.097 94.1013C112.367 94.237 98.383 96.2207 86.5435 102.892L90.4707 109.862C100.534 104.191 112.878 102.233 129.162 102.101L129.097 94.1013ZM124.174 88.2834C124.518 91.8216 124.85 95.2312 125.146 98.4656L133.113 97.7368C132.814 94.475 132.48 91.0415 132.136 87.5082L124.174 88.2834ZM137.482 2.71173C130.967 3.28173 127.03 8.04142 124.776 13.7088C122.537 19.3398 121.538 26.7576 121.203 34.7933C120.53 50.9353 122.507 71.1573 124.174 88.2834L132.136 87.5082C130.452 70.2125 128.551 50.5974 129.196 35.1264C129.52 27.3557 130.477 21.0231 132.21 16.6646C133.929 12.3426 135.978 10.8738 138.179 10.6813L137.482 2.71173ZM167.656 90.7976C166.176 73.4037 164.328 51.5982 160.484 34.3376C158.57 25.7427 156.087 17.9089 152.694 12.2396C149.322 6.60401 144.378 2.10837 137.482 2.71174L138.179 10.6813C140.541 10.4746 143.085 11.7616 145.829 16.3475C148.553 20.8997 150.816 27.7263 152.675 36.0766C156.379 52.7064 158.192 73.9311 159.685 91.4758L167.656 90.7976ZM168.219 97.3549C168.035 95.2519 167.848 93.0616 167.656 90.7976L159.685 91.4758C159.877 93.7379 160.064 95.938 160.249 98.0522L168.219 97.3549Z" fill="black" mask="url(#path-1-inside-1)"/>
<path d="M98.8804 95.6842L98.8804 95.6841C97.5698 88.2517 98.3861 83.4705 100.491 80.353C102.582 77.2577 106.253 75.3462 111.748 74.3774C116.915 73.4663 120.738 74.807 123.543 77.5185C126.433 80.3117 128.43 84.7478 129.409 90.3011C129.814 92.5946 130.272 95.0249 130.747 97.5427C132.531 107.004 134.548 117.701 134.815 127.015C134.983 132.907 134.435 137.987 132.833 141.726C131.283 145.343 128.782 147.664 124.794 148.367C120.794 149.073 117.523 147.755 114.658 144.881C111.714 141.926 109.258 137.364 107.193 131.814C103.418 121.669 101.194 108.929 99.3793 98.5327C99.2097 97.5614 99.0438 96.6105 98.8804 95.6842Z" fill="white" stroke="black" stroke-width="4"/>
</g>
<defs>
<clipPath id="clip0">
<rect width="203.08" height="228.59" fill="white" transform="translate(0.0800781)"/>
</clipPath>
</defs>
</svg>
