<svg width="204" height="229" viewBox="0 0 204 229" fill="none" xmlns="http://www.w3.org/2000/svg">
<g clip-path="url(#clip0)">
<mask id="path-1-inside-1" fill="white">
<path fill-rule="evenodd" clip-rule="evenodd" d="M88.5071 106.377C99.8674 99.9756 113.608 98.0938 130.992 98.0938C166.253 98.0938 196.738 115.176 202.823 147.594C203.366 150.485 203.134 157.251 202.957 162.443C202.886 164.534 202.823 166.369 202.823 167.594C202.823 205.977 167.36 228.593 120.36 228.593C73.36 228.593 59.1613 205.977 59.1613 167.594C59.1613 159.868 59.3365 144.191 59.9223 133.59C58.7837 130.288 57.6104 126.392 56.3816 121.806C55.9927 120.354 55.5908 118.861 55.1793 117.332C46.0622 83.4604 32.2214 32.0382 50.0668 27.2565C66.7756 22.7794 78.5204 67.964 87.2602 101.587C87.6828 103.213 88.0983 104.812 88.5071 106.377Z"/>
</mask>
<path fill-rule="evenodd" clip-rule="evenodd" d="M88.5071 106.377C99.8674 99.9756 113.608 98.0938 130.992 98.0938C166.253 98.0938 196.738 115.176 202.823 147.594C203.366 150.485 203.134 157.251 202.957 162.443C202.886 164.534 202.823 166.369 202.823 167.594C202.823 205.977 167.36 228.593 120.36 228.593C73.36 228.593 59.1613 205.977 59.1613 167.594C59.1613 159.868 59.3365 144.191 59.9223 133.59C58.7837 130.288 57.6104 126.392 56.3816 121.806C55.9927 120.354 55.5908 118.861 55.1793 117.332C46.0622 83.4604 32.2214 32.0382 50.0668 27.2565C66.7756 22.7794 78.5204 67.964 87.2602 101.587C87.6828 103.213 88.0983 104.812 88.5071 106.377Z" fill="white"/>
<path d="M88.5071 106.377L84.637 107.388L85.9488 112.41L90.4707 109.862L88.5071 106.377ZM202.823 147.594L198.892 148.332L198.892 148.332L202.823 147.594ZM202.957 162.443L198.959 162.307L198.959 162.307L202.957 162.443ZM59.1613 167.594L55.1613 167.594L55.1613 167.594L59.1613 167.594ZM59.9223 133.59L63.9162 133.811L63.9595 133.028L63.7038 132.286L59.9223 133.59ZM56.3816 121.806L60.2453 120.77L60.2453 120.77L56.3816 121.806ZM55.1793 117.332L51.3167 118.372L51.3167 118.372L55.1793 117.332ZM50.0668 27.2565L51.1021 31.1202L51.1021 31.1202L50.0668 27.2565ZM87.2602 101.587L83.3888 102.594L83.3888 102.594L87.2602 101.587ZM90.4707 109.862C100.914 103.977 113.805 102.094 130.992 102.094V94.0938C113.412 94.0938 98.8208 95.974 86.5435 102.892L90.4707 109.862ZM130.992 102.094C165.184 102.094 193.299 118.537 198.892 148.332L206.754 146.856C200.177 111.815 167.321 94.0938 130.992 94.0938V102.094ZM198.892 148.332C199.083 149.349 199.172 151.397 199.16 154.138C199.148 156.77 199.048 159.698 198.959 162.307L206.955 162.58C207.043 159.996 207.148 156.945 207.16 154.174C207.172 151.511 207.106 148.73 206.754 146.856L198.892 148.332ZM198.959 162.307C198.889 164.364 198.823 166.283 198.823 167.594H206.823C206.823 166.454 206.882 164.703 206.955 162.58L198.959 162.307ZM198.823 167.594C198.823 185.382 190.676 199.459 176.903 209.224C163.014 219.072 143.276 224.593 120.36 224.593L120.36 232.593C144.444 232.593 165.937 226.806 181.53 215.75C197.239 204.612 206.823 188.189 206.823 167.594H198.823ZM120.36 224.593C97.4253 224.593 83.4614 219.075 75.1063 209.809C66.6729 200.456 63.1613 186.432 63.1613 167.594L55.1613 167.594C55.1613 187.139 58.749 203.615 69.165 215.166C79.6592 226.804 96.2946 232.593 120.36 232.593L120.36 224.593ZM63.1613 167.594C63.1613 159.888 63.3366 144.299 63.9162 133.811L55.9284 133.369C55.3363 144.083 55.1613 159.849 55.1613 167.594H63.1613ZM63.7038 132.286C62.6037 129.096 61.4571 125.293 60.2453 120.77L52.5179 122.841C53.7637 127.491 54.9637 131.481 56.1409 134.894L63.7038 132.286ZM60.2453 120.77C59.8557 119.316 59.4532 117.821 59.0418 116.293L51.3167 118.372C51.7284 119.901 52.1296 121.392 52.5179 122.841L60.2453 120.77ZM59.0418 116.293C54.4648 99.2882 48.8045 78.2328 46.4767 60.8545C45.3079 52.1286 45.0339 44.6874 45.9934 39.2843C46.9699 33.7853 48.9242 31.7038 51.1021 31.1202L49.0315 23.3928C42.2867 25.2001 39.2791 31.3395 38.1166 37.8855C36.9371 44.5274 37.3472 52.9553 38.5475 61.9166C40.9581 79.9128 46.7767 101.505 51.3167 118.372L59.0418 116.293ZM51.1021 31.1202C53.1136 30.5812 55.522 31.2412 58.6778 34.876C61.8295 38.5061 64.9394 44.2971 67.9502 51.65C73.9444 66.2888 78.9985 85.7034 83.3888 102.594L91.1315 100.581C86.7821 83.848 81.594 63.8586 75.3536 48.6185C72.2471 41.032 68.7417 34.2648 64.7187 29.6312C60.6999 25.0024 55.3744 21.6932 49.0315 23.3928L51.1021 31.1202ZM83.3888 102.594C83.8113 104.219 84.2275 105.82 84.637 107.388L92.3772 105.366C91.9692 103.804 91.5542 102.207 91.1315 100.581L83.3888 102.594Z" fill="black" mask="url(#path-1-inside-1)"/>
<path d="M48.3814 186.372C37.059 172.878 28.2549 159.62 23.635 148.691C21.3217 143.219 20.1143 138.462 20.0808 134.622C20.0477 130.824 21.1522 128.092 23.3006 126.289C25.449 124.487 28.3308 123.873 32.0654 124.565C35.8413 125.265 40.3167 127.28 45.3042 130.509C55.2647 136.956 66.7924 147.929 78.1148 161.422C89.4373 174.916 98.2414 188.174 102.861 199.103C105.175 204.575 106.382 209.332 106.415 213.172C106.449 216.97 105.344 219.702 103.196 221.505C101.047 223.307 98.1655 223.921 94.4309 223.229C90.655 222.529 86.1796 220.514 81.192 217.285C71.2315 210.838 59.7039 199.865 48.3814 186.372Z" fill="white" stroke="black" stroke-width="4"/>
<path d="M185.831 77.4078C191.157 77.4078 194.689 79.1815 196.933 81.8873C199.227 84.6539 200.396 88.664 200.396 93.5C200.396 95.5452 200.426 97.7119 200.456 99.9528C200.569 108.344 200.697 117.775 199.355 125.768C198.507 130.817 197.107 135.026 194.933 137.936C192.837 140.739 189.98 142.408 185.831 142.408C181.675 142.408 178.687 140.729 176.421 137.886C174.085 134.955 172.483 130.729 171.425 125.688C169.487 116.456 169.509 105.229 169.527 96.0171C169.528 95.1595 169.53 94.3194 169.53 93.5C169.53 87.0138 171.125 83.1486 173.665 80.8492C176.246 78.5123 180.217 77.4078 185.831 77.4078Z" fill="white" stroke="black" stroke-width="4"/>
<path d="M134.888 94.5569L134.888 94.5569C134.23 87.0385 135.46 82.3466 137.829 79.4245C140.181 76.5232 144.005 74.9389 149.563 74.4527C154.79 73.9954 158.482 75.6642 161.04 78.6098C163.676 81.6443 165.279 86.2376 165.77 91.8551C165.973 94.1751 166.218 96.6361 166.472 99.1857C167.424 108.767 168.501 119.598 167.955 128.9C167.61 134.785 166.621 139.798 164.699 143.383C162.84 146.851 160.146 148.945 156.112 149.298C152.065 149.652 148.922 148.054 146.318 144.941C143.643 141.742 141.593 136.983 140.02 131.274C137.144 120.838 136.039 107.953 135.137 97.4382C135.053 96.4557 134.97 95.494 134.888 94.5569Z" fill="white" stroke="black" stroke-width="4"/>
<path d="M98.8804 95.6842L98.8804 95.6841C97.5698 88.2517 98.3861 83.4705 100.491 80.353C102.582 77.2577 106.253 75.3462 111.748 74.3774C116.915 73.4663 120.738 74.807 123.543 77.5185C126.433 80.3117 128.43 84.7478 129.409 90.3011C129.814 92.5946 130.272 95.0249 130.747 97.5427C132.531 107.004 134.548 117.701 134.815 127.015C134.983 132.907 134.435 137.987 132.833 141.726C131.283 145.343 128.782 147.664 124.794 148.367C120.794 149.073 117.523 147.755 114.658 144.881C111.714 141.926 109.258 137.364 107.193 131.814C103.418 121.669 101.194 108.929 99.3793 98.5327C99.2097 97.5614 99.0438 96.6105 98.8804 95.6842Z" fill="white" stroke="black" stroke-width="4"/>
</g>
<defs>
<clipPath id="clip0">
<rect width="203.08" height="228.59" fill="white" transform="translate(0.0800781)"/>
</clipPath>
</defs>
</svg>
