<svg width="204" height="229" viewBox="0 0 204 229" fill="none" xmlns="http://www.w3.org/2000/svg">
<g clip-path="url(#clip0)">
<mask id="path-1-inside-1" fill="white">
<path fill-rule="evenodd" clip-rule="evenodd" d="M124.062 88.6882C124.682 92.2038 125.174 95.3508 125.547 98.17C126.827 98.1344 128.128 98.1119 129.45 98.1012C129.153 94.8531 128.82 91.4316 128.475 87.8958C125.124 53.474 120.719 8.22159 138.151 6.69651C156.668 5.07641 161.018 56.1981 163.991 91.1367C164.183 93.3998 164.37 95.595 164.554 97.7035C164.751 99.9551 164.907 102.055 165.022 104.015C166.078 104.423 167.12 104.852 168.147 105.302C168.352 73.5599 170.545 39.0938 185.702 39.0938C203.673 39.0938 203.419 87.5384 203.237 122.455V122.455C203.219 125.811 203.202 129.042 203.202 132.094C203.202 137.5 203.061 142.023 202.78 145.807C202.909 146.397 203.03 146.993 203.143 147.594C203.686 150.485 203.455 157.251 203.277 162.443C203.206 164.534 203.143 166.369 203.143 167.594C203.143 205.977 167.68 228.593 120.68 228.593C99.5607 228.593 85.0643 224.027 75.5032 215.515C66.5588 208.795 56.7618 199.089 47.1697 187.657C24.3972 160.518 11.4028 133.931 22.3354 124.757C30.0608 118.275 44.275 125.069 59.9853 139.189C60.0606 137.224 60.1461 135.338 60.2427 133.59C59.104 130.288 57.9307 126.392 56.7019 121.806C56.313 120.354 55.9111 118.861 55.4996 117.332C46.3825 83.4604 32.5417 32.0382 50.3871 27.2566C67.0959 22.7794 78.8408 67.9641 87.5805 101.588L87.5813 101.591C88.0036 103.215 88.4189 104.813 88.8274 106.377C89.7383 105.864 90.6645 105.379 91.6066 104.923C90.937 101.965 90.2691 98.5971 89.5935 94.7659C89.1362 92.172 88.6453 89.4477 88.1369 86.6262L88.1352 86.6169L88.1343 86.6114L88.1337 86.6084C81.9266 52.1599 73.1116 3.23746 90.6784 0.13996C108.245 -2.95754 116.694 46.0295 122.644 80.5235L122.644 80.5245C123.132 83.3557 123.604 86.0892 124.062 88.6882Z"/>
</mask>
<path fill-rule="evenodd" clip-rule="evenodd" d="M124.062 88.6882C124.682 92.2038 125.174 95.3508 125.547 98.17C126.827 98.1344 128.128 98.1119 129.45 98.1012C129.153 94.8531 128.82 91.4316 128.475 87.8958C125.124 53.474 120.719 8.22159 138.151 6.69651C156.668 5.07641 161.018 56.1981 163.991 91.1367C164.183 93.3998 164.37 95.595 164.554 97.7035C164.751 99.9551 164.907 102.055 165.022 104.015C166.078 104.423 167.12 104.852 168.147 105.302C168.352 73.5599 170.545 39.0938 185.702 39.0938C203.673 39.0938 203.419 87.5384 203.237 122.455V122.455C203.219 125.811 203.202 129.042 203.202 132.094C203.202 137.5 203.061 142.023 202.78 145.807C202.909 146.397 203.03 146.993 203.143 147.594C203.686 150.485 203.455 157.251 203.277 162.443C203.206 164.534 203.143 166.369 203.143 167.594C203.143 205.977 167.68 228.593 120.68 228.593C99.5607 228.593 85.0643 224.027 75.5032 215.515C66.5588 208.795 56.7618 199.089 47.1697 187.657C24.3972 160.518 11.4028 133.931 22.3354 124.757C30.0608 118.275 44.275 125.069 59.9853 139.189C60.0606 137.224 60.1461 135.338 60.2427 133.59C59.104 130.288 57.9307 126.392 56.7019 121.806C56.313 120.354 55.9111 118.861 55.4996 117.332C46.3825 83.4604 32.5417 32.0382 50.3871 27.2566C67.0959 22.7794 78.8408 67.9641 87.5805 101.588L87.5813 101.591C88.0036 103.215 88.4189 104.813 88.8274 106.377C89.7383 105.864 90.6645 105.379 91.6066 104.923C90.937 101.965 90.2691 98.5971 89.5935 94.7659C89.1362 92.172 88.6453 89.4477 88.1369 86.6262L88.1352 86.6169L88.1343 86.6114L88.1337 86.6084C81.9266 52.1599 73.1116 3.23746 90.6784 0.13996C108.245 -2.95754 116.694 46.0295 122.644 80.5235L122.644 80.5245C123.132 83.3557 123.604 86.0892 124.062 88.6882Z" fill="white"/>
<path d="M125.547 98.17L121.581 98.6938L122.053 102.268L125.658 102.168L125.547 98.17ZM124.062 88.6882L128.001 87.9936L128.001 87.9936L124.062 88.6882ZM129.45 98.1012L129.482 102.101L133.829 102.066L133.433 97.7368L129.45 98.1012ZM128.475 87.8958L124.494 88.2834L124.494 88.2834L128.475 87.8958ZM138.151 6.69651L138.499 10.6813L138.499 10.6813L138.151 6.69651ZM163.991 91.1367L167.976 90.7976L167.976 90.7976L163.991 91.1367ZM164.554 97.7035L160.57 98.0522L160.57 98.0522L164.554 97.7035ZM165.022 104.015L161.029 104.25L161.18 106.819L163.58 107.746L165.022 104.015ZM168.147 105.302L166.541 108.966L172.108 111.406L172.147 105.328L168.147 105.302ZM203.237 122.455L199.237 122.434L199.237 122.444V122.455H203.237ZM203.237 122.455L207.237 122.476L207.237 122.465V122.455H203.237ZM202.78 145.807L198.791 145.51L198.747 146.093L198.873 146.663L202.78 145.807ZM203.143 147.594L207.075 146.856L207.075 146.856L203.143 147.594ZM203.277 162.443L199.28 162.307L199.28 162.307L203.277 162.443ZM120.68 228.593L120.68 224.593H120.68V228.593ZM75.5032 215.515L78.1629 212.527L78.0388 212.417L77.9059 212.317L75.5032 215.515ZM47.1697 187.657L50.2338 185.086L50.2338 185.086L47.1697 187.657ZM22.3354 124.757L19.7642 121.693L19.7642 121.693L22.3354 124.757ZM59.9853 139.189L57.3114 142.164L63.6557 147.866L63.9824 139.342L59.9853 139.189ZM60.2427 133.59L64.2366 133.811L64.2798 133.028L64.0241 132.286L60.2427 133.59ZM56.7019 121.806L52.8382 122.841L52.8382 122.841L56.7019 121.806ZM55.4996 117.332L51.637 118.372L51.637 118.372L55.4996 117.332ZM50.3871 27.2566L49.3518 23.3929L49.3518 23.3929L50.3871 27.2566ZM87.5805 101.588L83.7091 102.594L83.7122 102.605L87.5805 101.588ZM87.5813 101.591L91.4527 100.584L91.4496 100.573L87.5813 101.591ZM88.8274 106.377L84.9573 107.388L86.2691 112.41L90.791 109.862L88.8274 106.377ZM91.6066 104.923L93.3508 108.523L96.2092 107.138L95.5079 104.04L91.6066 104.923ZM89.5935 94.7659L85.6543 95.4605L85.6543 95.4605L89.5935 94.7659ZM88.1369 86.6262L92.0736 85.9169L92.073 85.9141L88.1369 86.6262ZM88.1352 86.6169L92.0713 85.9047L92.071 85.9028L88.1352 86.6169ZM88.1343 86.6114L84.1978 87.3218L84.1985 87.3255L88.1343 86.6114ZM88.1337 86.6084L84.1971 87.3177L84.1973 87.3187L88.1337 86.6084ZM90.6784 0.13996L91.373 4.07919L90.6784 0.13996ZM122.644 80.5235L118.702 81.2033L118.704 81.2135L118.705 81.2236L122.644 80.5235ZM122.644 80.5245L126.586 79.8447L126.584 79.8345L126.582 79.8244L122.644 80.5245ZM129.512 97.6461C129.131 94.758 128.629 91.5528 128.001 87.9936L120.123 89.3828C120.735 92.8549 121.218 95.9436 121.581 98.6938L129.512 97.6461ZM129.417 94.1013C128.071 94.1123 126.744 94.1352 125.436 94.1715L125.658 102.168C126.909 102.134 128.184 102.112 129.482 102.101L129.417 94.1013ZM124.494 88.2834C124.839 91.8216 125.171 95.2312 125.466 98.4656L133.433 97.7368C133.135 94.475 132.801 91.0415 132.457 87.5082L124.494 88.2834ZM137.802 2.71173C131.287 3.28173 127.35 8.04142 125.097 13.7088C122.858 19.3398 121.858 26.7576 121.523 34.7933C120.85 50.9353 122.827 71.1573 124.494 88.2834L132.457 87.5082C130.773 70.2125 128.871 50.5974 129.516 35.1264C129.84 27.3557 130.798 21.0231 132.531 16.6646C134.249 12.3426 136.298 10.8738 138.499 10.6813L137.802 2.71173ZM167.976 90.7976C166.496 73.4037 164.648 51.5982 160.804 34.3376C158.89 25.7427 156.407 17.9089 153.014 12.2396C149.642 6.60401 144.698 2.10837 137.802 2.71173L138.499 10.6813C140.862 10.4746 143.406 11.7616 146.15 16.3475C148.874 20.8997 151.136 27.7263 152.995 36.0766C156.699 52.7064 158.512 73.9311 160.005 91.4758L167.976 90.7976ZM168.539 97.3549C168.355 95.2519 168.169 93.0616 167.976 90.7976L160.005 91.4758C160.197 93.7379 160.385 95.938 160.57 98.0522L168.539 97.3549ZM169.015 103.78C168.897 101.778 168.739 99.6393 168.539 97.3549L160.57 98.0522C160.764 100.271 160.916 102.333 161.029 104.25L169.015 103.78ZM169.753 101.639C168.671 101.165 167.574 100.713 166.464 100.284L163.58 107.746C164.582 108.133 165.57 108.54 166.541 108.966L169.753 101.639ZM185.702 35.0938C180.077 35.0938 175.994 38.4072 173.206 42.848C170.478 47.1924 168.661 53.059 167.392 59.5247C164.844 72.5163 164.25 89.4071 164.147 105.277L172.147 105.328C172.25 89.4552 172.854 73.2417 175.243 61.0646C176.443 54.946 178.028 50.2121 179.981 47.1021C181.873 44.0886 183.749 43.0938 185.702 43.0938V35.0938ZM207.237 122.476C207.328 105.097 207.446 83.9609 205.243 67.1606C204.146 58.7961 202.432 51.1275 199.639 45.4443C196.849 39.7678 192.429 35.0938 185.702 35.0938V43.0938C187.961 43.0938 190.248 44.4753 192.459 48.9733C194.667 53.4646 196.247 60.0894 197.311 68.2006C199.429 84.3517 199.329 104.896 199.237 122.434L207.237 122.476ZM207.237 122.455V122.455H199.237V122.455H207.237ZM207.202 132.094C207.202 129.055 207.219 125.834 207.237 122.476L199.237 122.434C199.219 125.788 199.202 129.03 199.202 132.094H207.202ZM206.769 146.104C207.06 142.191 207.202 137.563 207.202 132.094H199.202C199.202 137.437 199.063 141.856 198.791 145.51L206.769 146.104ZM207.075 146.856C206.954 146.215 206.825 145.58 206.687 144.95L198.873 146.663C198.993 147.214 199.107 147.77 199.212 148.332L207.075 146.856ZM207.275 162.58C207.363 159.996 207.468 156.945 207.48 154.174C207.492 151.511 207.426 148.73 207.075 146.856L199.212 148.332C199.403 149.349 199.493 151.397 199.48 154.138C199.469 156.77 199.369 159.698 199.28 162.307L207.275 162.58ZM207.143 167.594C207.143 166.454 207.202 164.703 207.275 162.58L199.28 162.307C199.209 164.364 199.143 166.283 199.143 167.594H207.143ZM120.68 232.593C144.764 232.593 166.258 226.806 181.85 215.75C197.559 204.612 207.143 188.189 207.143 167.594H199.143C199.143 185.382 190.996 199.459 177.223 209.224C163.334 219.072 143.596 224.593 120.68 224.593L120.68 232.593ZM72.8435 218.503C83.429 227.926 99.0579 232.593 120.68 232.593V224.593C100.063 224.593 86.6995 220.127 78.1629 212.527L72.8435 218.503ZM77.9059 212.317C69.2814 205.837 59.7027 196.371 50.2338 185.086L44.1055 190.228C53.8209 201.807 63.8362 211.752 73.1004 218.713L77.9059 212.317ZM50.2338 185.086C38.9751 171.668 30.3087 158.584 25.7975 147.913C23.5351 142.561 22.4313 138.078 22.401 134.604C22.3715 131.215 23.3428 129.134 24.9065 127.822L19.7642 121.693C15.8617 124.968 14.3576 129.65 14.4013 134.674C14.4444 139.614 15.9626 145.194 18.4288 151.028C23.3748 162.728 32.5918 176.507 44.1055 190.228L50.2338 185.086ZM24.9065 127.822C27.0624 126.013 30.6829 125.507 36.6509 127.949C42.5217 130.352 49.6055 135.238 57.3114 142.164L62.6592 136.214C54.6548 129.02 46.7764 123.449 39.6811 120.545C32.6831 117.681 25.3337 117.02 19.7642 121.693L24.9065 127.822ZM56.2487 133.369C56.1506 135.145 56.0642 137.054 55.9882 139.036L63.9824 139.342C64.057 137.394 64.1415 135.531 64.2366 133.811L56.2487 133.369ZM52.8382 122.841C54.084 127.491 55.284 131.481 56.4612 134.894L64.0241 132.286C62.924 129.096 61.7774 125.293 60.5656 120.771L52.8382 122.841ZM51.637 118.372C52.0487 119.901 52.45 121.392 52.8382 122.841L60.5656 120.771C60.176 119.317 59.7735 117.821 59.3621 116.293L51.637 118.372ZM49.3518 23.3929C42.607 25.2001 39.5994 31.3395 38.4369 37.8856C37.2575 44.5275 37.6675 52.9553 38.8678 61.9167C41.2784 79.9129 47.097 101.505 51.637 118.372L59.3621 116.293C54.7851 99.2882 49.1248 78.2329 46.797 60.8546C45.6282 52.1287 45.3542 44.6874 46.3137 39.2843C47.2902 33.7853 49.2445 31.7038 51.4224 31.1203L49.3518 23.3929ZM91.4518 100.581C87.1024 83.8481 81.9143 63.8587 75.6739 48.6186C72.5674 41.0321 69.062 34.2649 65.039 29.6313C61.0202 25.0025 55.6948 21.6933 49.3518 23.3929L51.4224 31.1203C53.4339 30.5813 55.8423 31.2413 58.9982 34.8761C62.1498 38.5062 65.2597 44.2972 68.2705 51.6501C74.2647 66.2889 79.3188 85.7035 83.7091 102.594L91.4518 100.581ZM91.4496 100.573L91.4488 100.57L83.7122 102.605L83.713 102.609L91.4496 100.573ZM92.6975 105.366C92.2898 103.805 91.8751 102.209 91.4527 100.584L83.7099 102.597C84.1321 104.221 84.548 105.821 84.9573 107.388L92.6975 105.366ZM89.8624 101.323C88.8471 101.815 87.8477 102.338 86.8638 102.892L90.791 109.862C91.6289 109.39 92.4819 108.944 93.3508 108.523L89.8624 101.323ZM85.6543 95.4605C86.3381 99.3387 87.0184 102.772 87.7054 105.806L95.5079 104.04C94.8556 101.159 94.2 97.8554 93.5328 94.0713L85.6543 95.4605ZM84.2003 87.3355C84.709 90.1586 85.1985 92.8753 85.6543 95.4605L93.5328 94.0713C93.0739 91.4687 92.5816 88.7368 92.0736 85.9169L84.2003 87.3355ZM84.1992 87.329L84.2008 87.3384L92.073 85.9141L92.0713 85.9047L84.1992 87.329ZM84.1985 87.3255L84.1995 87.3309L92.071 85.9028L92.07 85.8974L84.1985 87.3255ZM84.1973 87.3187L84.1978 87.3218L92.0707 85.9011L92.0701 85.8981L84.1973 87.3187ZM89.9838 -3.79927C83.3261 -2.62534 79.8502 2.90549 78.1433 9.04096C76.423 15.2244 76.0976 23.2183 76.4951 31.8026C77.2937 49.0443 81.1071 70.1685 84.1971 87.3177L92.0703 85.8991C88.9533 68.5997 85.2556 48.0385 84.4866 31.4325C84.1003 23.0929 84.477 16.1224 85.8506 11.1852C87.2375 6.20004 89.2473 4.45401 91.373 4.07919L89.9838 -3.79927ZM126.585 79.8436C123.624 62.6718 119.982 41.5173 114.836 25.0422C112.273 16.8396 109.233 9.4391 105.502 4.21692C101.799 -0.964735 96.6415 -4.9732 89.9838 -3.79927L91.373 4.07919C93.4987 3.70437 95.9845 4.65772 98.9928 8.8679C101.972 13.0375 104.71 19.4589 107.2 27.4276C112.156 43.2952 115.714 63.8811 118.702 81.2033L126.585 79.8436ZM126.582 79.8244L126.582 79.8233L118.705 81.2236L118.706 81.2246L126.582 79.8244ZM128.001 87.9936C127.544 85.4033 127.074 82.6774 126.586 79.8447L118.702 81.2043C119.19 84.0339 119.663 86.7751 120.123 89.3828L128.001 87.9936Z" fill="black" mask="url(#path-1-inside-1)"/>
</g>
<defs>
<clipPath id="clip0">
<rect width="203.08" height="228.59" fill="white" transform="translate(0.400391)"/>
</clipPath>
</defs>
</svg>
