<svg width="204" height="229" viewBox="0 0 204 229" fill="none" xmlns="http://www.w3.org/2000/svg">
<g clip-path="url(#clip0)">
<mask id="path-1-inside-1" fill="white">
<path fill-rule="evenodd" clip-rule="evenodd" d="M60.0024 133.59C59.5781 141.267 59.3692 151.607 59.2863 159.661C32.9241 143.264 9.2114 135.8 1.93845 146.575C-6.04578 158.404 13.7667 180.386 43.1312 200.206C57.4791 209.89 71.4527 217.267 82.9237 220.899C92.0751 225.937 104.331 228.593 120.44 228.593C167.44 228.593 202.903 205.977 202.903 167.594C202.903 166.369 202.966 164.534 203.037 162.443C203.215 157.251 203.446 150.485 202.903 147.594C196.818 115.176 166.333 98.0938 131.072 98.0938C113.688 98.0938 99.9475 99.9756 88.5872 106.377C88.1784 104.812 87.7628 103.213 87.3403 101.587C78.6005 67.9641 66.8557 22.7794 50.1469 27.2565C32.3014 32.0382 46.1423 83.4604 55.2593 117.332L55.2623 117.343C55.6728 118.868 56.0737 120.358 56.4616 121.806C57.6905 126.392 58.8638 130.288 60.0024 133.59Z"/>
</mask>
<path fill-rule="evenodd" clip-rule="evenodd" d="M60.0024 133.59C59.5781 141.267 59.3692 151.607 59.2863 159.661C32.9241 143.264 9.2114 135.8 1.93845 146.575C-6.04578 158.404 13.7667 180.386 43.1312 200.206C57.4791 209.89 71.4527 217.267 82.9237 220.899C92.0751 225.937 104.331 228.593 120.44 228.593C167.44 228.593 202.903 205.977 202.903 167.594C202.903 166.369 202.966 164.534 203.037 162.443C203.215 157.251 203.446 150.485 202.903 147.594C196.818 115.176 166.333 98.0938 131.072 98.0938C113.688 98.0938 99.9475 99.9756 88.5872 106.377C88.1784 104.812 87.7628 103.213 87.3403 101.587C78.6005 67.9641 66.8557 22.7794 50.1469 27.2565C32.3014 32.0382 46.1423 83.4604 55.2593 117.332L55.2623 117.343C55.6728 118.868 56.0737 120.358 56.4616 121.806C57.6905 126.392 58.8638 130.288 60.0024 133.59Z" fill="white"/>
<path d="M59.2863 159.661L57.1737 163.057L63.2128 166.813L63.2861 159.702L59.2863 159.661ZM60.0024 133.59L63.9963 133.811L64.0396 133.028L63.7839 132.286L60.0024 133.59ZM1.93845 146.575L-1.37699 144.337L-1.37699 144.337L1.93845 146.575ZM43.1312 200.206L45.369 196.89L45.369 196.89L43.1312 200.206ZM82.9237 220.899L84.8527 217.395L84.5071 217.204L84.1311 217.085L82.9237 220.899ZM120.44 228.593L120.44 224.593H120.44V228.593ZM203.037 162.443L199.039 162.307L199.039 162.307L203.037 162.443ZM202.903 147.594L198.972 148.332L198.972 148.332L202.903 147.594ZM88.5872 106.377L84.717 107.388L86.0289 112.41L90.5508 109.862L88.5872 106.377ZM87.3403 101.587L91.2116 100.581L91.2116 100.581L87.3403 101.587ZM50.1469 27.2565L49.1116 23.3928L49.1116 23.3928L50.1469 27.2565ZM55.2593 117.332L51.3968 118.372L51.397 118.373L55.2593 117.332ZM55.2623 117.343L59.1248 116.304L59.1247 116.303L55.2623 117.343ZM56.4616 121.806L52.5979 122.841L52.5979 122.841L56.4616 121.806ZM63.2861 159.702C63.3689 151.663 63.5771 141.396 63.9963 133.811L56.0085 133.369C55.5791 141.139 55.3696 151.552 55.2865 159.619L63.2861 159.702ZM61.3989 156.264C48.0554 147.965 35.1371 141.764 24.4369 139.051C19.0951 137.697 14.044 137.143 9.65558 137.814C5.17699 138.499 1.20959 140.505 -1.37699 144.337L5.25389 148.813C6.30379 147.257 8.02783 146.156 10.8647 145.722C13.7918 145.274 17.6801 145.591 22.4709 146.806C32.0358 149.231 44.155 154.96 57.1737 163.057L61.3989 156.264ZM-1.37699 144.337C-4.22709 148.559 -4.38389 153.475 -2.95857 158.293C-1.5571 163.03 1.43872 167.976 5.41595 172.905C13.3922 182.791 26.0468 193.5 40.8934 203.521L45.369 196.89C30.8511 187.091 18.9172 176.899 11.6422 167.882C7.99374 163.36 5.69819 159.354 4.71274 156.023C3.75115 152.773 4.11188 150.505 5.25389 148.813L-1.37699 144.337ZM40.8934 203.521C55.406 213.317 69.7377 220.919 81.7163 224.712L84.1311 217.085C73.1676 213.614 59.5522 206.464 45.369 196.89L40.8934 203.521ZM120.44 224.593C104.726 224.593 93.209 221.995 84.8527 217.395L80.9946 224.403C90.9412 229.878 103.936 232.593 120.44 232.593V224.593ZM198.903 167.594C198.903 185.382 190.756 199.459 176.983 209.224C163.094 219.072 143.356 224.593 120.44 224.593L120.44 232.593C144.524 232.593 166.017 226.806 181.61 215.75C197.319 204.612 206.903 188.189 206.903 167.594H198.903ZM199.039 162.307C198.969 164.364 198.903 166.283 198.903 167.594H206.903C206.903 166.454 206.962 164.703 207.035 162.58L199.039 162.307ZM198.972 148.332C199.163 149.349 199.252 151.397 199.24 154.138C199.228 156.77 199.129 159.698 199.039 162.307L207.035 162.58C207.123 159.996 207.228 156.945 207.24 154.174C207.252 151.511 207.186 148.73 206.834 146.856L198.972 148.332ZM131.072 102.094C165.264 102.094 193.379 118.537 198.972 148.332L206.834 146.856C200.257 111.815 167.401 94.0938 131.072 94.0938V102.094ZM90.5508 109.862C100.994 103.977 113.885 102.094 131.072 102.094V94.0938C113.492 94.0938 98.9009 95.974 86.6235 102.892L90.5508 109.862ZM92.4573 105.366C92.0493 103.804 91.6343 102.207 91.2116 100.581L83.4689 102.594C83.8914 104.219 84.3076 105.82 84.717 107.388L92.4573 105.366ZM91.2116 100.581C86.8622 83.8481 81.6741 63.8587 75.4337 48.6186C72.3272 41.032 68.8217 34.2648 64.7988 29.6313C60.78 25.0024 55.4545 21.6932 49.1116 23.3928L51.1822 31.1202C53.1937 30.5812 55.6021 31.2412 58.7579 34.876C61.9096 38.5061 65.0195 44.2971 68.0303 51.65C74.0245 66.2888 79.0786 85.7035 83.4689 102.594L91.2116 100.581ZM49.1116 23.3928C42.3668 25.2001 39.3591 31.3395 38.1967 37.8855C37.0172 44.5274 37.4272 52.9553 38.6276 61.9166C41.0381 79.9128 46.8567 101.505 51.3968 118.372L59.1219 116.293C54.5449 99.2882 48.8846 78.2328 46.5568 60.8545C45.388 52.1286 45.114 44.6874 46.0735 39.2843C47.05 33.7853 49.0043 31.7038 51.1822 31.1202L49.1116 23.3928ZM51.397 118.373L51.3999 118.384L59.1247 116.303L59.1217 116.292L51.397 118.373ZM51.3998 118.383C51.8104 119.908 52.2106 121.396 52.5979 122.841L60.3254 120.77C59.9367 119.32 59.5352 117.828 59.1248 116.304L51.3998 118.383ZM52.5979 122.841C53.8438 127.491 55.0438 131.481 56.221 134.894L63.7839 132.286C62.6837 129.096 61.5372 125.293 60.3254 120.77L52.5979 122.841Z" fill="black" mask="url(#path-1-inside-1)"/>
<path d="M185.911 77.4078C191.237 77.4078 194.769 79.1815 197.013 81.8873C199.307 84.6539 200.476 88.664 200.476 93.5C200.476 95.5452 200.506 97.7119 200.536 99.9528C200.649 108.344 200.777 117.775 199.435 125.768C198.587 130.817 197.187 135.026 195.013 137.936C192.917 140.739 190.06 142.408 185.911 142.408C181.755 142.408 178.767 140.729 176.501 137.886C174.165 134.955 172.563 130.729 171.505 125.688C169.567 116.456 169.589 105.229 169.607 96.0171C169.608 95.1595 169.61 94.3194 169.61 93.5C169.61 87.0138 171.205 83.1486 173.745 80.8492C176.326 78.5123 180.297 77.4078 185.911 77.4078Z" fill="white" stroke="black" stroke-width="4"/>
<path d="M134.968 94.5569L134.968 94.5569C134.311 87.0385 135.54 82.3466 137.909 79.4245C140.261 76.5232 144.086 74.9389 149.644 74.4527C154.87 73.9954 158.562 75.6642 161.12 78.6098C163.756 81.6443 165.359 86.2376 165.85 91.8551C166.053 94.1751 166.298 96.6361 166.552 99.1857C167.504 108.767 168.581 119.598 168.035 128.9C167.69 134.785 166.701 139.798 164.779 143.383C162.92 146.851 160.226 148.945 156.192 149.298C152.145 149.652 149.002 148.054 146.398 144.941C143.723 141.742 141.673 136.983 140.1 131.274C137.224 120.838 136.119 107.953 135.217 97.4382C135.133 96.4557 135.05 95.494 134.968 94.5569Z" fill="white" stroke="black" stroke-width="4"/>
<path d="M98.9605 95.6842L98.9605 95.6841C97.6499 88.2517 98.4662 83.4705 100.571 80.353C102.662 77.2577 106.333 75.3462 111.828 74.3774C116.995 73.4663 120.818 74.807 123.623 77.5185C126.513 80.3117 128.51 84.7478 129.49 90.3011C129.894 92.5946 130.352 95.0249 130.827 97.5427C132.611 107.004 134.628 117.701 134.895 127.015C135.064 132.907 134.515 137.987 132.913 141.726C131.363 145.343 128.862 147.664 124.874 148.367C120.874 149.073 117.603 147.755 114.738 144.881C111.794 141.926 109.338 137.364 107.273 131.814C103.498 121.669 101.274 108.929 99.4594 98.5327C99.2898 97.5614 99.1238 96.6105 98.9605 95.6842Z" fill="white" stroke="black" stroke-width="4"/>
</g>
<defs>
<clipPath id="clip0">
<rect width="203.08" height="228.59" fill="white" transform="translate(0.160156)"/>
</clipPath>
</defs>
</svg>
