<svg width="204" height="229" viewBox="0 0 204 229" fill="none" xmlns="http://www.w3.org/2000/svg">
<g clip-path="url(#clip0)">
<mask id="path-1-inside-1" fill="white">
<path fill-rule="evenodd" clip-rule="evenodd" d="M124.062 88.6882C124.682 92.2038 125.174 95.3508 125.547 98.17C127.423 98.1179 129.344 98.0938 131.312 98.0938C166.573 98.0938 197.058 115.176 203.143 147.594C203.686 150.485 203.455 157.251 203.277 162.443C203.206 164.534 203.143 166.369 203.143 167.594C203.143 205.977 167.68 228.593 120.68 228.593C99.5607 228.593 85.0643 224.027 75.5032 215.515C66.5588 208.795 56.7618 199.089 47.1697 187.657C24.3972 160.518 11.4028 133.931 22.3354 124.757C30.0608 118.275 44.275 125.069 59.9853 139.189C60.0606 137.224 60.1461 135.338 60.2427 133.59C59.104 130.288 57.9307 126.392 56.7019 121.806C56.313 120.354 55.9111 118.861 55.4996 117.332C46.3825 83.4604 32.5417 32.0382 50.3871 27.2565C67.0959 22.7794 78.8408 67.964 87.5805 101.587L87.5813 101.591L87.5866 101.611C88.0071 103.229 88.4206 104.819 88.8274 106.377C89.7383 105.864 90.6645 105.379 91.6066 104.923C90.937 101.965 90.2691 98.597 89.5935 94.7659C89.1357 92.1691 88.6442 89.4416 88.1352 86.6168L88.1343 86.6114L88.1337 86.6084C81.9266 52.1598 73.1116 3.23743 90.6784 0.13993C108.245 -2.95757 116.694 46.0295 122.644 80.5234L122.644 80.5245C123.132 83.3556 123.604 86.0891 124.062 88.6882Z"/>
</mask>
<path fill-rule="evenodd" clip-rule="evenodd" d="M124.062 88.6882C124.682 92.2038 125.174 95.3508 125.547 98.17C127.423 98.1179 129.344 98.0938 131.312 98.0938C166.573 98.0938 197.058 115.176 203.143 147.594C203.686 150.485 203.455 157.251 203.277 162.443C203.206 164.534 203.143 166.369 203.143 167.594C203.143 205.977 167.68 228.593 120.68 228.593C99.5607 228.593 85.0643 224.027 75.5032 215.515C66.5588 208.795 56.7618 199.089 47.1697 187.657C24.3972 160.518 11.4028 133.931 22.3354 124.757C30.0608 118.275 44.275 125.069 59.9853 139.189C60.0606 137.224 60.1461 135.338 60.2427 133.59C59.104 130.288 57.9307 126.392 56.7019 121.806C56.313 120.354 55.9111 118.861 55.4996 117.332C46.3825 83.4604 32.5417 32.0382 50.3871 27.2565C67.0959 22.7794 78.8408 67.964 87.5805 101.587L87.5813 101.591L87.5866 101.611C88.0071 103.229 88.4206 104.819 88.8274 106.377C89.7383 105.864 90.6645 105.379 91.6066 104.923C90.937 101.965 90.2691 98.597 89.5935 94.7659C89.1357 92.1691 88.6442 89.4416 88.1352 86.6168L88.1343 86.6114L88.1337 86.6084C81.9266 52.1598 73.1116 3.23743 90.6784 0.13993C108.245 -2.95757 116.694 46.0295 122.644 80.5234L122.644 80.5245C123.132 83.3556 123.604 86.0891 124.062 88.6882Z" fill="white"/>
<path d="M125.547 98.17L121.581 98.6938L122.053 102.268L125.658 102.168L125.547 98.17ZM124.062 88.6882L128.001 87.9936L128.001 87.9936L124.062 88.6882ZM203.143 147.594L199.212 148.332L199.212 148.332L203.143 147.594ZM203.277 162.443L199.28 162.307L199.28 162.307L203.277 162.443ZM120.68 228.593L120.68 224.593H120.68V228.593ZM75.5032 215.515L78.1629 212.527L78.0388 212.417L77.9059 212.317L75.5032 215.515ZM47.1697 187.657L50.2338 185.086L50.2338 185.086L47.1697 187.657ZM22.3354 124.757L24.9065 127.822L24.9065 127.822L22.3354 124.757ZM59.9853 139.189L57.3114 142.164L63.6557 147.866L63.9824 139.342L59.9853 139.189ZM60.2427 133.59L64.2366 133.811L64.2798 133.028L64.0241 132.286L60.2427 133.59ZM56.7019 121.806L52.8382 122.841L52.8382 122.841L56.7019 121.806ZM55.4996 117.332L51.637 118.372L51.637 118.372L55.4996 117.332ZM50.3871 27.2565L49.3518 23.3928L49.3518 23.3928L50.3871 27.2565ZM87.5805 101.587L83.7091 102.594L83.7122 102.605L87.5805 101.587ZM87.5813 101.591L91.4527 100.584L91.4496 100.573L87.5813 101.591ZM87.5866 101.611L83.7152 102.617L83.7152 102.617L87.5866 101.611ZM88.8274 106.377L84.9573 107.388L86.2691 112.41L90.791 109.862L88.8274 106.377ZM91.6066 104.923L93.3508 108.523L96.2093 107.137L95.5079 104.04L91.6066 104.923ZM89.5935 94.7659L85.6543 95.4605L85.6543 95.4605L89.5935 94.7659ZM88.1352 86.6168L92.0719 85.9075L92.071 85.9028L88.1352 86.6168ZM88.1343 86.6114L84.1978 87.3217L84.1985 87.3255L88.1343 86.6114ZM88.1337 86.6084L84.1971 87.3177L84.1973 87.3187L88.1337 86.6084ZM90.6784 0.13993L91.373 4.07916L90.6784 0.13993ZM122.644 80.5234L118.702 81.2033L118.704 81.2134L118.705 81.2236L122.644 80.5234ZM122.644 80.5245L126.586 79.8446L126.584 79.8345L126.582 79.8243L122.644 80.5245ZM129.512 97.6461C129.131 94.758 128.629 91.5527 128.001 87.9936L120.123 89.3828C120.735 92.8549 121.218 95.9436 121.581 98.6938L129.512 97.6461ZM131.312 94.0938C129.312 94.0938 127.353 94.1183 125.436 94.1715L125.658 102.168C127.493 102.118 129.377 102.094 131.312 102.094V94.0938ZM207.075 146.856C200.497 111.815 167.641 94.0938 131.312 94.0938V102.094C165.504 102.094 193.619 118.537 199.212 148.332L207.075 146.856ZM207.275 162.58C207.363 159.996 207.468 156.945 207.48 154.174C207.492 151.511 207.426 148.73 207.075 146.856L199.212 148.332C199.403 149.349 199.493 151.397 199.48 154.138C199.469 156.77 199.369 159.698 199.28 162.307L207.275 162.58ZM207.143 167.594C207.143 166.454 207.202 164.703 207.275 162.58L199.28 162.307C199.209 164.364 199.143 166.283 199.143 167.594H207.143ZM120.68 232.593C144.764 232.593 166.258 226.806 181.85 215.75C197.559 204.612 207.143 188.189 207.143 167.594H199.143C199.143 185.382 190.996 199.459 177.223 209.224C163.334 219.072 143.596 224.593 120.68 224.593L120.68 232.593ZM72.8435 218.503C83.429 227.926 99.0579 232.593 120.68 232.593V224.593C100.063 224.593 86.6995 220.127 78.1629 212.527L72.8435 218.503ZM77.9059 212.317C69.2814 205.837 59.7027 196.371 50.2338 185.086L44.1055 190.228C53.8209 201.807 63.8362 211.752 73.1004 218.713L77.9059 212.317ZM50.2338 185.086C38.9751 171.668 30.3087 158.584 25.7975 147.913C23.5351 142.561 22.4313 138.078 22.401 134.604C22.3715 131.215 23.3428 129.134 24.9065 127.822L19.7642 121.693C15.8617 124.968 14.3576 129.65 14.4013 134.674C14.4444 139.614 15.9626 145.194 18.4288 151.028C23.3748 162.728 32.5918 176.507 44.1055 190.228L50.2338 185.086ZM24.9065 127.822C27.0624 126.013 30.6829 125.507 36.6509 127.949C42.5217 130.352 49.6055 135.238 57.3114 142.164L62.6592 136.214C54.6548 129.02 46.7764 123.449 39.6811 120.545C32.6831 117.681 25.3337 117.02 19.7642 121.693L24.9065 127.822ZM56.2487 133.369C56.1506 135.145 56.0642 137.054 55.9882 139.036L63.9824 139.342C64.057 137.394 64.1415 135.531 64.2366 133.811L56.2487 133.369ZM52.8382 122.841C54.084 127.491 55.284 131.481 56.4612 134.894L64.0241 132.286C62.924 129.096 61.7774 125.293 60.5656 120.77L52.8382 122.841ZM51.637 118.372C52.0487 119.901 52.45 121.392 52.8382 122.841L60.5656 120.77C60.176 119.316 59.7735 117.821 59.3621 116.293L51.637 118.372ZM49.3518 23.3928C42.607 25.2001 39.5994 31.3395 38.4369 37.8855C37.2575 44.5274 37.6675 52.9553 38.8678 61.9166C41.2784 79.9128 47.097 101.505 51.637 118.372L59.3621 116.293C54.7851 99.2882 49.1248 78.2328 46.797 60.8545C45.6282 52.1286 45.3542 44.6874 46.3137 39.2843C47.2902 33.7853 49.2445 31.7038 51.4224 31.1202L49.3518 23.3928ZM91.4518 100.581C87.1024 83.848 81.9143 63.8586 75.6739 48.6185C72.5674 41.032 69.062 34.2648 65.039 29.6312C61.0202 25.0024 55.6948 21.6932 49.3518 23.3928L51.4224 31.1202C53.4339 30.5812 55.8423 31.2412 58.9982 34.876C62.1498 38.5061 65.2597 44.2971 68.2705 51.65C74.2647 66.2888 79.3188 85.7034 83.7091 102.594L91.4518 100.581ZM91.4496 100.573L91.4488 100.569L83.7122 102.605L83.713 102.608L91.4496 100.573ZM91.458 100.605L91.4527 100.584L83.7099 102.597L83.7152 102.617L91.458 100.605ZM92.6975 105.366C92.2915 103.811 91.8785 102.223 91.4579 100.604L83.7152 102.617C84.1356 104.234 84.5497 105.828 84.9573 107.388L92.6975 105.366ZM89.8624 101.323C88.8471 101.815 87.8477 102.338 86.8638 102.892L90.791 109.862C91.6289 109.39 92.4819 108.944 93.3508 108.523L89.8624 101.323ZM85.6543 95.4605C86.3381 99.3387 87.0184 102.772 87.7054 105.806L95.5079 104.04C94.8556 101.159 94.2 97.8554 93.5328 94.0713L85.6543 95.4605ZM84.1986 87.3261C84.7079 90.1525 85.198 92.8724 85.6543 95.4605L93.5328 94.0713C93.0734 91.4658 92.5805 88.7308 92.0719 85.9075L84.1986 87.3261ZM84.1985 87.3255L84.1995 87.3309L92.071 85.9028L92.07 85.8973L84.1985 87.3255ZM84.1973 87.3187L84.1978 87.3217L92.0707 85.9011L92.0701 85.898L84.1973 87.3187ZM89.9838 -3.7993C83.3261 -2.62537 79.8502 2.90546 78.1433 9.04093C76.423 15.2244 76.0976 23.2183 76.4951 31.8026C77.2937 49.0443 81.1071 70.1685 84.1971 87.3177L92.0703 85.8991C88.9533 68.5997 85.2556 48.0384 84.4866 31.4325C84.1003 23.0929 84.477 16.1224 85.8506 11.1852C87.2375 6.20001 89.2473 4.45398 91.373 4.07916L89.9838 -3.7993ZM126.585 79.8436C123.624 62.6718 119.982 41.5172 114.836 25.0422C112.273 16.8396 109.233 9.43907 105.502 4.21689C101.799 -0.964765 96.6415 -4.97323 89.9838 -3.7993L91.373 4.07916C93.4987 3.70434 95.9845 4.65769 98.9928 8.86786C101.972 13.0375 104.71 19.4589 107.2 27.4276C112.156 43.2952 115.714 63.8811 118.702 81.2033L126.585 79.8436ZM126.582 79.8243L126.582 79.8233L118.705 81.2236L118.706 81.2246L126.582 79.8243ZM128.001 87.9936C127.544 85.4033 127.074 82.6773 126.586 79.8446L118.702 81.2043C119.19 84.0339 119.663 86.775 120.123 89.3828L128.001 87.9936Z" fill="black" mask="url(#path-1-inside-1)"/>
<path d="M186.152 77.4078C191.477 77.4078 195.009 79.1815 197.253 81.8873C199.547 84.6539 200.717 88.664 200.717 93.5C200.717 95.5452 200.746 97.7119 200.776 99.9528C200.89 108.344 201.017 117.775 199.675 125.768C198.827 130.817 197.427 135.026 195.253 137.936C193.158 140.739 190.3 142.408 186.152 142.408C181.995 142.408 179.007 140.729 176.741 137.886C174.405 134.955 172.803 130.729 171.745 125.688C169.807 116.456 169.829 105.229 169.847 96.0171C169.848 95.1595 169.85 94.3194 169.85 93.5C169.85 87.0138 171.445 83.1486 173.985 80.8492C176.566 78.5123 180.537 77.4078 186.152 77.4078Z" fill="white" stroke="black" stroke-width="4"/>
<path d="M135.209 94.5569L135.209 94.5569C134.551 87.0385 135.781 82.3466 138.15 79.4245C140.502 76.5232 144.326 74.9389 149.884 74.4527C155.111 73.9954 158.802 75.6642 161.36 78.6098C163.996 81.6443 165.599 86.2376 166.091 91.8551C166.294 94.1751 166.538 96.6361 166.792 99.1857C167.745 108.767 168.822 119.598 168.275 128.9C167.93 134.785 166.941 139.798 165.02 143.383C163.16 146.851 160.466 148.945 156.432 149.298C152.385 149.652 149.242 148.054 146.639 144.941C143.963 141.742 141.914 136.983 140.34 131.274C137.464 120.838 136.359 107.953 135.457 97.4382C135.373 96.4557 135.291 95.494 135.209 94.5569Z" fill="white" stroke="black" stroke-width="4"/>
</g>
<defs>
<clipPath id="clip0">
<rect width="203.08" height="228.59" fill="white" transform="translate(0.400391)"/>
</clipPath>
</defs>
</svg>
